{"glyphs":{"0":{"ha":833,"x_min":94,"x_max":739,"o":"m 417 -14 q 246 24 318 -14 q 134 129 174 61 q 94 289 94 197 l 94 725 q 134 885 94 817 q 246 990 174 953 q 417 1028 318 1028 q 588 990 515 1028 q 699 885 660 953 q 739 725 739 817 l 739 289 q 699 129 739 197 q 588 24 660 61 q 417 -14 515 -14 m 417 136 q 532 178 489 136 q 575 289 575 219 l 575 725 q 533 836 575 794 q 417 878 490 878 q 301 836 343 878 q 258 725 258 794 l 258 289 q 301 178 258 219 q 417 136 344 136 m 417 424 q 350 447 375 424 q 325 511 325 469 q 350 574 325 553 q 417 596 375 596 q 483 574 458 596 q 508 511 508 553 q 483 447 508 469 q 417 424 458 424 z "},"1":{"ha":833,"x_min":115,"x_max":767,"o":"m 117 0 l 117 157 l 381 157 l 381 846 l 115 651 l 115 846 l 349 1014 l 554 1014 l 554 157 l 767 157 l 767 0 l 117 0 z "},"2":{"ha":833,"x_min":88,"x_max":747,"o":"m 103 0 l 103 157 l 468 531 q 557 719 557 624 q 517 830 557 788 q 411 872 478 872 q 302 828 343 872 q 261 713 261 785 l 88 713 q 129 878 88 807 q 244 988 171 949 q 415 1028 318 1028 q 583 990 511 1028 q 695 885 656 953 q 735 728 735 818 q 698 572 735 650 q 576 411 661 494 l 321 157 l 747 157 l 747 0 l 103 0 z "},"3":{"ha":833,"x_min":82,"x_max":733,"o":"m 407 -14 q 169 65 257 -14 q 82 278 82 143 l 257 278 q 297 176 257 214 q 408 138 338 138 q 518 176 478 138 q 558 278 558 214 l 558 354 q 519 460 558 422 q 408 499 479 499 l 281 499 l 281 638 l 514 861 l 118 861 l 118 1014 l 704 1014 l 704 867 l 471 643 q 663 551 593 626 q 733 354 733 475 l 733 278 q 645 65 733 143 q 407 -14 557 -14 z "},"4":{"ha":833,"x_min":82,"x_max":706,"o":"m 531 0 l 531 201 l 82 201 l 82 453 l 457 1014 l 650 1014 l 249 407 l 249 354 l 531 354 l 531 583 l 706 583 l 706 0 l 531 0 z "},"5":{"ha":833,"x_min":86,"x_max":736,"o":"m 411 -14 q 174 65 263 -14 q 86 278 86 143 l 260 278 q 301 176 260 214 q 413 138 342 138 q 523 176 483 138 q 563 282 563 214 l 563 349 q 524 455 563 417 q 414 493 485 493 l 121 493 l 121 1014 l 699 1014 l 699 857 l 285 857 l 286 646 l 422 646 q 654 568 572 646 q 736 349 736 490 l 736 282 q 649 65 736 144 q 411 -14 563 -14 z "},"6":{"ha":833,"x_min":74,"x_max":760,"o":"m 417 -14 q 235 28 313 -14 q 116 145 158 69 q 74 322 74 221 q 99 459 74 382 q 169 615 125 536 l 389 1014 l 586 1014 l 325 567 l 331 564 q 392 610 351 593 q 479 626 432 626 q 627 588 564 626 q 725 481 690 550 q 760 317 760 411 q 717 142 760 217 q 598 27 675 68 q 417 -14 521 -14 m 417 133 q 542 183 494 133 q 589 314 589 232 q 542 447 589 397 q 417 496 494 496 q 292 447 339 496 q 244 314 244 397 q 292 183 244 232 q 417 133 339 133 z "},"7":{"ha":833,"x_min":93,"x_max":778,"o":"m 219 0 l 590 861 l 267 861 l 267 696 l 93 696 l 93 1014 l 778 1014 l 778 861 l 410 0 l 219 0 z "},"8":{"ha":833,"x_min":74,"x_max":760,"o":"m 417 -14 q 238 24 315 -14 q 117 130 160 63 q 74 286 74 197 q 127 449 74 379 q 267 536 181 518 l 267 539 q 148 614 193 554 q 103 756 103 674 q 142 897 103 836 q 253 993 182 958 q 417 1028 324 1028 q 581 993 510 1028 q 692 897 653 958 q 732 756 732 836 q 686 614 732 674 q 567 539 640 554 l 567 536 q 706 449 653 518 q 760 286 760 379 q 717 130 760 197 q 596 24 674 63 q 417 -14 518 -14 m 417 599 q 522 638 482 599 q 563 740 563 678 q 522 844 563 804 q 417 883 482 883 q 311 844 351 883 q 271 740 271 804 q 311 638 271 678 q 417 599 351 599 m 417 133 q 542 178 493 133 q 590 294 590 222 q 542 413 590 368 q 417 458 493 458 q 292 413 340 458 q 243 294 243 368 q 292 178 243 222 q 417 133 340 133 z "},"9":{"ha":833,"x_min":74,"x_max":760,"o":"m 243 0 l 481 410 q 442 388 464 397 q 375 379 419 379 q 223 419 292 379 q 114 531 154 460 q 74 697 74 603 q 116 872 74 797 q 235 987 158 946 q 417 1028 313 1028 q 598 986 521 1028 q 717 869 675 944 q 760 692 760 793 q 734 555 760 632 q 664 399 708 478 l 444 0 l 243 0 m 417 518 q 542 567 494 518 q 589 700 589 617 q 542 831 589 782 q 417 881 494 881 q 292 831 339 881 q 244 700 244 782 q 292 567 244 617 q 417 518 339 518 z "},"Ƒ":{"ha":833,"x_min":125,"x_max":708,"o":"m 125 0 l 125 1014 l 708 1014 l 708 0 l 125 0 m 194 151 l 611 944 l 194 944 l 194 151 m 222 69 l 639 69 l 639 863 l 222 69 z "},"Ǐ":{"ha":833,"x_min":125,"x_max":708,"o":"m 125 0 l 125 1014 l 708 1014 l 708 0 l 125 0 m 194 151 l 611 944 l 194 944 l 194 151 m 222 69 l 639 69 l 639 863 l 222 69 z "},"Ǒ":{"ha":833,"x_min":125,"x_max":708,"o":"m 125 0 l 125 1014 l 708 1014 l 708 0 l 125 0 m 194 151 l 611 944 l 194 944 l 194 151 m 222 69 l 639 69 l 639 863 l 222 69 z "},"Ǔ":{"ha":833,"x_min":125,"x_max":708,"o":"m 125 0 l 125 1014 l 708 1014 l 708 0 l 125 0 m 194 151 l 611 944 l 194 944 l 194 151 m 222 69 l 639 69 l 639 863 l 222 69 z "},"Ǖ":{"ha":833,"x_min":125,"x_max":708,"o":"m 125 0 l 125 1014 l 708 1014 l 708 0 l 125 0 m 194 151 l 611 944 l 194 944 l 194 151 m 222 69 l 639 69 l 639 863 l 222 69 z "},"Ǘ":{"ha":833,"x_min":125,"x_max":708,"o":"m 125 0 l 125 1014 l 708 1014 l 708 0 l 125 0 m 194 151 l 611 944 l 194 944 l 194 151 m 222 69 l 639 69 l 639 863 l 222 69 z "},"Ǚ":{"ha":833,"x_min":125,"x_max":708,"o":"m 125 0 l 125 1014 l 708 1014 l 708 0 l 125 0 m 194 151 l 611 944 l 194 944 l 194 151 m 222 69 l 639 69 l 639 863 l 222 69 z "},"Ǜ":{"ha":833,"x_min":125,"x_max":708,"o":"m 125 0 l 125 1014 l 708 1014 l 708 0 l 125 0 m 194 151 l 611 944 l 194 944 l 194 151 m 222 69 l 639 69 l 639 863 l 222 69 z "},"Ǩ":{"ha":833,"x_min":125,"x_max":708,"o":"m 125 0 l 125 1014 l 708 1014 l 708 0 l 125 0 m 194 151 l 611 944 l 194 944 l 194 151 m 222 69 l 639 69 l 639 863 l 222 69 z "},"ǩ":{"ha":833,"x_min":125,"x_max":708,"o":"m 125 0 l 125 1014 l 708 1014 l 708 0 l 125 0 m 194 151 l 611 944 l 194 944 l 194 151 m 222 69 l 639 69 l 639 863 l 222 69 z "},"ȴ":{"ha":833,"x_min":125,"x_max":708,"o":"m 125 0 l 125 1014 l 708 1014 l 708 0 l 125 0 m 194 151 l 611 944 l 194 944 l 194 151 m 222 69 l 639 69 l 639 863 l 222 69 z "},"ȵ":{"ha":833,"x_min":125,"x_max":708,"o":"m 125 0 l 125 1014 l 708 1014 l 708 0 l 125 0 m 194 151 l 611 944 l 194 944 l 194 151 m 222 69 l 639 69 l 639 863 l 222 69 z "},"ȶ":{"ha":833,"x_min":125,"x_max":708,"o":"m 125 0 l 125 1014 l 708 1014 l 708 0 l 125 0 m 194 151 l 611 944 l 194 944 l 194 151 m 222 69 l 639 69 l 639 863 l 222 69 z "},"ʻ":{"ha":833,"x_min":125,"x_max":708,"o":"m 125 0 l 125 1014 l 708 1014 l 708 0 l 125 0 m 194 151 l 611 944 l 194 944 l 194 151 m 222 69 l 639 69 l 639 863 l 222 69 z "},"ˈ":{"ha":833,"x_min":125,"x_max":708,"o":"m 125 0 l 125 1014 l 708 1014 l 708 0 l 125 0 m 194 151 l 611 944 l 194 944 l 194 151 m 222 69 l 639 69 l 639 863 l 222 69 z "},"˴":{"ha":833,"x_min":125,"x_max":708,"o":"m 125 0 l 125 1014 l 708 1014 l 708 0 l 125 0 m 194 151 l 611 944 l 194 944 l 194 151 m 222 69 l 639 69 l 639 863 l 222 69 z "},"˵":{"ha":833,"x_min":125,"x_max":708,"o":"m 125 0 l 125 1014 l 708 1014 l 708 0 l 125 0 m 194 151 l 611 944 l 194 944 l 194 151 m 222 69 l 639 69 l 639 863 l 222 69 z "},"˶":{"ha":833,"x_min":125,"x_max":708,"o":"m 125 0 l 125 1014 l 708 1014 l 708 0 l 125 0 m 194 151 l 611 944 l 194 944 l 194 151 m 222 69 l 639 69 l 639 863 l 222 69 z "},"̐":{"ha":833,"x_min":125,"x_max":708,"o":"m 125 0 l 125 1014 l 708 1014 l 708 0 l 125 0 m 194 151 l 611 944 l 194 944 l 194 151 m 222 69 l 639 69 l 639 863 l 222 69 z "},"̑":{"ha":833,"x_min":125,"x_max":708,"o":"m 125 0 l 125 1014 l 708 1014 l 708 0 l 125 0 m 194 151 l 611 944 l 194 944 l 194 151 m 222 69 l 639 69 l 639 863 l 222 69 z "},"̤":{"ha":833,"x_min":125,"x_max":708,"o":"m 125 0 l 125 1014 l 708 1014 l 708 0 l 125 0 m 194 151 l 611 944 l 194 944 l 194 151 m 222 69 l 639 69 l 639 863 l 222 69 z "},"Ҹ":{"ha":833,"x_min":125,"x_max":708,"o":"m 125 0 l 125 1014 l 708 1014 l 708 0 l 125 0 m 194 151 l 611 944 l 194 944 l 194 151 m 222 69 l 639 69 l 639 863 l 222 69 z "},"ҹ":{"ha":833,"x_min":125,"x_max":708,"o":"m 125 0 l 125 1014 l 708 1014 l 708 0 l 125 0 m 194 151 l 611 944 l 194 944 l 194 151 m 222 69 l 639 69 l 639 863 l 222 69 z "},"Ӛ":{"ha":833,"x_min":125,"x_max":708,"o":"m 125 0 l 125 1014 l 708 1014 l 708 0 l 125 0 m 194 151 l 611 944 l 194 944 l 194 151 m 222 69 l 639 69 l 639 863 l 222 69 z "},"ӛ":{"ha":833,"x_min":125,"x_max":708,"o":"m 125 0 l 125 1014 l 708 1014 l 708 0 l 125 0 m 194 151 l 611 944 l 194 944 l 194 151 m 222 69 l 639 69 l 639 863 l 222 69 z "},"‑":{"ha":833,"x_min":125,"x_max":708,"o":"m 125 0 l 125 1014 l 708 1014 l 708 0 l 125 0 m 194 151 l 611 944 l 194 944 l 194 151 m 222 69 l 639 69 l 639 863 l 222 69 z "},"‒":{"ha":833,"x_min":125,"x_max":708,"o":"m 125 0 l 125 1014 l 708 1014 l 708 0 l 125 0 m 194 151 l 611 944 l 194 944 l 194 151 m 222 69 l 639 69 l 639 863 l 222 69 z "},"―":{"ha":833,"x_min":125,"x_max":708,"o":"m 125 0 l 125 1014 l 708 1014 l 708 0 l 125 0 m 194 151 l 611 944 l 194 944 l 194 151 m 222 69 l 639 69 l 639 863 l 222 69 z "},"‥":{"ha":833,"x_min":125,"x_max":708,"o":"m 125 0 l 125 1014 l 708 1014 l 708 0 l 125 0 m 194 151 l 611 944 l 194 944 l 194 151 m 222 69 l 639 69 l 639 863 l 222 69 z "},"‱":{"ha":833,"x_min":125,"x_max":708,"o":"m 125 0 l 125 1014 l 708 1014 l 708 0 l 125 0 m 194 151 l 611 944 l 194 944 l 194 151 m 222 69 l 639 69 l 639 863 l 222 69 z "},"※":{"ha":833,"x_min":125,"x_max":708,"o":"m 125 0 l 125 1014 l 708 1014 l 708 0 l 125 0 m 194 151 l 611 944 l 194 944 l 194 151 m 222 69 l 639 69 l 639 863 l 222 69 z "},"₭":{"ha":833,"x_min":125,"x_max":708,"o":"m 125 0 l 125 1014 l 708 1014 l 708 0 l 125 0 m 194 151 l 611 944 l 194 944 l 194 151 m 222 69 l 639 69 l 639 863 l 222 69 z "},"₾":{"ha":833,"x_min":125,"x_max":708,"o":"m 125 0 l 125 1014 l 708 1014 l 708 0 l 125 0 m 194 151 l 611 944 l 194 944 l 194 151 m 222 69 l 639 69 l 639 863 l 222 69 z "},"℔":{"ha":833,"x_min":125,"x_max":708,"o":"m 125 0 l 125 1014 l 708 1014 l 708 0 l 125 0 m 194 151 l 611 944 l 194 944 l 194 151 m 222 69 l 639 69 l 639 863 l 222 69 z "},"℗":{"ha":833,"x_min":125,"x_max":708,"o":"m 125 0 l 125 1014 l 708 1014 l 708 0 l 125 0 m 194 151 l 611 944 l 194 944 l 194 151 m 222 69 l 639 69 l 639 863 l 222 69 z "},"℘":{"ha":833,"x_min":125,"x_max":708,"o":"m 125 0 l 125 1014 l 708 1014 l 708 0 l 125 0 m 194 151 l 611 944 l 194 944 l 194 151 m 222 69 l 639 69 l 639 863 l 222 69 z "},"ℛ":{"ha":833,"x_min":125,"x_max":708,"o":"m 125 0 l 125 1014 l 708 1014 l 708 0 l 125 0 m 194 151 l 611 944 l 194 944 l 194 151 m 222 69 l 639 69 l 639 863 l 222 69 z "},"ℜ":{"ha":833,"x_min":125,"x_max":708,"o":"m 125 0 l 125 1014 l 708 1014 l 708 0 l 125 0 m 194 151 l 611 944 l 194 944 l 194 151 m 222 69 l 639 69 l 639 863 l 222 69 z "},"℣":{"ha":833,"x_min":125,"x_max":708,"o":"m 125 0 l 125 1014 l 708 1014 l 708 0 l 125 0 m 194 151 l 611 944 l 194 944 l 194 151 m 222 69 l 639 69 l 639 863 l 222 69 z "},"↟":{"ha":833,"x_min":125,"x_max":708,"o":"m 125 0 l 125 1014 l 708 1014 l 708 0 l 125 0 m 194 151 l 611 944 l 194 944 l 194 151 m 222 69 l 639 69 l 639 863 l 222 69 z "},"↡":{"ha":833,"x_min":125,"x_max":708,"o":"m 125 0 l 125 1014 l 708 1014 l 708 0 l 125 0 m 194 151 l 611 944 l 194 944 l 194 151 m 222 69 l 639 69 l 639 863 l 222 69 z "},"↤":{"ha":833,"x_min":125,"x_max":708,"o":"m 125 0 l 125 1014 l 708 1014 l 708 0 l 125 0 m 194 151 l 611 944 l 194 944 l 194 151 m 222 69 l 639 69 l 639 863 l 222 69 z "},"↨":{"ha":833,"x_min":125,"x_max":708,"o":"m 125 0 l 125 1014 l 708 1014 l 708 0 l 125 0 m 194 151 l 611 944 l 194 944 l 194 151 m 222 69 l 639 69 l 639 863 l 222 69 z "},"↫":{"ha":833,"x_min":125,"x_max":708,"o":"m 125 0 l 125 1014 l 708 1014 l 708 0 l 125 0 m 194 151 l 611 944 l 194 944 l 194 151 m 222 69 l 639 69 l 639 863 l 222 69 z "},"↬":{"ha":833,"x_min":125,"x_max":708,"o":"m 125 0 l 125 1014 l 708 1014 l 708 0 l 125 0 m 194 151 l 611 944 l 194 944 l 194 151 m 222 69 l 639 69 l 639 863 l 222 69 z "},"⇜":{"ha":833,"x_min":125,"x_max":708,"o":"m 125 0 l 125 1014 l 708 1014 l 708 0 l 125 0 m 194 151 l 611 944 l 194 944 l 194 151 m 222 69 l 639 69 l 639 863 l 222 69 z "},"⇝":{"ha":833,"x_min":125,"x_max":708,"o":"m 125 0 l 125 1014 l 708 1014 l 708 0 l 125 0 m 194 151 l 611 944 l 194 944 l 194 151 m 222 69 l 639 69 l 639 863 l 222 69 z "},"⇦":{"ha":833,"x_min":125,"x_max":708,"o":"m 125 0 l 125 1014 l 708 1014 l 708 0 l 125 0 m 194 151 l 611 944 l 194 944 l 194 151 m 222 69 l 639 69 l 639 863 l 222 69 z "},"⇩":{"ha":833,"x_min":125,"x_max":708,"o":"m 125 0 l 125 1014 l 708 1014 l 708 0 l 125 0 m 194 151 l 611 944 l 194 944 l 194 151 m 222 69 l 639 69 l 639 863 l 222 69 z "},"∖":{"ha":833,"x_min":125,"x_max":708,"o":"m 125 0 l 125 1014 l 708 1014 l 708 0 l 125 0 m 194 151 l 611 944 l 194 944 l 194 151 m 222 69 l 639 69 l 639 863 l 222 69 z "},"∗":{"ha":833,"x_min":125,"x_max":708,"o":"m 125 0 l 125 1014 l 708 1014 l 708 0 l 125 0 m 194 151 l 611 944 l 194 944 l 194 151 m 222 69 l 639 69 l 639 863 l 222 69 z "},"∛":{"ha":833,"x_min":125,"x_max":708,"o":"m 125 0 l 125 1014 l 708 1014 l 708 0 l 125 0 m 194 151 l 611 944 l 194 944 l 194 151 m 222 69 l 639 69 l 639 863 l 222 69 z "},"∜":{"ha":833,"x_min":125,"x_max":708,"o":"m 125 0 l 125 1014 l 708 1014 l 708 0 l 125 0 m 194 151 l 611 944 l 194 944 l 194 151 m 222 69 l 639 69 l 639 863 l 222 69 z "},"∝":{"ha":833,"x_min":125,"x_max":708,"o":"m 125 0 l 125 1014 l 708 1014 l 708 0 l 125 0 m 194 151 l 611 944 l 194 944 l 194 151 m 222 69 l 639 69 l 639 863 l 222 69 z "},"∽":{"ha":833,"x_min":125,"x_max":708,"o":"m 125 0 l 125 1014 l 708 1014 l 708 0 l 125 0 m 194 151 l 611 944 l 194 944 l 194 151 m 222 69 l 639 69 l 639 863 l 222 69 z "},"≄":{"ha":833,"x_min":125,"x_max":708,"o":"m 125 0 l 125 1014 l 708 1014 l 708 0 l 125 0 m 194 151 l 611 944 l 194 944 l 194 151 m 222 69 l 639 69 l 639 863 l 222 69 z "},"≆":{"ha":833,"x_min":125,"x_max":708,"o":"m 125 0 l 125 1014 l 708 1014 l 708 0 l 125 0 m 194 151 l 611 944 l 194 944 l 194 151 m 222 69 l 639 69 l 639 863 l 222 69 z "},"≊":{"ha":833,"x_min":125,"x_max":708,"o":"m 125 0 l 125 1014 l 708 1014 l 708 0 l 125 0 m 194 151 l 611 944 l 194 944 l 194 151 m 222 69 l 639 69 l 639 863 l 222 69 z "},"≌":{"ha":833,"x_min":125,"x_max":708,"o":"m 125 0 l 125 1014 l 708 1014 l 708 0 l 125 0 m 194 151 l 611 944 l 194 944 l 194 151 m 222 69 l 639 69 l 639 863 l 222 69 z "},"≕":{"ha":833,"x_min":125,"x_max":708,"o":"m 125 0 l 125 1014 l 708 1014 l 708 0 l 125 0 m 194 151 l 611 944 l 194 944 l 194 151 m 222 69 l 639 69 l 639 863 l 222 69 z "},"≖":{"ha":833,"x_min":125,"x_max":708,"o":"m 125 0 l 125 1014 l 708 1014 l 708 0 l 125 0 m 194 151 l 611 944 l 194 944 l 194 151 m 222 69 l 639 69 l 639 863 l 222 69 z "},"⊵":{"ha":833,"x_min":125,"x_max":708,"o":"m 125 0 l 125 1014 l 708 1014 l 708 0 l 125 0 m 194 151 l 611 944 l 194 944 l 194 151 m 222 69 l 639 69 l 639 863 l 222 69 z "},"⊶":{"ha":833,"x_min":125,"x_max":708,"o":"m 125 0 l 125 1014 l 708 1014 l 708 0 l 125 0 m 194 151 l 611 944 l 194 944 l 194 151 m 222 69 l 639 69 l 639 863 l 222 69 z "},"⊷":{"ha":833,"x_min":125,"x_max":708,"o":"m 125 0 l 125 1014 l 708 1014 l 708 0 l 125 0 m 194 151 l 611 944 l 194 944 l 194 151 m 222 69 l 639 69 l 639 863 l 222 69 z "},"⊹":{"ha":833,"x_min":125,"x_max":708,"o":"m 125 0 l 125 1014 l 708 1014 l 708 0 l 125 0 m 194 151 l 611 944 l 194 944 l 194 151 m 222 69 l 639 69 l 639 863 l 222 69 z "},"⊺":{"ha":833,"x_min":125,"x_max":708,"o":"m 125 0 l 125 1014 l 708 1014 l 708 0 l 125 0 m 194 151 l 611 944 l 194 944 l 194 151 m 222 69 l 639 69 l 639 863 l 222 69 z "},"⋅":{"ha":833,"x_min":125,"x_max":708,"o":"m 125 0 l 125 1014 l 708 1014 l 708 0 l 125 0 m 194 151 l 611 944 l 194 944 l 194 151 m 222 69 l 639 69 l 639 863 l 222 69 z "},"⋇":{"ha":833,"x_min":125,"x_max":708,"o":"m 125 0 l 125 1014 l 708 1014 l 708 0 l 125 0 m 194 151 l 611 944 l 194 944 l 194 151 m 222 69 l 639 69 l 639 863 l 222 69 z "},"⋋":{"ha":833,"x_min":125,"x_max":708,"o":"m 125 0 l 125 1014 l 708 1014 l 708 0 l 125 0 m 194 151 l 611 944 l 194 944 l 194 151 m 222 69 l 639 69 l 639 863 l 222 69 z "},"⋌":{"ha":833,"x_min":125,"x_max":708,"o":"m 125 0 l 125 1014 l 708 1014 l 708 0 l 125 0 m 194 151 l 611 944 l 194 944 l 194 151 m 222 69 l 639 69 l 639 863 l 222 69 z "},"⋍":{"ha":833,"x_min":125,"x_max":708,"o":"m 125 0 l 125 1014 l 708 1014 l 708 0 l 125 0 m 194 151 l 611 944 l 194 944 l 194 151 m 222 69 l 639 69 l 639 863 l 222 69 z "},"⋏":{"ha":833,"x_min":125,"x_max":708,"o":"m 125 0 l 125 1014 l 708 1014 l 708 0 l 125 0 m 194 151 l 611 944 l 194 944 l 194 151 m 222 69 l 639 69 l 639 863 l 222 69 z "},"⌆":{"ha":833,"x_min":125,"x_max":708,"o":"m 125 0 l 125 1014 l 708 1014 l 708 0 l 125 0 m 194 151 l 611 944 l 194 944 l 194 151 m 222 69 l 639 69 l 639 863 l 222 69 z "},"⌇":{"ha":833,"x_min":125,"x_max":708,"o":"m 125 0 l 125 1014 l 708 1014 l 708 0 l 125 0 m 194 151 l 611 944 l 194 944 l 194 151 m 222 69 l 639 69 l 639 863 l 222 69 z "},"⌙":{"ha":833,"x_min":125,"x_max":708,"o":"m 125 0 l 125 1014 l 708 1014 l 708 0 l 125 0 m 194 151 l 611 944 l 194 944 l 194 151 m 222 69 l 639 69 l 639 863 l 222 69 z "},"⌚":{"ha":833,"x_min":125,"x_max":708,"o":"m 125 0 l 125 1014 l 708 1014 l 708 0 l 125 0 m 194 151 l 611 944 l 194 944 l 194 151 m 222 69 l 639 69 l 639 863 l 222 69 z "},"⌛":{"ha":833,"x_min":125,"x_max":708,"o":"m 125 0 l 125 1014 l 708 1014 l 708 0 l 125 0 m 194 151 l 611 944 l 194 944 l 194 151 m 222 69 l 639 69 l 639 863 l 222 69 z "},"⌧":{"ha":833,"x_min":125,"x_max":708,"o":"m 125 0 l 125 1014 l 708 1014 l 708 0 l 125 0 m 194 151 l 611 944 l 194 944 l 194 151 m 222 69 l 639 69 l 639 863 l 222 69 z "},"〈":{"ha":833,"x_min":125,"x_max":708,"o":"m 125 0 l 125 1014 l 708 1014 l 708 0 l 125 0 m 194 151 l 611 944 l 194 944 l 194 151 m 222 69 l 639 69 l 639 863 l 222 69 z "},"〉":{"ha":833,"x_min":125,"x_max":708,"o":"m 125 0 l 125 1014 l 708 1014 l 708 0 l 125 0 m 194 151 l 611 944 l 194 944 l 194 151 m 222 69 l 639 69 l 639 863 l 222 69 z "},"♮":{"ha":833,"x_min":125,"x_max":708,"o":"m 125 0 l 125 1014 l 708 1014 l 708 0 l 125 0 m 194 151 l 611 944 l 194 944 l 194 151 m 222 69 l 639 69 l 639 863 l 222 69 z "},"✔":{"ha":833,"x_min":125,"x_max":708,"o":"m 125 0 l 125 1014 l 708 1014 l 708 0 l 125 0 m 194 151 l 611 944 l 194 944 l 194 151 m 222 69 l 639 69 l 639 863 l 222 69 z "},"✖":{"ha":833,"x_min":125,"x_max":708,"o":"m 125 0 l 125 1014 l 708 1014 l 708 0 l 125 0 m 194 151 l 611 944 l 194 944 l 194 151 m 222 69 l 639 69 l 639 863 l 222 69 z "},"":{"ha":833,"x_min":125,"x_max":708,"o":"m 125 0 l 125 1014 l 708 1014 l 708 0 l 125 0 m 194 151 l 611 944 l 194 944 l 194 151 m 222 69 l 639 69 l 639 863 l 222 69 z "},"":{"ha":833,"x_min":125,"x_max":708,"o":"m 125 0 l 125 1014 l 708 1014 l 708 0 l 125 0 m 194 151 l 611 944 l 194 944 l 194 151 m 222 69 l 639 69 l 639 863 l 222 69 z "},"":{"ha":833,"x_min":125,"x_max":708,"o":"m 125 0 l 125 1014 l 708 1014 l 708 0 l 125 0 m 194 151 l 611 944 l 194 944 l 194 151 m 222 69 l 639 69 l 639 863 l 222 69 z "},"":{"ha":833,"x_min":125,"x_max":708,"o":"m 125 0 l 125 1014 l 708 1014 l 708 0 l 125 0 m 194 151 l 611 944 l 194 944 l 194 151 m 222 69 l 639 69 l 639 863 l 222 69 z "},"":{"ha":833,"x_min":125,"x_max":708,"o":"m 125 0 l 125 1014 l 708 1014 l 708 0 l 125 0 m 194 151 l 611 944 l 194 944 l 194 151 m 222 69 l 639 69 l 639 863 l 222 69 z "},"":{"ha":833,"x_min":125,"x_max":708,"o":"m 125 0 l 125 1014 l 708 1014 l 708 0 l 125 0 m 194 151 l 611 944 l 194 944 l 194 151 m 222 69 l 639 69 l 639 863 l 222 69 z "},"":{"ha":833,"x_min":125,"x_max":708,"o":"m 125 0 l 125 1014 l 708 1014 l 708 0 l 125 0 m 194 151 l 611 944 l 194 944 l 194 151 m 222 69 l 639 69 l 639 863 l 222 69 z "},"":{"ha":833,"x_min":125,"x_max":708,"o":"m 125 0 l 125 1014 l 708 1014 l 708 0 l 125 0 m 194 151 l 611 944 l 194 944 l 194 151 m 222 69 l 639 69 l 639 863 l 222 69 z "},"":{"ha":833,"x_min":125,"x_max":708,"o":"m 125 0 l 125 1014 l 708 1014 l 708 0 l 125 0 m 194 151 l 611 944 l 194 944 l 194 151 m 222 69 l 639 69 l 639 863 l 222 69 z "},"":{"ha":833,"x_min":125,"x_max":708,"o":"m 125 0 l 125 1014 l 708 1014 l 708 0 l 125 0 m 194 151 l 611 944 l 194 944 l 194 151 m 222 69 l 639 69 l 639 863 l 222 69 z "},"":{"ha":833,"x_min":125,"x_max":708,"o":"m 125 0 l 125 1014 l 708 1014 l 708 0 l 125 0 m 194 151 l 611 944 l 194 944 l 194 151 m 222 69 l 639 69 l 639 863 l 222 69 z "},"":{"ha":833,"x_min":125,"x_max":708,"o":"m 125 0 l 125 1014 l 708 1014 l 708 0 l 125 0 m 194 151 l 611 944 l 194 944 l 194 151 m 222 69 l 639 69 l 639 863 l 222 69 z "},"｜":{"ha":833,"x_min":125,"x_max":708,"o":"m 125 0 l 125 1014 l 708 1014 l 708 0 l 125 0 m 194 151 l 611 944 l 194 944 l 194 151 m 222 69 l 639 69 l 639 863 l 222 69 z "},"\r":{"ha":833,"x_min":0,"x_max":0,"o":""}," ":{"ha":833,"x_min":0,"x_max":0,"o":""},"!":{"ha":833,"x_min":300,"x_max":533,"o":"m 342 315 l 322 1014 l 511 1014 l 492 315 l 342 315 m 396 -7 q 326 19 353 -7 q 300 85 300 44 q 326 151 300 125 q 396 176 353 176 l 438 176 q 508 151 482 176 q 533 85 533 125 q 506 19 533 44 q 436 -7 479 -7 l 396 -7 z "},"\"":{"ha":833,"x_min":160,"x_max":674,"o":"m 172 597 l 160 1014 l 346 1014 l 335 597 l 172 597 m 500 597 l 488 1014 l 674 1014 l 663 597 l 500 597 z "},"#":{"ha":833,"x_min":49,"x_max":785,"o":"m 107 0 l 154 264 l 49 264 l 49 382 l 174 382 l 217 632 l 97 632 l 97 750 l 238 750 l 285 1014 l 407 1014 l 360 750 l 557 750 l 604 1014 l 726 1014 l 679 750 l 785 750 l 785 632 l 658 632 l 615 382 l 736 382 l 736 264 l 594 264 l 549 0 l 426 0 l 474 264 l 275 264 l 229 0 l 107 0 m 296 382 l 493 382 l 536 632 l 339 632 l 296 382 z "},"$":{"ha":833,"x_min":79,"x_max":754,"o":"m 374 -194 l 374 -11 q 159 75 238 0 q 79 272 81 150 l 253 272 q 285 187 253 221 q 374 142 317 153 l 374 436 l 349 443 q 165 553 229 474 q 100 744 100 632 q 174 938 100 863 q 374 1025 247 1014 l 374 1208 l 460 1208 l 460 1026 q 663 941 589 1015 q 739 749 738 867 l 565 749 q 460 872 565 851 l 460 592 l 506 579 q 690 470 626 549 q 754 276 754 392 q 674 77 754 156 q 460 -12 594 -1 l 460 -194 l 374 -194 m 274 754 q 299 669 274 706 q 374 617 325 633 l 374 872 q 274 754 274 853 m 460 140 q 549 183 517 149 q 581 269 581 217 q 549 358 581 321 q 460 408 517 396 l 460 140 z "},"%":{"ha":833,"x_min":0,"x_max":833,"o":"m 210 556 q 61 606 115 556 q 8 743 7 657 l 8 833 q 62 970 7 919 q 210 1021 117 1021 q 356 970 301 1021 q 413 833 411 919 l 413 743 q 358 606 413 657 q 210 556 303 556 m 0 0 l 708 1014 l 833 1014 l 125 0 l 0 0 m 210 663 q 267 684 246 663 q 289 743 289 706 l 289 833 q 268 892 289 871 q 211 914 247 914 q 153 892 175 914 q 132 833 132 871 l 132 743 q 153 684 132 706 q 210 663 174 663 m 622 -7 q 476 44 531 -7 q 421 181 421 94 l 421 271 q 475 408 421 357 q 622 458 529 458 q 770 408 715 458 q 825 271 825 357 l 825 181 q 770 44 825 94 q 622 -7 715 -7 m 622 101 q 680 123 658 101 q 701 181 701 144 l 701 271 q 680 330 701 308 q 622 351 658 351 q 566 330 588 351 q 544 271 544 308 l 544 181 q 565 123 543 144 q 622 101 586 101 z "},"&":{"ha":833,"x_min":24,"x_max":867,"o":"m 310 -14 q 101 59 178 -14 q 24 254 24 132 l 24 346 q 79 519 24 453 q 229 597 135 586 l 199 639 q 152 722 168 681 q 136 800 136 763 q 169 918 136 867 q 259 999 201 969 q 392 1028 317 1028 q 533 994 472 1028 q 627 898 593 960 q 661 756 661 836 l 501 756 q 471 851 501 815 q 392 888 440 888 q 324 861 350 888 q 297 793 297 835 q 306 751 297 774 q 328 711 314 729 l 583 374 l 689 507 l 867 507 l 669 257 l 863 0 l 681 0 l 576 139 l 550 106 q 446 18 510 50 q 310 -14 382 -14 m 315 131 q 390 150 357 131 q 449 206 422 169 l 488 254 l 325 469 l 306 469 q 220 436 251 469 q 189 346 189 403 l 189 254 q 223 164 189 197 q 315 131 257 131 z "},"'":{"ha":833,"x_min":324,"x_max":510,"o":"m 336 597 l 324 1014 l 510 1014 l 499 597 l 336 597 z "},"(":{"ha":833,"x_min":232,"x_max":674,"o":"m 674 -167 q 347 24 463 -118 q 232 376 232 167 l 232 625 q 347 975 232 833 q 674 1167 463 1117 l 674 994 q 478 866 550 965 q 407 625 407 767 l 407 376 q 478 135 407 235 q 674 7 550 36 l 674 -167 z "},")":{"ha":833,"x_min":160,"x_max":601,"o":"m 160 -167 l 160 7 q 355 135 283 36 q 426 376 426 235 l 426 625 q 355 866 426 767 q 160 994 283 965 l 160 1167 q 486 975 371 1117 q 601 625 601 833 l 601 376 q 486 24 601 167 q 160 -167 371 -118 z "},"*":{"ha":833,"x_min":44,"x_max":789,"o":"m 254 136 l 139 218 l 236 356 q 280 409 256 383 q 332 458 304 435 q 201 486 258 465 l 44 544 l 93 676 l 250 619 q 365 560 306 599 q 351 624 357 592 q 346 693 346 657 l 346 861 l 488 861 l 488 693 q 482 624 488 657 q 467 560 476 592 q 583 619 528 599 l 740 676 l 789 544 l 632 486 q 501 458 575 465 q 553 409 529 435 q 597 356 578 383 l 694 218 l 579 136 l 481 274 q 445 333 461 301 q 417 397 429 364 q 388 333 404 365 q 353 274 372 301 l 254 136 z "},"+":{"ha":833,"x_min":82,"x_max":751,"o":"m 331 128 l 331 378 l 82 378 l 82 539 l 331 539 l 331 789 l 503 789 l 503 539 l 751 539 l 751 378 l 503 378 l 503 128 l 331 128 z "},",":{"ha":833,"x_min":264,"x_max":536,"o":"m 264 -222 l 338 203 l 536 203 l 431 -222 l 264 -222 z "},"-":{"ha":833,"x_min":194,"x_max":639,"o":"m 194 378 l 194 539 l 639 539 l 639 378 l 194 378 z "},".":{"ha":833,"x_min":288,"x_max":546,"o":"m 417 -14 q 323 22 358 -14 q 288 114 288 57 q 323 207 288 171 q 417 243 358 243 q 510 207 475 243 q 546 114 546 171 q 510 22 546 57 q 417 -14 475 -14 z "},"/":{"ha":833,"x_min":83,"x_max":750,"o":"m 83 -153 l 569 1153 l 750 1153 l 264 -153 l 83 -153 z "},":":{"ha":833,"x_min":288,"x_max":546,"o":"m 417 546 q 322 578 357 546 q 288 663 288 610 q 322 746 288 714 q 417 778 357 778 q 511 746 476 778 q 546 663 546 714 q 511 578 546 610 q 417 546 476 546 m 417 -14 q 322 18 357 -14 q 288 101 288 50 q 322 186 288 154 q 417 218 357 218 q 511 186 476 218 q 546 101 546 154 q 511 18 546 50 q 417 -14 476 -14 z "},";":{"ha":833,"x_min":257,"x_max":547,"o":"m 403 544 q 319 578 351 544 q 286 661 286 611 q 319 744 286 711 q 403 778 353 778 l 431 778 q 514 744 481 778 q 547 661 547 711 q 515 578 547 611 q 431 544 482 544 l 403 544 m 257 -222 l 331 203 l 529 203 l 424 -222 l 257 -222 z "},"<":{"ha":833,"x_min":106,"x_max":728,"o":"m 728 78 l 106 371 l 106 544 l 728 838 l 728 678 l 325 492 q 270 470 297 479 q 228 458 243 461 q 271 447 243 456 q 325 426 299 439 l 728 240 l 728 78 z "},"=":{"ha":833,"x_min":114,"x_max":719,"o":"m 114 549 l 114 708 l 719 708 l 719 549 l 114 549 m 114 208 l 114 368 l 719 368 l 719 208 l 114 208 z "},">":{"ha":833,"x_min":106,"x_max":728,"o":"m 106 78 l 106 238 l 508 424 q 563 444 536 436 q 606 457 590 453 q 563 468 590 460 q 508 488 535 476 l 106 675 l 106 838 l 728 544 l 728 371 l 106 78 z "},"?":{"ha":833,"x_min":160,"x_max":694,"o":"m 261 315 l 258 579 l 368 579 q 479 617 438 579 q 521 715 521 654 q 479 815 521 778 q 367 851 438 851 l 160 851 l 160 1014 l 358 1014 q 536 977 461 1014 q 653 874 611 940 q 694 715 694 807 q 659 566 694 631 q 561 465 624 501 q 415 426 499 428 l 415 315 l 261 315 m 318 -7 q 249 19 275 -7 q 222 85 222 44 q 249 151 222 125 q 318 176 275 176 l 360 176 q 428 151 403 176 q 454 85 454 125 q 428 19 454 44 q 358 -7 401 -7 l 318 -7 z "},"@":{"ha":833,"x_min":46,"x_max":794,"o":"m 451 -250 q 235 -201 326 -250 q 95 -61 144 -151 q 46 154 46 29 l 46 625 q 93 840 46 750 q 228 979 140 931 q 438 1028 315 1028 q 628 985 549 1028 q 751 867 708 943 q 794 692 794 792 l 794 317 q 730 141 794 206 q 556 76 665 76 q 384 140 447 76 q 321 310 321 203 l 321 458 q 369 622 321 563 q 503 682 418 682 q 597 658 560 682 q 647 593 635 635 l 650 593 l 650 692 q 594 848 650 793 q 432 903 539 903 q 254 830 318 903 q 190 625 190 757 l 190 154 q 259 -47 190 25 q 451 -118 328 -118 l 604 -118 l 604 -250 l 451 -250 m 556 192 q 626 223 601 192 q 650 310 650 254 l 650 458 q 626 546 650 515 q 556 576 601 576 q 485 545 510 576 q 461 458 461 514 l 461 310 q 485 223 461 254 q 556 192 510 192 z "},"A":{"ha":833,"x_min":49,"x_max":785,"o":"m 49 0 l 304 1014 l 528 1014 l 785 0 l 607 0 l 551 246 l 282 246 l 226 0 l 49 0 m 314 388 l 519 388 l 458 660 q 432 783 443 728 q 417 863 421 838 q 401 783 413 838 q 375 661 390 728 l 314 388 z "},"B":{"ha":833,"x_min":107,"x_max":761,"o":"m 107 0 l 107 1014 l 418 1014 q 651 943 564 1014 q 738 753 738 872 q 690 610 738 669 q 565 538 642 550 l 565 535 q 667 494 622 528 q 736 406 711 460 q 761 289 761 353 q 721 136 761 201 q 607 35 681 71 q 433 0 533 0 l 107 0 m 276 596 l 415 596 q 524 633 483 596 q 564 733 564 669 q 524 833 564 796 q 415 869 485 869 l 276 869 l 276 596 m 276 144 l 424 144 q 544 185 500 144 q 588 297 588 226 q 544 412 588 368 q 424 456 500 456 l 276 456 l 276 144 z "},"C":{"ha":833,"x_min":106,"x_max":750,"o":"m 428 -14 q 257 23 329 -14 q 145 127 185 60 q 106 286 106 194 l 106 728 q 145 887 106 819 q 257 991 185 954 q 428 1028 329 1028 q 597 991 525 1028 q 710 887 669 954 q 750 728 750 819 l 575 728 q 537 837 575 799 q 428 875 499 875 q 318 837 357 875 q 279 728 279 799 l 279 286 q 318 177 279 215 q 428 139 357 139 q 537 177 499 139 q 575 286 575 215 l 750 286 q 710 127 750 194 q 597 23 669 60 q 428 -14 525 -14 z "},"D":{"ha":833,"x_min":104,"x_max":743,"o":"m 104 0 l 104 1014 l 406 1014 q 584 974 508 1014 q 701 864 660 935 q 743 697 743 793 l 743 318 q 701 151 743 222 q 584 40 660 79 q 406 0 508 0 l 104 0 m 278 156 l 406 156 q 525 199 481 156 q 569 318 569 243 l 569 697 q 525 815 569 771 q 406 858 481 858 l 278 858 l 278 156 z "},"E":{"ha":833,"x_min":122,"x_max":731,"o":"m 122 0 l 122 1014 l 731 1014 l 731 861 l 293 861 l 293 597 l 682 597 l 682 450 l 293 450 l 293 153 l 731 153 l 731 0 l 122 0 z "},"F":{"ha":833,"x_min":111,"x_max":742,"o":"m 111 0 l 111 1014 l 742 1014 l 742 853 l 282 853 l 282 582 l 706 582 l 706 421 l 285 421 l 285 0 l 111 0 z "},"G":{"ha":833,"x_min":100,"x_max":744,"o":"m 422 -14 q 251 23 324 -14 q 140 127 179 60 q 100 286 100 194 l 100 728 q 140 887 100 819 q 251 991 179 954 q 422 1028 324 1028 q 592 991 519 1028 q 704 887 664 954 q 744 728 744 819 l 569 728 q 531 837 569 799 q 422 875 493 875 q 313 838 351 875 q 274 729 274 800 l 274 286 q 313 176 274 215 q 422 138 351 138 q 531 176 493 138 q 569 286 569 215 l 569 399 l 397 399 l 397 549 l 744 549 l 744 286 q 704 127 744 194 q 592 23 664 60 q 422 -14 519 -14 z "},"H":{"ha":833,"x_min":107,"x_max":726,"o":"m 107 0 l 107 1014 l 281 1014 l 281 603 l 553 603 l 553 1014 l 726 1014 l 726 0 l 553 0 l 553 446 l 281 446 l 281 0 l 107 0 z "},"I":{"ha":833,"x_min":125,"x_max":708,"o":"m 125 0 l 125 157 l 329 157 l 329 857 l 125 857 l 125 1014 l 708 1014 l 708 857 l 504 857 l 504 157 l 708 157 l 708 0 l 125 0 z "},"J":{"ha":833,"x_min":42,"x_max":708,"o":"m 375 -14 q 131 71 221 -14 q 42 300 42 156 l 215 300 q 258 181 215 225 q 375 138 300 138 q 492 181 449 138 q 535 299 535 224 l 535 1014 l 708 1014 l 708 299 q 619 70 708 154 q 375 -14 529 -14 z "},"K":{"ha":833,"x_min":106,"x_max":790,"o":"m 106 0 l 106 1014 l 279 1014 l 279 600 l 399 600 l 592 1014 l 779 1014 l 551 531 l 790 0 l 597 0 l 397 449 l 279 449 l 279 0 l 106 0 z "},"L":{"ha":833,"x_min":168,"x_max":772,"o":"m 168 0 l 168 1014 l 342 1014 l 342 157 l 772 157 l 772 0 l 168 0 z "},"M":{"ha":833,"x_min":75,"x_max":758,"o":"m 75 0 l 75 1014 l 301 1014 l 415 578 l 531 1014 l 758 1014 l 758 0 l 596 0 l 596 426 q 601 608 596 514 q 613 790 606 701 q 628 950 619 878 l 485 440 l 342 440 l 204 938 q 227 709 217 842 q 238 426 238 576 l 238 0 l 75 0 z "},"N":{"ha":833,"x_min":100,"x_max":733,"o":"m 100 0 l 100 1014 l 313 1014 l 594 194 q 586 299 590 239 q 578 422 582 360 q 575 533 575 485 l 575 1014 l 733 1014 l 733 0 l 521 0 l 242 819 q 249 722 244 779 q 256 606 253 665 q 258 496 258 546 l 258 0 l 100 0 z "},"O":{"ha":833,"x_min":100,"x_max":733,"o":"m 417 -14 q 185 69 271 -14 q 100 300 100 153 l 100 714 q 185 944 100 861 q 417 1028 271 1028 q 648 944 563 1028 q 733 715 733 861 l 733 300 q 648 69 733 153 q 417 -14 563 -14 m 417 139 q 524 177 488 139 q 560 286 560 215 l 560 728 q 524 837 560 799 q 417 875 488 875 q 310 837 346 875 q 274 728 274 799 l 274 286 q 310 177 274 215 q 417 139 346 139 z "},"P":{"ha":833,"x_min":107,"x_max":781,"o":"m 107 0 l 107 1014 l 444 1014 q 622 975 546 1014 q 739 866 697 936 q 781 701 781 796 q 739 537 781 607 q 622 428 697 467 q 444 389 546 389 l 281 389 l 281 0 l 107 0 m 281 542 l 444 542 q 561 586 518 542 q 604 701 604 631 q 561 817 604 772 q 444 861 518 861 l 281 861 l 281 542 z "},"Q":{"ha":833,"x_min":94,"x_max":756,"o":"m 568 -250 l 425 -14 q 417 -14 421 -14 q 247 24 319 -14 q 135 129 175 61 q 94 289 94 197 l 94 725 q 134 885 94 817 q 247 990 174 953 q 417 1028 319 1028 q 586 990 514 1028 q 699 885 658 953 q 739 725 739 817 l 739 289 q 699 128 739 197 q 588 24 660 60 l 756 -250 l 568 -250 m 417 139 q 527 178 489 139 q 565 289 565 218 l 565 725 q 526 836 565 796 q 417 876 486 876 q 308 836 347 876 q 268 725 268 796 l 268 289 q 306 178 268 218 q 417 139 344 139 z "},"R":{"ha":833,"x_min":107,"x_max":774,"o":"m 107 0 l 107 1014 l 426 1014 q 602 976 528 1014 q 718 872 676 939 q 760 713 760 804 q 710 535 760 611 q 575 428 660 460 l 774 0 l 583 0 l 406 403 l 279 403 l 279 0 l 107 0 m 279 556 l 426 556 q 542 596 500 556 q 583 707 583 636 q 541 819 583 778 q 426 861 499 861 l 279 861 l 279 556 z "},"S":{"ha":833,"x_min":79,"x_max":754,"o":"m 421 -14 q 241 22 318 -14 q 122 126 164 58 q 79 286 79 193 l 250 286 q 297 178 250 218 q 421 138 343 138 q 540 177 496 138 q 583 283 583 217 q 555 372 583 333 q 474 424 526 410 l 338 458 q 164 563 228 486 q 100 744 100 639 q 185 951 100 874 q 411 1028 269 1028 q 578 993 507 1028 q 689 895 650 958 q 728 747 728 832 l 558 747 q 518 842 558 806 q 411 878 478 878 q 308 842 346 878 q 269 750 269 807 q 297 672 269 703 q 372 628 324 642 l 513 593 q 690 482 625 565 q 754 283 754 399 q 713 126 754 193 q 597 23 672 60 q 421 -14 522 -14 z "},"T":{"ha":833,"x_min":64,"x_max":769,"o":"m 329 0 l 329 857 l 64 857 l 64 1014 l 769 1014 l 769 857 l 504 857 l 504 0 l 329 0 z "},"U":{"ha":833,"x_min":100,"x_max":733,"o":"m 417 -14 q 184 67 268 -14 q 100 289 100 149 l 100 1014 l 275 1014 l 275 290 q 311 178 275 218 q 417 138 347 138 q 522 178 485 138 q 558 290 558 218 l 558 1014 l 733 1014 l 733 289 q 650 67 733 149 q 417 -14 567 -14 z "},"V":{"ha":833,"x_min":49,"x_max":785,"o":"m 304 0 l 49 1014 l 228 1014 l 382 353 q 405 248 394 304 q 421 158 415 192 q 437 248 426 192 q 460 354 447 304 l 608 1014 l 785 1014 l 529 0 l 304 0 z "},"W":{"ha":833,"x_min":19,"x_max":814,"o":"m 125 0 l 19 1014 l 164 1014 l 228 306 q 234 213 231 269 q 238 118 238 157 q 247 213 242 157 q 256 306 251 269 l 344 1014 l 493 1014 l 576 306 q 587 213 581 269 q 597 118 593 157 q 602 213 599 157 q 608 306 606 269 l 671 1014 l 814 1014 l 703 0 l 511 0 l 433 711 q 425 809 429 751 q 418 904 421 867 q 411 809 415 867 q 403 711 407 751 l 318 0 l 125 0 z "},"X":{"ha":833,"x_min":39,"x_max":794,"o":"m 39 0 l 319 519 l 56 1014 l 250 1014 l 378 760 q 403 706 392 732 q 419 667 414 681 q 435 706 424 681 q 460 760 446 732 l 589 1014 l 778 1014 l 514 524 l 794 0 l 600 0 l 457 281 q 431 334 443 307 q 414 376 419 361 q 397 335 408 361 q 372 281 386 308 l 228 0 l 39 0 z "},"Y":{"ha":833,"x_min":32,"x_max":801,"o":"m 329 0 l 329 368 l 32 1014 l 215 1014 l 372 663 q 403 581 390 621 q 419 518 415 540 q 437 581 425 540 q 467 663 449 621 l 621 1014 l 801 1014 l 504 368 l 504 0 l 329 0 z "},"Z":{"ha":833,"x_min":110,"x_max":724,"o":"m 110 0 l 110 161 l 517 857 l 119 857 l 119 1014 l 708 1014 l 708 853 l 300 157 l 724 157 l 724 0 l 110 0 z "},"[":{"ha":833,"x_min":257,"x_max":646,"o":"m 257 -153 l 257 1153 l 646 1153 l 646 993 l 431 993 l 431 7 l 646 7 l 646 -153 l 257 -153 z "},"\\":{"ha":833,"x_min":83,"x_max":749,"o":"m 568 -153 l 83 1153 l 264 1153 l 749 -153 l 568 -153 z "},"]":{"ha":833,"x_min":188,"x_max":576,"o":"m 188 -153 l 188 7 l 403 7 l 403 993 l 188 993 l 188 1153 l 576 1153 l 576 -153 l 188 -153 z "},"^":{"ha":833,"x_min":94,"x_max":739,"o":"m 94 472 l 335 1014 l 501 1014 l 739 472 l 576 472 l 449 792 q 430 848 438 821 q 419 889 422 875 q 407 848 415 875 q 388 792 399 821 l 256 472 l 94 472 z "},"_":{"ha":833,"x_min":83,"x_max":750,"o":"m 83 -192 l 83 -35 l 750 -35 l 750 -192 l 83 -192 z "},"`":{"ha":833,"x_min":199,"x_max":539,"o":"m 360 896 l 199 1090 l 390 1090 l 539 896 l 360 896 z "},"a":{"ha":833,"x_min":81,"x_max":726,"o":"m 332 -14 q 148 52 215 -14 q 81 225 81 118 q 157 402 81 336 q 367 468 233 468 l 553 468 l 553 522 q 418 638 553 638 q 321 614 357 638 q 281 547 285 590 l 114 547 q 201 714 119 650 q 419 778 282 778 q 646 710 565 778 q 726 518 726 642 l 726 0 l 557 0 l 557 143 q 488 28 547 69 q 332 -14 428 -14 m 388 128 q 508 165 464 128 q 553 265 553 203 l 553 356 l 375 356 q 285 324 318 356 q 251 242 251 292 q 287 159 251 190 q 388 128 322 128 z "},"b":{"ha":833,"x_min":107,"x_max":735,"o":"m 486 -14 q 351 26 406 -14 q 276 139 297 67 l 276 0 l 107 0 l 107 1014 l 281 1014 l 281 800 l 275 625 q 352 738 297 697 q 486 778 407 778 q 667 699 599 778 q 735 485 735 619 l 735 278 q 666 65 735 144 q 486 -14 597 -14 m 421 136 q 524 172 488 136 q 561 283 561 208 l 561 481 q 524 592 561 556 q 421 628 488 628 q 317 588 354 628 q 281 474 281 547 l 281 290 q 317 176 281 217 q 421 136 354 136 z "},"c":{"ha":833,"x_min":104,"x_max":750,"o":"m 429 -14 q 258 23 331 -14 q 144 127 185 60 q 104 286 104 194 l 104 478 q 144 637 104 569 q 258 741 185 704 q 429 778 331 778 q 659 703 572 778 q 750 501 746 629 l 579 501 q 534 594 575 561 q 429 626 493 626 q 318 588 358 626 q 278 479 278 550 l 278 286 q 318 176 278 215 q 429 138 358 138 q 535 170 494 138 q 579 263 575 203 l 750 263 q 659 60 746 135 q 429 -14 572 -14 z "},"d":{"ha":833,"x_min":99,"x_max":726,"o":"m 347 -14 q 167 65 236 -14 q 99 278 99 144 l 99 485 q 167 699 99 619 q 347 778 235 778 q 481 738 426 778 q 558 625 536 697 l 553 800 l 553 1014 l 726 1014 l 726 0 l 557 0 l 557 139 q 482 26 536 67 q 347 -14 428 -14 m 413 136 q 516 176 479 136 q 553 290 553 217 l 553 474 q 516 588 553 547 q 413 628 479 628 q 309 592 346 628 q 272 481 272 556 l 272 283 q 309 172 272 208 q 413 136 346 136 z "},"e":{"ha":833,"x_min":97,"x_max":736,"o":"m 418 -14 q 249 24 321 -14 q 137 130 176 61 q 97 292 97 199 l 97 472 q 137 634 97 565 q 249 740 176 703 q 418 778 321 778 q 585 740 514 778 q 697 635 657 703 q 736 478 736 568 l 736 339 l 264 339 l 264 286 q 304 169 264 208 q 418 129 344 129 q 510 148 472 129 q 556 203 549 167 l 728 203 q 625 45 710 104 q 418 -14 540 -14 m 264 478 l 264 451 l 569 453 l 569 479 q 531 601 569 558 q 418 644 492 644 q 303 601 342 644 q 264 478 264 557 z "},"f":{"ha":833,"x_min":68,"x_max":744,"o":"m 278 0 l 278 503 l 68 503 l 68 660 l 278 660 l 278 794 q 344 954 278 894 q 521 1014 411 1014 l 744 1014 l 744 861 l 525 861 q 472 842 492 861 q 451 792 451 824 l 451 660 l 744 660 l 744 503 l 451 503 l 451 0 l 278 0 z "},"g":{"ha":833,"x_min":100,"x_max":726,"o":"m 211 -250 l 211 -106 l 426 -106 q 521 -73 488 -106 q 554 15 554 -40 l 554 61 l 557 181 q 481 81 533 117 q 354 46 429 46 q 169 124 238 46 q 100 338 100 203 l 100 486 q 169 699 100 619 q 354 778 238 778 q 481 742 429 778 q 557 642 533 707 l 557 764 l 726 764 l 726 11 q 647 -180 726 -110 q 429 -250 567 -250 l 211 -250 m 413 194 q 516 234 479 194 q 553 344 553 274 l 553 478 q 516 588 553 549 q 413 628 479 628 q 310 590 346 628 q 274 483 274 551 l 274 339 q 310 233 274 271 q 413 194 346 194 z "},"h":{"ha":833,"x_min":107,"x_max":729,"o":"m 107 0 l 107 1014 l 281 1014 l 281 764 l 276 622 q 344 736 290 694 q 482 778 399 778 q 662 703 594 778 q 729 501 729 628 l 729 0 l 556 0 l 556 481 q 519 590 556 551 q 419 628 482 628 q 317 589 354 628 q 281 478 281 550 l 281 0 l 107 0 z "},"i":{"ha":833,"x_min":106,"x_max":775,"o":"m 106 0 l 106 157 l 367 157 l 367 607 l 133 607 l 133 764 l 540 764 l 540 157 l 775 157 l 775 0 l 106 0 m 442 892 q 358 919 389 892 q 328 992 328 946 q 358 1065 328 1038 q 442 1092 389 1092 q 525 1065 494 1092 q 556 992 556 1038 q 525 919 556 946 q 442 892 494 892 z "},"j":{"ha":833,"x_min":106,"x_max":650,"o":"m 113 -250 l 113 -93 l 314 -93 q 419 -53 381 -93 q 458 54 458 -14 l 458 607 l 106 607 l 106 764 l 632 764 l 632 50 q 549 -169 632 -89 q 324 -250 465 -250 l 113 -250 m 536 892 q 453 919 483 892 q 422 992 422 946 q 453 1065 422 1038 q 536 1092 483 1092 q 619 1065 589 1092 q 650 992 650 1038 q 619 919 650 946 q 536 892 589 892 z "},"k":{"ha":833,"x_min":114,"x_max":793,"o":"m 114 0 l 114 1014 l 288 1014 l 288 464 l 410 464 l 592 764 l 785 764 l 558 394 l 793 0 l 596 0 l 410 317 l 288 317 l 288 0 l 114 0 z "},"l":{"ha":833,"x_min":38,"x_max":776,"o":"m 540 0 q 358 68 426 0 q 289 247 289 136 l 289 857 l 38 857 l 38 1014 l 463 1014 l 463 251 q 487 183 463 208 q 553 157 511 157 l 776 157 l 776 0 l 540 0 z "},"m":{"ha":833,"x_min":65,"x_max":768,"o":"m 65 0 l 65 764 l 210 764 l 210 653 l 214 653 q 253 743 218 708 q 340 778 288 778 q 428 745 392 778 q 476 657 464 713 q 517 745 482 713 q 607 778 553 778 q 722 723 676 778 q 768 582 768 668 l 768 0 l 615 0 l 615 569 q 598 628 615 607 q 549 650 581 650 q 486 569 486 650 l 486 0 l 347 0 l 347 569 q 331 628 347 607 q 285 650 315 650 q 218 569 218 650 l 218 0 l 65 0 z "},"n":{"ha":833,"x_min":107,"x_max":729,"o":"m 107 0 l 107 764 l 276 764 l 276 621 q 344 735 290 693 q 482 778 399 778 q 662 703 594 778 q 729 501 729 628 l 729 0 l 556 0 l 556 481 q 519 590 556 551 q 419 628 482 628 q 317 589 354 628 q 281 478 281 550 l 281 0 l 107 0 z "},"o":{"ha":833,"x_min":97,"x_max":736,"o":"m 417 -12 q 183 70 269 -12 q 97 293 97 153 l 97 471 q 183 694 97 613 q 417 776 269 776 q 650 694 564 776 q 736 471 736 613 l 736 293 q 650 70 736 153 q 417 -12 564 -12 m 417 139 q 524 177 486 139 q 563 288 563 215 l 563 476 q 524 587 563 549 q 417 625 486 625 q 309 587 347 625 q 271 476 271 549 l 271 288 q 309 177 271 215 q 417 139 347 139 z "},"p":{"ha":833,"x_min":107,"x_max":735,"o":"m 107 -250 l 107 764 l 276 764 l 276 624 q 351 737 297 696 q 486 778 406 778 q 616 742 560 778 q 703 640 672 706 q 735 486 735 574 l 735 279 q 667 67 735 147 q 486 -14 599 -14 q 351 28 406 -14 q 275 144 296 69 l 281 -36 l 281 -250 l 107 -250 m 421 136 q 524 172 488 136 q 561 283 561 208 l 561 481 q 524 592 561 556 q 421 628 488 628 q 317 588 354 628 q 281 474 281 547 l 281 290 q 317 176 281 217 q 421 136 354 136 z "},"q":{"ha":833,"x_min":99,"x_max":726,"o":"m 553 -250 l 553 -36 l 558 138 l 557 138 q 481 26 535 67 q 347 -14 426 -14 q 167 65 235 -14 q 99 279 99 144 l 99 486 q 167 699 99 619 q 347 778 236 778 q 482 738 428 778 q 557 625 536 697 l 557 764 l 726 764 l 726 -250 l 553 -250 m 413 136 q 516 176 479 136 q 553 290 553 217 l 553 474 q 516 588 553 547 q 413 628 479 628 q 309 592 346 628 q 272 483 272 556 l 272 281 q 309 172 272 208 q 413 136 346 136 z "},"r":{"ha":833,"x_min":135,"x_max":763,"o":"m 135 0 l 135 764 l 304 764 l 304 615 q 373 734 318 690 q 515 778 428 778 q 697 703 632 778 q 763 493 763 628 l 763 421 l 589 421 l 589 485 q 553 591 589 554 q 450 628 517 628 q 344 586 381 628 q 308 468 308 544 l 308 0 l 135 0 z "},"s":{"ha":833,"x_min":90,"x_max":743,"o":"m 385 -12 q 169 49 249 -12 q 90 217 90 111 l 261 217 q 294 149 261 172 q 385 125 326 125 l 446 125 q 542 149 508 125 q 576 217 576 172 q 553 278 576 258 q 481 306 529 299 l 290 331 q 149 401 199 343 q 100 553 100 460 q 172 719 100 661 q 381 776 244 776 l 444 776 q 650 718 572 776 q 731 563 728 660 l 558 563 q 526 620 557 599 q 444 642 496 642 l 381 642 q 296 619 325 642 q 267 557 267 596 q 288 506 267 522 q 351 485 310 489 l 531 460 q 690 385 636 447 q 743 219 743 324 q 667 48 743 108 q 446 -12 592 -12 l 385 -12 z "},"t":{"ha":833,"x_min":49,"x_max":739,"o":"m 493 0 q 323 62 386 0 q 260 229 260 124 l 260 607 l 49 607 l 49 764 l 260 764 l 260 979 l 435 979 l 435 764 l 739 764 l 739 607 l 435 607 l 435 233 q 453 178 435 200 q 506 157 472 157 l 732 157 l 732 0 l 493 0 z "},"u":{"ha":833,"x_min":104,"x_max":729,"o":"m 417 -14 q 188 67 271 -14 q 104 289 104 149 l 104 764 l 278 764 l 278 290 q 314 178 278 218 q 417 138 350 138 q 519 178 482 138 q 556 290 556 218 l 556 764 l 729 764 l 729 289 q 644 67 729 149 q 417 -14 560 -14 z "},"v":{"ha":833,"x_min":50,"x_max":783,"o":"m 307 0 l 50 764 l 232 764 l 379 300 q 403 216 393 258 q 418 143 414 174 q 433 216 424 174 q 454 299 442 258 l 600 764 l 783 764 l 528 0 l 307 0 z "},"w":{"ha":833,"x_min":22,"x_max":811,"o":"m 142 0 l 22 764 l 160 764 l 228 296 q 238 203 233 253 q 244 119 242 153 q 250 203 246 153 q 263 296 254 253 l 346 764 l 490 764 l 571 296 q 584 202 579 253 q 592 118 589 151 q 598 202 594 151 q 608 296 601 253 l 678 764 l 811 764 l 689 0 l 510 0 l 438 471 q 425 560 431 510 q 417 643 419 611 q 408 560 415 611 q 396 471 401 510 l 321 0 l 142 0 z "},"x":{"ha":833,"x_min":50,"x_max":783,"o":"m 50 0 l 317 394 l 68 764 l 264 764 l 382 576 q 403 539 393 560 q 417 506 413 518 q 431 539 422 518 q 451 576 440 560 l 569 764 l 767 764 l 518 394 l 783 0 l 586 0 l 454 210 q 433 248 443 226 q 417 282 422 269 q 401 248 411 269 q 381 210 392 226 l 247 0 l 50 0 z "},"y":{"ha":833,"x_min":50,"x_max":783,"o":"m 229 -250 l 338 42 l 50 764 l 233 764 l 381 374 q 406 298 393 339 q 424 222 418 257 q 440 298 428 257 q 464 374 451 339 l 600 764 l 783 764 l 411 -250 l 229 -250 z "},"z":{"ha":833,"x_min":108,"x_max":725,"o":"m 108 0 l 108 157 l 507 611 l 121 611 l 121 764 l 710 764 l 710 607 l 307 153 l 725 153 l 725 0 l 108 0 z "},"{":{"ha":833,"x_min":96,"x_max":710,"o":"m 614 -154 q 421 -87 492 -154 q 361 93 350 -19 l 382 304 q 363 390 388 361 q 276 419 338 419 l 96 419 l 96 579 l 276 579 q 363 608 338 579 q 382 693 388 638 l 361 911 q 421 1087 350 1021 q 614 1153 492 1153 l 710 1153 l 710 993 l 639 993 q 560 967 588 993 q 535 894 532 942 l 556 678 q 519 560 563 607 q 389 503 475 514 q 519 442 475 490 q 556 321 563 393 l 535 104 q 559 33 531 58 q 639 7 588 7 l 710 7 l 710 -154 l 614 -154 z "},"|":{"ha":833,"x_min":329,"x_max":504,"o":"m 329 -153 l 329 1153 l 504 1153 l 504 -153 l 329 -153 z "},"}":{"ha":833,"x_min":124,"x_max":738,"o":"m 124 -154 l 124 7 l 194 7 q 275 33 246 7 q 299 104 304 58 l 271 321 q 304 441 263 392 q 421 503 346 490 q 304 561 346 515 q 271 678 263 607 l 299 894 q 275 967 304 942 q 194 993 246 993 l 124 993 l 124 1153 l 219 1153 q 360 1123 300 1153 q 451 1039 421 1093 q 472 911 481 985 l 444 693 q 551 579 431 579 l 738 579 l 738 419 l 551 419 q 444 304 431 419 l 472 93 q 451 -37 481 18 q 361 -124 421 -93 q 219 -154 301 -154 l 124 -154 z "},"~":{"ha":833,"x_min":72,"x_max":761,"o":"m 72 354 l 72 464 q 128 601 72 549 q 274 653 183 653 q 368 633 331 653 q 430 586 406 614 q 474 530 454 558 q 513 483 493 501 q 561 464 532 464 q 614 524 614 464 l 614 625 l 761 625 l 761 515 q 706 378 761 431 q 560 326 651 326 q 465 346 503 326 q 403 393 428 365 q 360 449 379 421 q 321 497 340 478 q 272 515 301 515 q 219 456 219 515 l 219 354 l 72 354 z "}," ":{"ha":833,"x_min":0,"x_max":0,"o":""},"¡":{"ha":833,"x_min":300,"x_max":533,"o":"m 396 588 q 326 613 353 588 q 300 679 300 639 q 326 745 300 719 q 396 771 353 771 l 436 771 q 506 745 479 771 q 533 679 533 719 q 508 613 533 639 q 438 588 482 588 l 396 588 m 322 -250 l 342 449 l 492 449 l 511 -250 l 322 -250 z "},"¢":{"ha":833,"x_min":104,"x_max":750,"o":"m 381 -194 l 381 -11 q 179 81 254 1 q 104 286 104 160 l 104 478 q 179 683 104 604 q 381 775 254 763 l 381 958 l 468 958 l 468 776 q 670 693 594 765 q 750 501 746 621 l 579 501 q 547 583 576 551 q 468 622 517 614 l 468 142 q 547 181 517 150 q 579 263 576 213 l 750 263 q 670 71 746 143 q 468 -12 594 -1 l 468 -194 l 381 -194 m 278 286 q 305 191 278 228 q 381 143 332 154 l 381 621 q 305 573 332 610 q 278 479 278 536 l 278 286 z "},"£":{"ha":833,"x_min":93,"x_max":743,"o":"m 104 0 l 104 188 q 172 236 138 207 q 231 300 207 265 q 256 369 256 335 q 253 407 256 389 l 96 407 l 96 551 l 189 551 q 144 610 167 581 q 108 674 122 639 q 93 758 93 710 q 133 897 93 836 q 245 993 172 958 q 417 1028 318 1028 q 646 951 560 1028 q 738 747 732 875 l 561 747 q 519 840 558 803 q 413 876 479 876 q 306 841 344 876 q 267 749 267 806 q 285 677 267 707 q 327 619 303 647 q 374 551 351 590 l 604 551 l 604 407 l 414 407 q 414 382 414 396 q 385 276 414 321 q 313 201 356 231 q 229 160 269 172 l 743 160 l 743 0 l 104 0 z "},"¤":{"ha":833,"x_min":56,"x_max":781,"o":"m 686 154 l 564 275 q 418 238 500 238 q 271 275 335 238 l 151 156 l 58 249 l 175 365 q 132 518 132 433 q 175 668 132 603 l 56 789 l 149 883 l 271 761 q 418 799 338 799 q 569 758 503 799 l 686 875 l 778 783 l 661 667 q 701 518 701 599 q 690 438 701 476 q 660 368 679 400 l 781 247 l 686 154 m 418 354 q 532 401 486 354 q 578 518 578 449 q 532 635 578 588 q 418 682 486 682 q 302 635 349 682 q 256 518 256 588 q 302 401 256 449 q 418 354 349 354 z "},"¥":{"ha":833,"x_min":32,"x_max":801,"o":"m 83 150 l 83 279 l 329 279 l 329 367 l 83 367 l 83 496 l 271 496 l 32 1014 l 215 1014 l 372 663 q 403 581 390 621 q 419 518 415 540 q 437 581 425 540 q 467 663 449 621 l 621 1014 l 801 1014 l 563 496 l 750 496 l 750 367 l 504 367 l 504 279 l 750 279 l 750 150 l 504 150 l 504 0 l 329 0 l 329 150 l 83 150 z "},"¦":{"ha":833,"x_min":329,"x_max":504,"o":"m 329 625 l 329 1153 l 504 1153 l 504 625 l 329 625 m 329 -153 l 329 375 l 504 375 l 504 -153 l 329 -153 z "},"§":{"ha":833,"x_min":81,"x_max":753,"o":"m 389 -215 q 170 -158 251 -215 q 81 1 89 -100 l 257 1 q 299 -56 263 -35 q 389 -78 335 -78 l 443 -78 q 544 -49 507 -78 q 582 25 582 -21 q 458 133 582 110 l 331 158 q 158 243 221 179 q 94 390 94 307 q 141 520 94 472 q 274 576 188 568 l 274 583 q 188 621 228 593 q 122 692 147 649 q 97 793 97 735 q 176 965 97 901 q 392 1028 254 1028 l 444 1028 q 652 973 574 1028 q 742 821 731 918 l 565 821 q 528 871 560 851 q 444 890 496 890 l 392 890 q 299 865 331 890 q 267 796 267 839 q 290 732 267 758 q 361 696 314 706 l 514 665 q 688 576 626 642 q 750 426 750 511 q 701 299 750 347 q 569 244 651 251 l 569 238 q 649 209 606 233 q 722 139 692 185 q 753 24 753 93 q 671 -151 753 -86 q 443 -215 589 -215 l 389 -215 m 446 276 q 543 301 506 264 q 581 407 581 339 q 553 488 581 453 q 479 532 525 522 l 392 549 q 299 523 335 560 q 264 419 264 486 q 290 335 264 371 q 357 293 315 300 l 446 276 z "},"¨":{"ha":833,"x_min":151,"x_max":682,"o":"m 579 892 q 506 919 533 892 q 478 992 478 946 q 506 1065 478 1038 q 579 1092 533 1092 q 654 1065 626 1092 q 682 992 682 1038 q 654 919 682 946 q 579 892 626 892 m 254 892 q 179 919 207 892 q 151 992 151 946 q 179 1065 151 1038 q 254 1092 207 1092 q 328 1065 300 1092 q 356 992 356 1038 q 328 919 356 946 q 254 892 300 892 z "},"©":{"ha":833,"x_min":63,"x_max":771,"o":"m 417 153 q 231 194 311 153 q 107 311 151 236 q 63 486 63 386 l 63 694 q 107 869 63 794 q 231 986 151 944 q 417 1028 311 1028 q 603 986 524 1028 q 726 869 682 944 q 771 694 771 794 l 771 486 q 726 311 771 386 q 603 194 682 236 q 417 153 524 153 m 417 222 q 563 255 500 222 q 660 347 625 288 q 694 486 694 407 l 694 694 q 660 833 694 774 q 563 925 625 892 q 417 958 500 958 q 271 925 333 958 q 174 833 208 892 q 139 694 139 774 l 139 486 q 174 347 139 407 q 271 255 208 288 q 417 222 333 222 m 424 340 q 292 386 342 340 q 242 508 242 432 l 242 672 q 292 794 242 749 q 424 840 342 840 q 554 794 504 840 q 604 672 604 749 l 497 672 q 477 727 497 707 q 424 747 457 747 q 369 727 390 747 q 349 672 349 707 l 349 508 q 369 453 349 474 q 424 433 390 433 q 477 453 457 433 q 497 508 497 474 l 604 508 q 554 386 604 432 q 424 340 504 340 z "},"ª":{"ha":833,"x_min":235,"x_max":592,"o":"m 372 625 q 273 658 311 625 q 235 746 235 692 q 276 833 235 800 q 389 865 318 865 l 497 865 l 497 903 q 477 942 497 928 q 424 956 457 956 q 373 944 393 956 q 350 913 353 932 l 256 913 q 310 997 265 965 q 424 1028 356 1028 q 546 994 500 1028 q 592 903 592 960 l 592 632 l 501 632 l 501 708 l 497 708 q 449 647 482 669 q 372 625 417 625 m 399 692 q 470 713 443 692 q 497 771 497 735 l 497 801 l 389 801 q 345 788 361 801 q 329 747 329 774 q 349 707 329 722 q 399 692 368 692 z "},"«":{"ha":833,"x_min":29,"x_max":800,"o":"m 613 56 l 369 389 l 614 722 l 800 722 l 550 392 l 800 56 l 613 56 m 272 56 l 29 389 l 274 722 l 461 722 l 211 392 l 461 56 l 272 56 z "},"¬":{"ha":833,"x_min":139,"x_max":694,"o":"m 524 229 l 524 414 l 139 414 l 139 574 l 694 574 l 694 229 l 524 229 z "},"­":{"ha":833,"x_min":194,"x_max":639,"o":"m 194 378 l 194 539 l 639 539 l 639 378 l 194 378 z "},"®":{"ha":833,"x_min":63,"x_max":771,"o":"m 417 153 q 231 194 311 153 q 107 311 151 236 q 63 486 63 386 l 63 694 q 107 869 63 794 q 231 986 151 944 q 417 1028 311 1028 q 603 986 524 1028 q 726 869 682 944 q 771 694 771 794 l 771 486 q 726 311 771 386 q 603 194 682 236 q 417 153 524 153 m 139 486 q 174 347 139 407 q 271 255 208 288 q 417 222 333 222 q 563 255 500 222 q 660 347 625 288 q 694 486 694 407 l 694 694 q 660 833 694 774 q 563 925 625 892 q 417 958 500 958 q 271 925 333 958 q 174 833 208 892 q 139 694 139 774 l 139 486 m 256 347 l 256 833 l 422 833 q 547 792 500 833 q 593 683 593 751 q 572 606 593 639 q 513 556 550 572 l 601 347 l 496 347 l 419 538 l 356 538 l 356 347 l 256 347 m 356 619 l 422 619 q 473 638 454 619 q 492 688 492 656 q 473 738 492 719 q 422 756 454 756 l 356 756 l 356 619 z "},"¯":{"ha":833,"x_min":178,"x_max":656,"o":"m 178 918 l 178 1051 l 656 1051 l 656 918 l 178 918 z "},"°":{"ha":833,"x_min":192,"x_max":642,"o":"m 417 593 q 254 653 317 593 q 192 810 192 714 q 254 967 192 907 q 417 1028 317 1028 q 579 967 517 1028 q 642 810 642 907 q 579 653 642 714 q 417 593 517 593 m 417 696 q 494 728 464 696 q 524 810 524 760 q 494 893 524 861 q 417 925 464 925 q 340 893 369 925 q 310 810 310 861 q 340 728 310 760 q 417 696 369 696 z "},"±":{"ha":833,"x_min":86,"x_max":756,"o":"m 93 0 l 93 131 l 335 131 l 335 382 l 86 382 l 86 542 l 335 542 l 335 792 l 507 792 l 507 542 l 756 542 l 756 382 l 507 382 l 507 131 l 740 131 l 740 0 l 93 0 z "},"²":{"ha":833,"x_min":199,"x_max":642,"o":"m 210 531 l 210 656 l 461 854 q 503 902 488 876 q 519 957 519 928 q 492 1026 519 1000 q 419 1053 464 1053 q 348 1026 376 1053 q 319 956 319 999 l 199 956 q 263 1103 200 1046 q 419 1160 325 1160 q 578 1104 517 1160 q 640 958 640 1049 q 609 860 640 907 q 525 774 578 814 l 350 638 l 642 638 l 642 531 l 210 531 z "},"³":{"ha":833,"x_min":183,"x_max":654,"o":"m 419 524 q 249 581 315 524 q 183 729 183 638 l 304 729 q 336 658 304 686 q 419 631 368 631 q 501 660 469 631 q 533 738 533 690 q 501 814 533 785 q 419 843 469 843 l 364 843 l 364 936 l 511 1046 l 214 1046 l 214 1153 l 632 1153 l 632 1040 l 486 926 q 608 863 563 914 q 654 738 654 813 q 589 583 654 642 q 419 524 524 524 z "},"´":{"ha":833,"x_min":297,"x_max":631,"o":"m 297 896 l 444 1090 l 631 1090 l 472 896 l 297 896 z "},"µ":{"ha":833,"x_min":107,"x_max":731,"o":"m 107 -250 l 107 764 l 281 764 l 281 286 q 317 176 281 215 q 418 136 353 136 q 520 176 483 136 q 557 286 557 215 l 557 764 l 731 764 l 731 0 l 558 0 l 563 146 l 560 146 q 517 28 553 71 q 418 -14 482 -14 q 319 28 353 -14 q 279 146 285 71 l 276 146 l 281 -36 l 281 -250 l 107 -250 z "},"¶":{"ha":833,"x_min":78,"x_max":722,"o":"m 342 -250 l 342 431 q 151 496 224 431 q 78 667 78 561 l 78 778 q 151 949 78 885 q 342 1014 224 1014 l 478 1014 l 478 -250 l 342 -250 m 586 -250 l 586 1014 l 722 1014 l 722 -250 l 586 -250 z "},"·":{"ha":833,"x_min":288,"x_max":546,"o":"m 417 354 q 323 390 358 354 q 288 482 288 425 q 323 575 288 539 q 417 611 358 611 q 510 575 475 611 q 546 482 546 539 q 510 390 546 425 q 417 354 475 354 z "},"¸":{"ha":833,"x_min":272,"x_max":594,"o":"m 272 -300 l 272 -211 l 378 -211 q 431 -195 411 -211 q 451 -161 451 -179 q 410 -114 451 -132 q 296 -96 369 -96 l 344 28 l 438 28 l 410 -51 q 492 -70 449 -56 q 565 -111 535 -85 q 594 -178 594 -137 q 544 -263 594 -226 q 411 -300 493 -300 l 272 -300 z "},"¹":{"ha":833,"x_min":203,"x_max":672,"o":"m 203 531 l 203 639 l 399 639 l 399 1049 l 207 928 l 207 1051 l 364 1153 l 519 1153 l 519 639 l 672 639 l 672 531 l 203 531 z "},"º":{"ha":833,"x_min":240,"x_max":593,"o":"m 417 622 q 289 667 338 622 q 240 781 240 711 l 240 867 q 289 981 240 938 q 417 1025 338 1025 q 544 981 496 1025 q 593 867 593 938 l 593 781 q 544 667 593 711 q 417 622 496 622 m 417 701 q 476 724 454 701 q 499 781 499 746 l 499 867 q 476 923 499 901 q 417 944 454 944 q 357 923 379 944 q 335 867 335 901 l 335 781 q 357 724 335 746 q 417 701 379 701 z "},"»":{"ha":833,"x_min":33,"x_max":804,"o":"m 374 56 l 619 389 l 372 722 l 561 722 l 804 389 l 560 56 l 374 56 m 35 56 l 281 389 l 33 722 l 221 722 l 464 389 l 219 56 l 35 56 z "},"¼":{"ha":833,"x_min":-6,"x_max":839,"o":"m -6 0 l 381 561 l 47 561 l 47 651 l 208 651 l 208 940 q 186 913 200 929 q 157 883 172 896 l 72 814 l 72 935 l 174 1013 l 315 1013 l 315 651 l 442 651 l 692 1014 l 839 1014 l 142 0 l -6 0 m 650 0 l 650 89 l 415 89 l 415 217 l 590 451 l 710 451 l 522 197 l 522 175 l 650 175 l 650 288 l 757 288 l 757 0 l 650 0 z "},"½":{"ha":833,"x_min":-6,"x_max":839,"o":"m -6 0 l 381 563 l 47 563 l 47 653 l 208 653 l 208 942 q 186 913 200 929 q 157 885 172 897 l 72 815 l 72 935 l 174 1014 l 315 1014 l 315 653 l 443 653 l 692 1014 l 839 1014 l 142 0 l -6 0 m 433 0 l 433 110 l 619 214 q 689 303 689 254 q 669 353 689 335 q 618 372 650 372 q 563 353 583 372 q 542 300 542 333 l 433 300 q 486 415 435 371 q 618 458 538 458 q 748 417 699 458 q 797 310 797 376 q 668 150 797 219 l 568 94 l 568 81 q 610 87 583 83 q 660 90 636 90 l 804 90 l 804 0 l 433 0 z "},"¾":{"ha":833,"x_min":-6,"x_max":839,"o":"m 215 556 q 80 596 131 556 q 29 701 29 636 l 136 701 q 158 658 136 675 q 215 642 179 642 q 269 659 249 642 q 290 706 290 676 q 270 752 290 735 q 217 769 250 769 l 175 769 l 175 856 l 271 932 l 63 932 l 63 1014 l 376 1014 l 376 932 l 265 844 q 363 800 326 838 q 399 706 399 763 q 348 597 399 638 q 215 556 297 556 m -6 0 l 692 1014 l 839 1014 l 142 0 l -6 0 m 650 0 l 650 89 l 415 89 l 415 217 l 590 451 l 710 451 l 522 197 l 522 175 l 650 175 l 650 288 l 757 288 l 757 0 l 650 0 z "},"¿":{"ha":833,"x_min":139,"x_max":674,"o":"m 474 588 q 405 613 431 588 q 379 679 379 639 q 406 745 379 719 q 475 771 432 771 l 515 771 q 585 745 558 771 q 611 679 611 719 q 585 613 611 639 q 515 588 558 588 l 474 588 m 475 -250 q 297 -213 372 -250 q 181 -109 222 -176 q 139 49 139 -42 q 174 198 139 133 q 272 299 210 263 q 418 338 335 336 l 418 449 l 572 449 l 575 185 l 465 185 q 354 147 396 185 q 313 49 313 110 q 354 -51 313 -14 q 467 -87 396 -87 l 674 -87 l 674 -250 l 475 -250 z "},"À":{"ha":833,"x_min":49,"x_max":785,"o":"m 49 0 l 304 1014 l 528 1014 l 785 0 l 607 0 l 551 246 l 282 246 l 226 0 l 49 0 m 314 388 l 519 388 l 458 660 q 432 783 443 728 q 417 863 421 838 q 401 783 413 838 q 375 661 390 728 l 314 388 m 346 1125 l 185 1319 l 376 1319 l 525 1125 l 346 1125 z "},"Á":{"ha":833,"x_min":49,"x_max":785,"o":"m 49 0 l 304 1014 l 528 1014 l 785 0 l 607 0 l 551 246 l 282 246 l 226 0 l 49 0 m 314 388 l 519 388 l 458 660 q 432 783 443 728 q 417 863 421 838 q 401 783 413 838 q 375 661 390 728 l 314 388 m 311 1125 l 458 1319 l 644 1319 l 486 1125 l 311 1125 z "},"Â":{"ha":833,"x_min":49,"x_max":785,"o":"m 49 0 l 304 1014 l 528 1014 l 785 0 l 607 0 l 551 246 l 282 246 l 226 0 l 49 0 m 314 388 l 519 388 l 458 660 q 432 783 443 728 q 417 863 421 838 q 401 783 413 838 q 375 661 390 728 l 314 388 m 146 1125 l 336 1319 l 497 1319 l 688 1125 l 521 1125 l 415 1226 l 314 1125 l 146 1125 z "},"Ã":{"ha":833,"x_min":49,"x_max":785,"o":"m 49 0 l 304 1014 l 528 1014 l 785 0 l 607 0 l 551 246 l 282 246 l 226 0 l 49 0 m 314 388 l 519 388 l 458 660 q 432 783 443 728 q 417 863 421 838 q 401 783 413 838 q 375 661 390 728 l 314 388 m 514 1119 q 444 1133 471 1119 q 399 1165 417 1147 q 365 1195 381 1182 q 326 1208 349 1208 q 285 1163 285 1208 l 285 1126 l 178 1126 l 178 1172 q 217 1283 178 1240 q 319 1325 256 1325 q 390 1311 363 1325 q 435 1280 417 1297 q 469 1249 453 1263 q 507 1236 485 1236 q 549 1279 549 1236 l 549 1318 l 656 1318 l 656 1272 q 617 1162 656 1204 q 514 1119 578 1119 z "},"Ä":{"ha":833,"x_min":49,"x_max":785,"o":"m 49 0 l 304 1014 l 528 1014 l 785 0 l 607 0 l 551 246 l 282 246 l 226 0 l 49 0 m 314 388 l 519 388 l 458 660 q 432 783 443 728 q 417 863 421 838 q 401 783 413 838 q 375 661 390 728 l 314 388 m 579 1122 q 506 1149 533 1122 q 478 1222 478 1176 q 506 1297 478 1269 q 579 1324 533 1324 q 654 1297 626 1324 q 682 1222 682 1269 q 654 1149 682 1176 q 579 1122 626 1122 m 254 1122 q 179 1149 207 1122 q 151 1222 151 1176 q 179 1297 151 1269 q 254 1324 207 1324 q 328 1297 300 1324 q 356 1222 356 1269 q 328 1149 356 1176 q 254 1122 300 1122 z "},"Å":{"ha":833,"x_min":49,"x_max":785,"o":"m 49 0 l 304 1014 l 528 1014 l 785 0 l 607 0 l 551 246 l 282 246 l 226 0 l 49 0 m 314 388 l 519 388 l 458 660 q 432 783 443 728 q 417 863 421 838 q 401 783 413 838 q 375 661 390 728 l 314 388 m 417 1053 q 284 1099 335 1053 q 233 1222 233 1146 q 284 1345 233 1299 q 417 1392 335 1392 q 549 1345 499 1392 q 600 1222 600 1299 q 549 1099 600 1146 q 417 1053 499 1053 m 417 1140 q 477 1163 454 1140 q 500 1222 500 1186 q 477 1281 500 1258 q 417 1304 454 1304 q 356 1281 379 1304 q 333 1222 333 1258 q 356 1163 333 1186 q 417 1140 379 1140 z "},"Æ":{"ha":833,"x_min":17,"x_max":800,"o":"m 17 0 l 213 1014 l 800 1014 l 800 865 l 561 865 l 561 596 l 765 596 l 765 443 l 561 443 l 561 150 l 800 150 l 800 0 l 411 0 l 411 251 l 231 251 l 186 0 l 17 0 m 251 379 l 411 379 l 411 865 l 339 865 l 251 379 z "},"Ç":{"ha":833,"x_min":106,"x_max":750,"o":"m 283 -300 l 283 -211 l 389 -211 q 442 -195 422 -211 q 463 -161 463 -179 q 422 -114 463 -132 q 307 -96 381 -96 l 343 -6 q 169 93 232 17 q 106 286 106 169 l 106 728 q 145 887 106 819 q 257 991 185 954 q 428 1028 329 1028 q 597 991 525 1028 q 710 887 669 954 q 750 728 750 819 l 575 728 q 537 837 575 799 q 428 875 499 875 q 318 837 357 875 q 279 728 279 799 l 279 286 q 318 177 279 215 q 428 139 357 139 q 537 177 499 139 q 575 286 575 215 l 750 286 q 710 127 750 194 q 599 23 671 60 q 433 -14 528 -14 l 421 -51 q 503 -70 460 -56 q 575 -111 546 -85 q 604 -178 604 -137 q 554 -263 604 -226 q 422 -300 504 -300 l 283 -300 z "},"È":{"ha":833,"x_min":122,"x_max":731,"o":"m 122 0 l 122 1014 l 731 1014 l 731 861 l 293 861 l 293 597 l 682 597 l 682 450 l 293 450 l 293 153 l 731 153 l 731 0 l 122 0 m 356 1125 l 194 1319 l 386 1319 l 535 1125 l 356 1125 z "},"É":{"ha":833,"x_min":122,"x_max":731,"o":"m 122 0 l 122 1014 l 731 1014 l 731 861 l 293 861 l 293 597 l 682 597 l 682 450 l 293 450 l 293 153 l 731 153 l 731 0 l 122 0 m 321 1125 l 468 1319 l 654 1319 l 496 1125 l 321 1125 z "},"Ê":{"ha":833,"x_min":122,"x_max":731,"o":"m 122 0 l 122 1014 l 731 1014 l 731 861 l 293 861 l 293 597 l 682 597 l 682 450 l 293 450 l 293 153 l 731 153 l 731 0 l 122 0 m 156 1125 l 346 1319 l 507 1319 l 697 1125 l 531 1125 l 425 1226 l 324 1125 l 156 1125 z "},"Ë":{"ha":833,"x_min":122,"x_max":731,"o":"m 122 0 l 122 1014 l 731 1014 l 731 861 l 293 861 l 293 597 l 682 597 l 682 450 l 293 450 l 293 153 l 731 153 l 731 0 l 122 0 m 589 1122 q 515 1149 543 1122 q 488 1222 488 1176 q 515 1297 488 1269 q 589 1324 543 1324 q 664 1297 636 1324 q 692 1222 692 1269 q 664 1149 692 1176 q 589 1122 636 1122 m 264 1122 q 189 1149 217 1122 q 161 1222 161 1176 q 189 1297 161 1269 q 264 1324 217 1324 q 338 1297 310 1324 q 365 1222 365 1269 q 338 1149 365 1176 q 264 1122 310 1122 z "},"Ì":{"ha":833,"x_min":125,"x_max":708,"o":"m 125 0 l 125 157 l 329 157 l 329 857 l 125 857 l 125 1014 l 708 1014 l 708 857 l 504 857 l 504 157 l 708 157 l 708 0 l 125 0 m 346 1125 l 185 1319 l 376 1319 l 525 1125 l 346 1125 z "},"Í":{"ha":833,"x_min":125,"x_max":708,"o":"m 125 0 l 125 157 l 329 157 l 329 857 l 125 857 l 125 1014 l 708 1014 l 708 857 l 504 857 l 504 157 l 708 157 l 708 0 l 125 0 m 311 1125 l 458 1319 l 644 1319 l 486 1125 l 311 1125 z "},"Î":{"ha":833,"x_min":125,"x_max":708,"o":"m 125 0 l 125 157 l 329 157 l 329 857 l 125 857 l 125 1014 l 708 1014 l 708 857 l 504 857 l 504 157 l 708 157 l 708 0 l 125 0 m 146 1125 l 336 1319 l 497 1319 l 688 1125 l 521 1125 l 415 1226 l 314 1125 l 146 1125 z "},"Ï":{"ha":833,"x_min":125,"x_max":708,"o":"m 125 0 l 125 157 l 329 157 l 329 857 l 125 857 l 125 1014 l 708 1014 l 708 857 l 504 857 l 504 157 l 708 157 l 708 0 l 125 0 m 579 1122 q 506 1149 533 1122 q 478 1222 478 1176 q 506 1297 478 1269 q 579 1324 533 1324 q 654 1297 626 1324 q 682 1222 682 1269 q 654 1149 682 1176 q 579 1122 626 1122 m 254 1122 q 179 1149 207 1122 q 151 1222 151 1176 q 179 1297 151 1269 q 254 1324 207 1324 q 328 1297 300 1324 q 356 1222 356 1269 q 328 1149 356 1176 q 254 1122 300 1122 z "},"Ð":{"ha":833,"x_min":14,"x_max":743,"o":"m 104 0 l 104 457 l 14 457 l 14 578 l 104 578 l 104 1014 l 406 1014 q 584 974 508 1014 q 701 864 660 935 q 743 697 743 793 l 743 318 q 701 151 743 222 q 584 40 660 79 q 406 0 508 0 l 104 0 m 278 156 l 406 156 q 525 199 481 156 q 569 318 569 243 l 569 697 q 525 815 569 771 q 406 858 481 858 l 278 858 l 278 578 l 403 578 l 403 457 l 278 457 l 278 156 z "},"Ñ":{"ha":833,"x_min":100,"x_max":733,"o":"m 100 0 l 100 1014 l 313 1014 l 594 194 q 586 299 590 239 q 578 422 582 360 q 575 533 575 485 l 575 1014 l 733 1014 l 733 0 l 521 0 l 242 819 q 249 722 244 779 q 256 606 253 665 q 258 496 258 546 l 258 0 l 100 0 m 514 1119 q 444 1133 471 1119 q 399 1165 417 1147 q 365 1195 381 1182 q 326 1208 349 1208 q 285 1163 285 1208 l 285 1126 l 178 1126 l 178 1172 q 217 1283 178 1240 q 319 1325 256 1325 q 390 1311 363 1325 q 435 1280 417 1297 q 469 1249 453 1263 q 507 1236 485 1236 q 549 1279 549 1236 l 549 1318 l 656 1318 l 656 1272 q 617 1162 656 1204 q 514 1119 578 1119 z "},"Ò":{"ha":833,"x_min":100,"x_max":733,"o":"m 417 -14 q 185 69 271 -14 q 100 300 100 153 l 100 714 q 185 944 100 861 q 417 1028 271 1028 q 648 944 563 1028 q 733 715 733 861 l 733 300 q 648 69 733 153 q 417 -14 563 -14 m 417 139 q 524 177 488 139 q 560 286 560 215 l 560 728 q 524 837 560 799 q 417 875 488 875 q 310 837 346 875 q 274 728 274 799 l 274 286 q 310 177 274 215 q 417 139 346 139 m 346 1125 l 185 1319 l 376 1319 l 525 1125 l 346 1125 z "},"Ó":{"ha":833,"x_min":100,"x_max":733,"o":"m 417 -14 q 185 69 271 -14 q 100 300 100 153 l 100 714 q 185 944 100 861 q 417 1028 271 1028 q 648 944 563 1028 q 733 715 733 861 l 733 300 q 648 69 733 153 q 417 -14 563 -14 m 417 139 q 524 177 488 139 q 560 286 560 215 l 560 728 q 524 837 560 799 q 417 875 488 875 q 310 837 346 875 q 274 728 274 799 l 274 286 q 310 177 274 215 q 417 139 346 139 m 311 1125 l 458 1319 l 644 1319 l 486 1125 l 311 1125 z "},"Ô":{"ha":833,"x_min":100,"x_max":733,"o":"m 417 -14 q 185 69 271 -14 q 100 300 100 153 l 100 714 q 185 944 100 861 q 417 1028 271 1028 q 648 944 563 1028 q 733 715 733 861 l 733 300 q 648 69 733 153 q 417 -14 563 -14 m 417 139 q 524 177 488 139 q 560 286 560 215 l 560 728 q 524 837 560 799 q 417 875 488 875 q 310 837 346 875 q 274 728 274 799 l 274 286 q 310 177 274 215 q 417 139 346 139 m 146 1125 l 336 1319 l 497 1319 l 688 1125 l 521 1125 l 415 1226 l 314 1125 l 146 1125 z "},"Õ":{"ha":833,"x_min":100,"x_max":733,"o":"m 417 -14 q 185 69 271 -14 q 100 300 100 153 l 100 714 q 185 944 100 861 q 417 1028 271 1028 q 648 944 563 1028 q 733 715 733 861 l 733 300 q 648 69 733 153 q 417 -14 563 -14 m 417 139 q 524 177 488 139 q 560 286 560 215 l 560 728 q 524 837 560 799 q 417 875 488 875 q 310 837 346 875 q 274 728 274 799 l 274 286 q 310 177 274 215 q 417 139 346 139 m 514 1119 q 444 1133 471 1119 q 399 1165 417 1147 q 365 1195 381 1182 q 326 1208 349 1208 q 285 1163 285 1208 l 285 1126 l 178 1126 l 178 1172 q 217 1283 178 1240 q 319 1325 256 1325 q 390 1311 363 1325 q 435 1280 417 1297 q 469 1249 453 1263 q 507 1236 485 1236 q 549 1279 549 1236 l 549 1318 l 656 1318 l 656 1272 q 617 1162 656 1204 q 514 1119 578 1119 z "},"Ö":{"ha":833,"x_min":100,"x_max":733,"o":"m 417 -14 q 185 69 271 -14 q 100 300 100 153 l 100 714 q 185 944 100 861 q 417 1028 271 1028 q 648 944 563 1028 q 733 715 733 861 l 733 300 q 648 69 733 153 q 417 -14 563 -14 m 417 139 q 524 177 488 139 q 560 286 560 215 l 560 728 q 524 837 560 799 q 417 875 488 875 q 310 837 346 875 q 274 728 274 799 l 274 286 q 310 177 274 215 q 417 139 346 139 m 579 1122 q 506 1149 533 1122 q 478 1222 478 1176 q 506 1297 478 1269 q 579 1324 533 1324 q 654 1297 626 1324 q 682 1222 682 1269 q 654 1149 682 1176 q 579 1122 626 1122 m 254 1122 q 179 1149 207 1122 q 151 1222 151 1176 q 179 1297 151 1269 q 254 1324 207 1324 q 328 1297 300 1324 q 356 1222 356 1269 q 328 1149 356 1176 q 254 1122 300 1122 z "},"×":{"ha":833,"x_min":124,"x_max":710,"o":"m 236 160 l 124 274 l 301 451 l 124 632 l 236 744 l 415 565 l 597 747 l 710 633 l 528 451 l 708 274 l 594 160 l 415 340 l 236 160 z "},"Ø":{"ha":833,"x_min":32,"x_max":801,"o":"m 32 -56 l 138 129 q 100 286 100 196 l 100 728 q 185 947 100 865 q 417 1028 271 1028 q 617 972 536 1028 l 657 1042 l 801 1042 l 704 871 q 733 729 733 808 l 733 286 q 648 67 733 149 q 417 -14 563 -14 q 228 35 306 -14 l 176 -56 l 32 -56 m 269 728 l 269 361 l 535 828 q 417 875 497 875 q 308 837 346 875 q 269 728 269 799 m 417 139 q 526 177 488 139 q 564 286 564 215 l 564 625 l 308 176 q 417 139 346 139 z "},"Ù":{"ha":833,"x_min":100,"x_max":733,"o":"m 417 -14 q 184 67 268 -14 q 100 289 100 149 l 100 1014 l 275 1014 l 275 290 q 311 178 275 218 q 417 138 347 138 q 522 178 485 138 q 558 290 558 218 l 558 1014 l 733 1014 l 733 289 q 650 67 733 149 q 417 -14 567 -14 m 346 1125 l 185 1319 l 376 1319 l 525 1125 l 346 1125 z "},"Ú":{"ha":833,"x_min":100,"x_max":733,"o":"m 417 -14 q 184 67 268 -14 q 100 289 100 149 l 100 1014 l 275 1014 l 275 290 q 311 178 275 218 q 417 138 347 138 q 522 178 485 138 q 558 290 558 218 l 558 1014 l 733 1014 l 733 289 q 650 67 733 149 q 417 -14 567 -14 m 311 1125 l 458 1319 l 644 1319 l 486 1125 l 311 1125 z "},"Û":{"ha":833,"x_min":100,"x_max":733,"o":"m 417 -14 q 184 67 268 -14 q 100 289 100 149 l 100 1014 l 275 1014 l 275 290 q 311 178 275 218 q 417 138 347 138 q 522 178 485 138 q 558 290 558 218 l 558 1014 l 733 1014 l 733 289 q 650 67 733 149 q 417 -14 567 -14 m 146 1125 l 336 1319 l 497 1319 l 688 1125 l 521 1125 l 415 1226 l 314 1125 l 146 1125 z "},"Ü":{"ha":833,"x_min":100,"x_max":733,"o":"m 417 -14 q 184 67 268 -14 q 100 289 100 149 l 100 1014 l 275 1014 l 275 290 q 311 178 275 218 q 417 138 347 138 q 522 178 485 138 q 558 290 558 218 l 558 1014 l 733 1014 l 733 289 q 650 67 733 149 q 417 -14 567 -14 m 579 1122 q 506 1149 533 1122 q 478 1222 478 1176 q 506 1297 478 1269 q 579 1324 533 1324 q 654 1297 626 1324 q 682 1222 682 1269 q 654 1149 682 1176 q 579 1122 626 1122 m 254 1122 q 179 1149 207 1122 q 151 1222 151 1176 q 179 1297 151 1269 q 254 1324 207 1324 q 328 1297 300 1324 q 356 1222 356 1269 q 328 1149 356 1176 q 254 1122 300 1122 z "},"Ý":{"ha":833,"x_min":32,"x_max":801,"o":"m 329 0 l 329 368 l 32 1014 l 215 1014 l 372 663 q 403 581 390 621 q 419 518 415 540 q 437 581 425 540 q 467 663 449 621 l 621 1014 l 801 1014 l 504 368 l 504 0 l 329 0 m 311 1125 l 458 1319 l 644 1319 l 486 1125 l 311 1125 z "},"Þ":{"ha":833,"x_min":108,"x_max":781,"o":"m 108 0 l 108 1014 l 282 1014 l 282 818 l 468 818 q 697 740 613 818 q 781 528 781 663 q 697 315 781 393 q 468 238 613 238 l 282 238 l 282 0 l 108 0 m 282 386 l 447 386 q 563 424 522 386 q 604 528 604 461 q 563 632 604 594 q 447 669 522 669 l 282 669 l 282 386 z "},"ß":{"ha":833,"x_min":101,"x_max":767,"o":"m 101 0 l 101 724 q 142 883 101 814 q 254 990 182 951 q 422 1028 326 1028 q 586 994 515 1028 q 697 899 657 960 q 738 760 738 839 q 693 617 738 678 q 576 542 649 557 l 576 539 q 714 451 661 522 q 767 286 767 381 q 726 137 767 201 q 611 36 685 72 q 440 0 538 0 l 368 0 l 368 153 l 431 153 q 546 196 501 153 q 590 307 590 239 q 547 419 590 376 q 436 461 504 461 l 368 461 l 368 597 l 421 597 q 525 636 485 597 q 565 739 565 675 q 525 841 565 801 q 421 881 485 881 q 315 837 356 881 q 275 724 275 793 l 275 0 l 101 0 z "},"à":{"ha":833,"x_min":81,"x_max":726,"o":"m 332 -14 q 148 52 215 -14 q 81 225 81 118 q 157 402 81 336 q 367 468 233 468 l 553 468 l 553 522 q 418 638 553 638 q 321 614 357 638 q 281 547 285 590 l 114 547 q 201 714 119 650 q 419 778 282 778 q 646 710 565 778 q 726 518 726 642 l 726 0 l 557 0 l 557 143 q 488 28 547 69 q 332 -14 428 -14 m 388 128 q 508 165 464 128 q 553 265 553 203 l 553 356 l 375 356 q 285 324 318 356 q 251 242 251 292 q 287 159 251 190 q 388 128 322 128 m 353 896 l 192 1090 l 383 1090 l 532 896 l 353 896 z "},"á":{"ha":833,"x_min":81,"x_max":726,"o":"m 332 -14 q 148 52 215 -14 q 81 225 81 118 q 157 402 81 336 q 367 468 233 468 l 553 468 l 553 522 q 418 638 553 638 q 321 614 357 638 q 281 547 285 590 l 114 547 q 201 714 119 650 q 419 778 282 778 q 646 710 565 778 q 726 518 726 642 l 726 0 l 557 0 l 557 143 q 488 28 547 69 q 332 -14 428 -14 m 388 128 q 508 165 464 128 q 553 265 553 203 l 553 356 l 375 356 q 285 324 318 356 q 251 242 251 292 q 287 159 251 190 q 388 128 322 128 m 318 896 l 465 1090 l 651 1090 l 493 896 l 318 896 z "},"â":{"ha":833,"x_min":81,"x_max":726,"o":"m 332 -14 q 148 52 215 -14 q 81 225 81 118 q 157 402 81 336 q 367 468 233 468 l 553 468 l 553 522 q 418 638 553 638 q 321 614 357 638 q 281 547 285 590 l 114 547 q 201 714 119 650 q 419 778 282 778 q 646 710 565 778 q 726 518 726 642 l 726 0 l 557 0 l 557 143 q 488 28 547 69 q 332 -14 428 -14 m 388 128 q 508 165 464 128 q 553 265 553 203 l 553 356 l 375 356 q 285 324 318 356 q 251 242 251 292 q 287 159 251 190 q 388 128 322 128 m 153 896 l 343 1090 l 504 1090 l 694 896 l 528 896 l 422 997 l 321 896 l 153 896 z "},"ã":{"ha":833,"x_min":81,"x_max":726,"o":"m 332 -14 q 148 52 215 -14 q 81 225 81 118 q 157 402 81 336 q 367 468 233 468 l 553 468 l 553 522 q 418 638 553 638 q 321 614 357 638 q 281 547 285 590 l 114 547 q 201 714 119 650 q 419 778 282 778 q 646 710 565 778 q 726 518 726 642 l 726 0 l 557 0 l 557 143 q 488 28 547 69 q 332 -14 428 -14 m 388 128 q 508 165 464 128 q 553 265 553 203 l 553 356 l 375 356 q 285 324 318 356 q 251 242 251 292 q 287 159 251 190 q 388 128 322 128 m 521 890 q 451 904 478 890 q 406 935 424 918 q 372 966 388 953 q 333 979 356 979 q 292 933 292 979 l 292 897 l 185 897 l 185 943 q 224 1053 185 1011 q 326 1096 263 1096 q 397 1082 369 1096 q 442 1051 424 1068 q 476 1020 460 1033 q 514 1007 492 1007 q 556 1050 556 1007 l 556 1089 l 663 1089 l 663 1043 q 624 933 663 975 q 521 890 585 890 z "},"ä":{"ha":833,"x_min":81,"x_max":726,"o":"m 332 -14 q 148 52 215 -14 q 81 225 81 118 q 157 402 81 336 q 367 468 233 468 l 553 468 l 553 522 q 418 638 553 638 q 321 614 357 638 q 281 547 285 590 l 114 547 q 201 714 119 650 q 419 778 282 778 q 646 710 565 778 q 726 518 726 642 l 726 0 l 557 0 l 557 143 q 488 28 547 69 q 332 -14 428 -14 m 388 128 q 508 165 464 128 q 553 265 553 203 l 553 356 l 375 356 q 285 324 318 356 q 251 242 251 292 q 287 159 251 190 q 388 128 322 128 m 586 892 q 513 919 540 892 q 485 992 485 946 q 513 1065 485 1038 q 586 1092 540 1092 q 661 1065 633 1092 q 689 992 689 1038 q 661 919 689 946 q 586 892 633 892 m 261 892 q 186 919 214 892 q 158 992 158 946 q 186 1065 158 1038 q 261 1092 214 1092 q 335 1065 307 1092 q 363 992 363 1038 q 335 919 363 946 q 261 892 307 892 z "},"å":{"ha":833,"x_min":81,"x_max":726,"o":"m 332 -14 q 148 52 215 -14 q 81 225 81 118 q 157 402 81 336 q 367 468 233 468 l 553 468 l 553 522 q 418 638 553 638 q 321 614 357 638 q 281 547 285 590 l 114 547 q 201 714 119 650 q 419 778 282 778 q 646 710 565 778 q 726 518 726 642 l 726 0 l 557 0 l 557 143 q 488 28 547 69 q 332 -14 428 -14 m 388 128 q 508 165 464 128 q 553 265 553 203 l 553 356 l 375 356 q 285 324 318 356 q 251 242 251 292 q 287 159 251 190 q 388 128 322 128 m 424 838 q 291 884 342 838 q 240 1006 240 931 q 291 1128 240 1082 q 424 1175 342 1175 q 556 1128 506 1175 q 607 1006 607 1082 q 556 884 607 931 q 424 838 506 838 m 424 925 q 484 947 461 925 q 507 1006 507 969 q 484 1065 507 1043 q 424 1088 461 1088 q 363 1065 386 1088 q 340 1006 340 1043 q 363 947 340 969 q 424 925 386 925 z "},"æ":{"ha":833,"x_min":40,"x_max":789,"o":"m 247 -14 q 98 51 156 -14 q 40 221 40 117 q 103 390 40 325 q 265 456 165 456 l 349 456 l 349 556 q 328 629 349 603 q 274 656 308 656 q 218 631 239 656 q 197 564 197 606 l 54 564 q 109 719 54 660 q 251 778 164 778 q 366 744 319 778 q 419 651 413 710 q 473 744 426 710 q 585 778 519 778 q 732 716 675 778 q 789 556 789 654 l 789 350 l 492 350 l 492 208 q 512 135 492 161 q 567 108 532 108 q 623 133 603 108 q 643 201 643 158 l 789 201 q 733 46 789 106 q 586 -14 676 -14 q 476 21 524 -14 q 419 113 429 56 q 363 21 411 56 q 247 -14 315 -14 m 492 456 l 643 456 l 643 556 q 623 628 643 601 q 567 656 603 656 q 513 628 533 656 q 492 556 492 601 l 492 456 m 271 108 q 327 135 306 108 q 349 208 349 163 l 349 350 l 267 350 q 208 317 229 350 q 186 229 186 285 q 208 142 186 175 q 271 108 231 108 z "},"ç":{"ha":833,"x_min":104,"x_max":750,"o":"m 278 -300 l 278 -211 l 382 -211 q 435 -195 415 -211 q 456 -161 456 -179 q 415 -114 456 -132 q 301 -96 374 -96 l 336 -4 q 167 95 229 19 q 104 286 104 171 l 104 478 q 144 637 104 569 q 258 741 185 704 q 429 778 331 778 q 659 703 572 778 q 750 501 746 629 l 579 501 q 534 594 575 561 q 429 626 493 626 q 318 588 358 626 q 278 479 278 550 l 278 286 q 318 176 278 215 q 429 138 358 138 q 535 170 494 138 q 579 263 575 203 l 750 263 q 659 60 746 135 q 429 -14 572 -14 l 428 -14 l 414 -51 q 497 -70 454 -56 q 569 -111 539 -85 q 599 -178 599 -137 q 549 -263 599 -226 q 415 -300 499 -300 l 278 -300 z "},"è":{"ha":833,"x_min":97,"x_max":736,"o":"m 418 -14 q 249 24 321 -14 q 137 130 176 61 q 97 292 97 199 l 97 472 q 137 634 97 565 q 249 740 176 703 q 418 778 321 778 q 585 740 514 778 q 697 635 657 703 q 736 478 736 568 l 736 339 l 264 339 l 264 286 q 304 169 264 208 q 418 129 344 129 q 510 148 472 129 q 556 203 549 167 l 728 203 q 625 45 710 104 q 418 -14 540 -14 m 264 478 l 264 451 l 569 453 l 569 479 q 531 601 569 558 q 418 644 492 644 q 303 601 342 644 q 264 478 264 557 m 346 896 l 185 1090 l 376 1090 l 525 896 l 346 896 z "},"é":{"ha":833,"x_min":97,"x_max":736,"o":"m 418 -14 q 249 24 321 -14 q 137 130 176 61 q 97 292 97 199 l 97 472 q 137 634 97 565 q 249 740 176 703 q 418 778 321 778 q 585 740 514 778 q 697 635 657 703 q 736 478 736 568 l 736 339 l 264 339 l 264 286 q 304 169 264 208 q 418 129 344 129 q 510 148 472 129 q 556 203 549 167 l 728 203 q 625 45 710 104 q 418 -14 540 -14 m 264 478 l 264 451 l 569 453 l 569 479 q 531 601 569 558 q 418 644 492 644 q 303 601 342 644 q 264 478 264 557 m 311 896 l 458 1090 l 644 1090 l 486 896 l 311 896 z "},"ê":{"ha":833,"x_min":97,"x_max":736,"o":"m 418 -14 q 249 24 321 -14 q 137 130 176 61 q 97 292 97 199 l 97 472 q 137 634 97 565 q 249 740 176 703 q 418 778 321 778 q 585 740 514 778 q 697 635 657 703 q 736 478 736 568 l 736 339 l 264 339 l 264 286 q 304 169 264 208 q 418 129 344 129 q 510 148 472 129 q 556 203 549 167 l 728 203 q 625 45 710 104 q 418 -14 540 -14 m 264 478 l 264 451 l 569 453 l 569 479 q 531 601 569 558 q 418 644 492 644 q 303 601 342 644 q 264 478 264 557 m 146 896 l 336 1090 l 497 1090 l 688 896 l 521 896 l 415 997 l 314 896 l 146 896 z "},"ë":{"ha":833,"x_min":97,"x_max":736,"o":"m 418 -14 q 249 24 321 -14 q 137 130 176 61 q 97 292 97 199 l 97 472 q 137 634 97 565 q 249 740 176 703 q 418 778 321 778 q 585 740 514 778 q 697 635 657 703 q 736 478 736 568 l 736 339 l 264 339 l 264 286 q 304 169 264 208 q 418 129 344 129 q 510 148 472 129 q 556 203 549 167 l 728 203 q 625 45 710 104 q 418 -14 540 -14 m 264 478 l 264 451 l 569 453 l 569 479 q 531 601 569 558 q 418 644 492 644 q 303 601 342 644 q 264 478 264 557 m 579 892 q 506 919 533 892 q 478 992 478 946 q 506 1065 478 1038 q 579 1092 533 1092 q 654 1065 626 1092 q 682 992 682 1038 q 654 919 682 946 q 579 892 626 892 m 254 892 q 179 919 207 892 q 151 992 151 946 q 179 1065 151 1038 q 254 1092 207 1092 q 328 1065 300 1092 q 356 992 356 1038 q 328 919 356 946 q 254 892 300 892 z "},"ì":{"ha":833,"x_min":106,"x_max":775,"o":"m 106 0 l 106 157 l 367 157 l 367 607 l 133 607 l 133 764 l 540 764 l 540 157 l 775 157 l 775 0 l 106 0 m 371 896 l 210 1090 l 401 1090 l 550 896 l 371 896 z "},"í":{"ha":833,"x_min":106,"x_max":775,"o":"m 106 0 l 106 157 l 367 157 l 367 607 l 133 607 l 133 764 l 540 764 l 540 157 l 775 157 l 775 0 l 106 0 m 336 896 l 483 1090 l 669 1090 l 511 896 l 336 896 z "},"î":{"ha":833,"x_min":106,"x_max":775,"o":"m 106 0 l 106 157 l 367 157 l 367 607 l 133 607 l 133 764 l 540 764 l 540 157 l 775 157 l 775 0 l 106 0 m 171 896 l 361 1090 l 522 1090 l 713 896 l 546 896 l 440 997 l 339 896 l 171 896 z "},"ï":{"ha":833,"x_min":106,"x_max":775,"o":"m 106 0 l 106 157 l 367 157 l 367 607 l 133 607 l 133 764 l 540 764 l 540 157 l 775 157 l 775 0 l 106 0 m 604 892 q 531 919 558 892 q 503 992 503 946 q 531 1065 503 1038 q 604 1092 558 1092 q 679 1065 651 1092 q 707 992 707 1038 q 679 919 707 946 q 604 892 651 892 m 279 892 q 204 919 232 892 q 176 992 176 946 q 204 1065 176 1038 q 279 1092 232 1092 q 353 1065 325 1092 q 381 992 381 1038 q 353 919 381 946 q 279 892 325 892 z "},"ð":{"ha":833,"x_min":72,"x_max":761,"o":"m 417 -6 q 235 35 313 -6 q 115 147 158 75 q 72 315 72 219 q 108 476 72 407 q 209 584 144 546 q 360 622 274 622 q 474 589 426 622 q 540 524 522 556 l 553 524 q 528 569 551 532 q 454 674 506 607 l 374 782 l 154 693 l 154 825 l 297 883 l 200 1014 l 396 1014 l 447 943 l 667 1031 l 667 899 l 524 842 l 613 721 q 724 520 688 618 q 761 332 761 422 q 718 153 761 229 q 598 36 675 78 q 417 -6 521 -6 m 417 142 q 540 189 493 142 q 586 315 586 236 q 540 440 586 393 q 417 488 493 488 q 293 440 339 488 q 247 315 247 393 q 293 189 247 236 q 417 142 339 142 z "},"ñ":{"ha":833,"x_min":107,"x_max":729,"o":"m 107 0 l 107 764 l 276 764 l 276 621 q 344 735 290 693 q 482 778 399 778 q 662 703 594 778 q 729 501 729 628 l 729 0 l 556 0 l 556 481 q 519 590 556 551 q 419 628 482 628 q 317 589 354 628 q 281 478 281 550 l 281 0 l 107 0 m 521 890 q 451 904 478 890 q 406 935 424 918 q 372 966 388 953 q 333 979 356 979 q 292 933 292 979 l 292 897 l 185 897 l 185 943 q 224 1053 185 1011 q 326 1096 263 1096 q 397 1082 369 1096 q 442 1051 424 1068 q 476 1020 460 1033 q 514 1007 492 1007 q 556 1050 556 1007 l 556 1089 l 663 1089 l 663 1043 q 624 933 663 975 q 521 890 585 890 z "},"ò":{"ha":833,"x_min":97,"x_max":736,"o":"m 417 -12 q 183 70 269 -12 q 97 293 97 153 l 97 471 q 183 694 97 613 q 417 776 269 776 q 650 694 564 776 q 736 471 736 613 l 736 293 q 650 70 736 153 q 417 -12 564 -12 m 417 139 q 524 177 486 139 q 563 288 563 215 l 563 476 q 524 587 563 549 q 417 625 486 625 q 309 587 347 625 q 271 476 271 549 l 271 288 q 309 177 271 215 q 417 139 347 139 m 346 896 l 185 1090 l 376 1090 l 525 896 l 346 896 z "},"ó":{"ha":833,"x_min":97,"x_max":736,"o":"m 417 -12 q 183 70 269 -12 q 97 293 97 153 l 97 471 q 183 694 97 613 q 417 776 269 776 q 650 694 564 776 q 736 471 736 613 l 736 293 q 650 70 736 153 q 417 -12 564 -12 m 417 139 q 524 177 486 139 q 563 288 563 215 l 563 476 q 524 587 563 549 q 417 625 486 625 q 309 587 347 625 q 271 476 271 549 l 271 288 q 309 177 271 215 q 417 139 347 139 m 311 896 l 458 1090 l 644 1090 l 486 896 l 311 896 z "},"ô":{"ha":833,"x_min":97,"x_max":736,"o":"m 417 -12 q 183 70 269 -12 q 97 293 97 153 l 97 471 q 183 694 97 613 q 417 776 269 776 q 650 694 564 776 q 736 471 736 613 l 736 293 q 650 70 736 153 q 417 -12 564 -12 m 417 139 q 524 177 486 139 q 563 288 563 215 l 563 476 q 524 587 563 549 q 417 625 486 625 q 309 587 347 625 q 271 476 271 549 l 271 288 q 309 177 271 215 q 417 139 347 139 m 146 896 l 336 1090 l 497 1090 l 688 896 l 521 896 l 415 997 l 314 896 l 146 896 z "},"õ":{"ha":833,"x_min":97,"x_max":736,"o":"m 417 -12 q 183 70 269 -12 q 97 293 97 153 l 97 471 q 183 694 97 613 q 417 776 269 776 q 650 694 564 776 q 736 471 736 613 l 736 293 q 650 70 736 153 q 417 -12 564 -12 m 417 139 q 524 177 486 139 q 563 288 563 215 l 563 476 q 524 587 563 549 q 417 625 486 625 q 309 587 347 625 q 271 476 271 549 l 271 288 q 309 177 271 215 q 417 139 347 139 m 514 890 q 444 904 471 890 q 399 935 417 918 q 365 966 381 953 q 326 979 349 979 q 285 933 285 979 l 285 897 l 178 897 l 178 943 q 217 1053 178 1011 q 319 1096 256 1096 q 390 1082 363 1096 q 435 1051 417 1068 q 469 1020 453 1033 q 507 1007 485 1007 q 549 1050 549 1007 l 549 1089 l 656 1089 l 656 1043 q 617 933 656 975 q 514 890 578 890 z "},"ö":{"ha":833,"x_min":97,"x_max":736,"o":"m 417 -12 q 183 70 269 -12 q 97 293 97 153 l 97 471 q 183 694 97 613 q 417 776 269 776 q 650 694 564 776 q 736 471 736 613 l 736 293 q 650 70 736 153 q 417 -12 564 -12 m 417 139 q 524 177 486 139 q 563 288 563 215 l 563 476 q 524 587 563 549 q 417 625 486 625 q 309 587 347 625 q 271 476 271 549 l 271 288 q 309 177 271 215 q 417 139 347 139 m 579 892 q 506 919 533 892 q 478 992 478 946 q 506 1065 478 1038 q 579 1092 533 1092 q 654 1065 626 1092 q 682 992 682 1038 q 654 919 682 946 q 579 892 626 892 m 254 892 q 179 919 207 892 q 151 992 151 946 q 179 1065 151 1038 q 254 1092 207 1092 q 328 1065 300 1092 q 356 992 356 1038 q 328 919 356 946 q 254 892 300 892 z "},"÷":{"ha":833,"x_min":139,"x_max":694,"o":"m 417 639 q 323 671 358 639 q 288 756 288 703 q 323 840 288 807 q 417 872 358 872 q 510 840 475 872 q 546 756 546 807 q 510 671 546 703 q 417 639 475 639 m 139 382 l 139 539 l 694 539 l 694 382 l 139 382 m 417 49 q 323 81 358 49 q 288 164 288 113 q 323 249 288 217 q 417 281 358 281 q 510 249 475 281 q 546 164 546 217 q 510 81 546 113 q 417 49 475 49 z "},"ø":{"ha":833,"x_min":40,"x_max":793,"o":"m 40 -42 l 149 111 q 100 286 100 183 l 100 478 q 185 697 100 615 q 417 778 271 778 q 590 739 517 778 l 647 819 l 793 819 l 681 660 q 733 479 733 585 l 733 286 q 648 67 733 149 q 417 -14 563 -14 q 236 29 313 -14 l 186 -42 l 40 -42 m 263 286 q 263 285 263 286 q 263 274 263 283 l 499 608 q 417 626 464 626 q 303 587 343 626 q 263 478 263 547 l 263 286 m 417 138 q 531 177 490 138 q 571 286 571 217 l 571 478 q 569 503 571 492 l 328 158 q 417 138 364 138 z "},"ù":{"ha":833,"x_min":104,"x_max":729,"o":"m 417 -14 q 188 67 271 -14 q 104 289 104 149 l 104 764 l 278 764 l 278 290 q 314 178 278 218 q 417 138 350 138 q 519 178 482 138 q 556 290 556 218 l 556 764 l 729 764 l 729 289 q 644 67 729 149 q 417 -14 560 -14 m 346 896 l 185 1090 l 376 1090 l 525 896 l 346 896 z "},"ú":{"ha":833,"x_min":104,"x_max":729,"o":"m 417 -14 q 188 67 271 -14 q 104 289 104 149 l 104 764 l 278 764 l 278 290 q 314 178 278 218 q 417 138 350 138 q 519 178 482 138 q 556 290 556 218 l 556 764 l 729 764 l 729 289 q 644 67 729 149 q 417 -14 560 -14 m 311 896 l 458 1090 l 644 1090 l 486 896 l 311 896 z "},"û":{"ha":833,"x_min":104,"x_max":729,"o":"m 417 -14 q 188 67 271 -14 q 104 289 104 149 l 104 764 l 278 764 l 278 290 q 314 178 278 218 q 417 138 350 138 q 519 178 482 138 q 556 290 556 218 l 556 764 l 729 764 l 729 289 q 644 67 729 149 q 417 -14 560 -14 m 146 896 l 336 1090 l 497 1090 l 688 896 l 521 896 l 415 997 l 314 896 l 146 896 z "},"ü":{"ha":833,"x_min":104,"x_max":729,"o":"m 417 -14 q 188 67 271 -14 q 104 289 104 149 l 104 764 l 278 764 l 278 290 q 314 178 278 218 q 417 138 350 138 q 519 178 482 138 q 556 290 556 218 l 556 764 l 729 764 l 729 289 q 644 67 729 149 q 417 -14 560 -14 m 579 892 q 506 919 533 892 q 478 992 478 946 q 506 1065 478 1038 q 579 1092 533 1092 q 654 1065 626 1092 q 682 992 682 1038 q 654 919 682 946 q 579 892 626 892 m 254 892 q 179 919 207 892 q 151 992 151 946 q 179 1065 151 1038 q 254 1092 207 1092 q 328 1065 300 1092 q 356 992 356 1038 q 328 919 356 946 q 254 892 300 892 z "},"ý":{"ha":833,"x_min":50,"x_max":783,"o":"m 229 -250 l 338 42 l 50 764 l 233 764 l 381 374 q 406 298 393 339 q 424 222 418 257 q 440 298 428 257 q 464 374 451 339 l 600 764 l 783 764 l 411 -250 l 229 -250 m 311 896 l 458 1090 l 644 1090 l 486 896 l 311 896 z "},"þ":{"ha":833,"x_min":104,"x_max":732,"o":"m 104 -236 l 104 1014 l 278 1014 l 278 800 l 272 625 q 348 738 293 697 q 482 778 403 778 q 664 699 596 778 q 732 485 732 619 l 732 278 q 663 65 732 144 q 482 -14 594 -14 q 349 26 403 -14 q 274 139 294 67 l 274 -236 l 104 -236 m 418 136 q 522 172 485 136 q 558 283 558 208 l 558 481 q 522 592 558 556 q 418 628 485 628 q 315 588 351 628 q 278 474 278 547 l 278 290 q 315 176 278 217 q 418 136 351 136 z "},"ÿ":{"ha":833,"x_min":50,"x_max":783,"o":"m 229 -250 l 338 42 l 50 764 l 233 764 l 381 374 q 406 298 393 339 q 424 222 418 257 q 440 298 428 257 q 464 374 451 339 l 600 764 l 783 764 l 411 -250 l 229 -250 m 579 892 q 506 919 533 892 q 478 992 478 946 q 506 1065 478 1038 q 579 1092 533 1092 q 654 1065 626 1092 q 682 992 682 1038 q 654 919 682 946 q 579 892 626 892 m 254 892 q 179 919 207 892 q 151 992 151 946 q 179 1065 151 1038 q 254 1092 207 1092 q 328 1065 300 1092 q 356 992 356 1038 q 328 919 356 946 q 254 892 300 892 z "},"Ā":{"ha":833,"x_min":49,"x_max":785,"o":"m 49 0 l 304 1014 l 528 1014 l 785 0 l 607 0 l 551 246 l 282 246 l 226 0 l 49 0 m 314 388 l 519 388 l 458 660 q 432 783 443 728 q 417 863 421 838 q 401 783 413 838 q 375 661 390 728 l 314 388 m 178 1150 l 178 1283 l 656 1283 l 656 1150 l 178 1150 z "},"ā":{"ha":833,"x_min":81,"x_max":726,"o":"m 332 -14 q 148 52 215 -14 q 81 225 81 118 q 157 402 81 336 q 367 468 233 468 l 553 468 l 553 522 q 418 638 553 638 q 321 614 357 638 q 281 547 285 590 l 114 547 q 201 714 119 650 q 419 778 282 778 q 646 710 565 778 q 726 518 726 642 l 726 0 l 557 0 l 557 143 q 488 28 547 69 q 332 -14 428 -14 m 388 128 q 508 165 464 128 q 553 265 553 203 l 553 356 l 375 356 q 285 324 318 356 q 251 242 251 292 q 287 159 251 190 q 388 128 322 128 m 185 918 l 185 1051 l 663 1051 l 663 918 l 185 918 z "},"Ă":{"ha":833,"x_min":49,"x_max":785,"o":"m 49 0 l 304 1014 l 528 1014 l 785 0 l 607 0 l 551 246 l 282 246 l 226 0 l 49 0 m 314 388 l 519 388 l 458 660 q 432 783 443 728 q 417 863 421 838 q 401 783 413 838 q 375 661 390 728 l 314 388 m 417 1114 q 242 1170 308 1114 q 175 1319 175 1226 l 310 1319 q 339 1246 310 1274 q 417 1218 368 1218 q 495 1246 465 1218 q 525 1319 525 1274 l 660 1319 q 593 1170 660 1226 q 417 1114 526 1114 z "},"ă":{"ha":833,"x_min":81,"x_max":726,"o":"m 332 -14 q 148 52 215 -14 q 81 225 81 118 q 157 402 81 336 q 367 468 233 468 l 553 468 l 553 522 q 418 638 553 638 q 321 614 357 638 q 281 547 285 590 l 114 547 q 201 714 119 650 q 419 778 282 778 q 646 710 565 778 q 726 518 726 642 l 726 0 l 557 0 l 557 143 q 488 28 547 69 q 332 -14 428 -14 m 388 128 q 508 165 464 128 q 553 265 553 203 l 553 356 l 375 356 q 285 324 318 356 q 251 242 251 292 q 287 159 251 190 q 388 128 322 128 m 424 885 q 248 941 315 885 q 181 1090 181 997 l 315 1090 q 345 1017 315 1044 q 424 989 375 989 q 502 1017 472 989 q 532 1090 532 1044 l 667 1090 q 600 941 667 997 q 424 885 533 885 z "},"Ą":{"ha":833,"x_min":49,"x_max":801,"o":"m 49 0 l 304 1014 l 528 1014 l 785 0 l 728 0 l 713 -14 q 642 -121 642 -75 q 660 -163 642 -146 q 711 -181 679 -181 l 801 -181 l 801 -300 l 669 -300 q 540 -260 588 -300 q 493 -157 493 -219 q 607 0 493 -71 l 551 246 l 282 246 l 226 0 l 49 0 m 314 388 l 519 388 l 458 660 q 432 783 443 728 q 417 863 421 838 q 401 783 413 838 q 375 661 390 728 l 314 388 z "},"ą":{"ha":833,"x_min":81,"x_max":803,"o":"m 332 -14 q 148 52 215 -14 q 81 225 81 118 q 157 402 81 336 q 367 468 233 468 l 553 468 l 553 522 q 418 638 553 638 q 321 614 357 638 q 281 547 285 590 l 114 547 q 201 714 119 650 q 419 778 282 778 q 646 710 565 778 q 726 518 726 642 l 726 0 l 729 0 q 663 -70 682 -42 q 643 -121 643 -99 q 661 -163 643 -146 q 713 -181 679 -181 l 803 -181 l 803 -300 l 669 -300 q 541 -260 589 -300 q 493 -157 493 -219 q 607 0 493 -71 l 557 0 l 557 143 q 488 28 547 69 q 332 -14 428 -14 m 388 128 q 508 165 464 128 q 553 265 553 203 l 553 356 l 375 356 q 285 324 318 356 q 251 242 251 292 q 287 159 251 190 q 388 128 322 128 z "},"Ć":{"ha":833,"x_min":106,"x_max":750,"o":"m 428 -14 q 257 23 329 -14 q 145 127 185 60 q 106 286 106 194 l 106 728 q 145 887 106 819 q 257 991 185 954 q 428 1028 329 1028 q 597 991 525 1028 q 710 887 669 954 q 750 728 750 819 l 575 728 q 537 837 575 799 q 428 875 499 875 q 318 837 357 875 q 279 728 279 799 l 279 286 q 318 177 279 215 q 428 139 357 139 q 537 177 499 139 q 575 286 575 215 l 750 286 q 710 127 750 194 q 597 23 669 60 q 428 -14 525 -14 m 318 1125 l 465 1319 l 651 1319 l 493 1125 l 318 1125 z "},"ć":{"ha":833,"x_min":104,"x_max":750,"o":"m 429 -14 q 258 23 331 -14 q 144 127 185 60 q 104 286 104 194 l 104 478 q 144 637 104 569 q 258 741 185 704 q 429 778 331 778 q 659 703 572 778 q 750 501 746 629 l 579 501 q 534 594 575 561 q 429 626 493 626 q 318 588 358 626 q 278 479 278 550 l 278 286 q 318 176 278 215 q 429 138 358 138 q 535 170 494 138 q 579 263 575 203 l 750 263 q 659 60 746 135 q 429 -14 572 -14 m 324 896 l 471 1090 l 657 1090 l 499 896 l 324 896 z "},"Ĉ":{"ha":833,"x_min":106,"x_max":750,"o":"m 428 -14 q 257 23 329 -14 q 145 127 185 60 q 106 286 106 194 l 106 728 q 145 887 106 819 q 257 991 185 954 q 428 1028 329 1028 q 597 991 525 1028 q 710 887 669 954 q 750 728 750 819 l 575 728 q 537 837 575 799 q 428 875 499 875 q 318 837 357 875 q 279 728 279 799 l 279 286 q 318 177 279 215 q 428 139 357 139 q 537 177 499 139 q 575 286 575 215 l 750 286 q 710 127 750 194 q 597 23 669 60 q 428 -14 525 -14 m 153 1125 l 343 1319 l 504 1319 l 694 1125 l 528 1125 l 422 1226 l 321 1125 l 153 1125 z "},"ĉ":{"ha":833,"x_min":104,"x_max":750,"o":"m 429 -14 q 258 23 331 -14 q 144 127 185 60 q 104 286 104 194 l 104 478 q 144 637 104 569 q 258 741 185 704 q 429 778 331 778 q 659 703 572 778 q 750 501 746 629 l 579 501 q 534 594 575 561 q 429 626 493 626 q 318 588 358 626 q 278 479 278 550 l 278 286 q 318 176 278 215 q 429 138 358 138 q 535 170 494 138 q 579 263 575 203 l 750 263 q 659 60 746 135 q 429 -14 572 -14 m 158 896 l 349 1090 l 510 1090 l 700 896 l 533 896 l 428 997 l 326 896 l 158 896 z "},"Ċ":{"ha":833,"x_min":106,"x_max":750,"o":"m 428 -14 q 257 23 329 -14 q 145 127 185 60 q 106 286 106 194 l 106 728 q 145 887 106 819 q 257 991 185 954 q 428 1028 329 1028 q 597 991 525 1028 q 710 887 669 954 q 750 728 750 819 l 575 728 q 537 837 575 799 q 428 875 499 875 q 318 837 357 875 q 279 728 279 799 l 279 286 q 318 177 279 215 q 428 139 357 139 q 537 177 499 139 q 575 286 575 215 l 750 286 q 710 127 750 194 q 597 23 669 60 q 428 -14 525 -14 m 424 1122 q 340 1149 371 1122 q 310 1222 310 1176 q 340 1295 310 1268 q 424 1322 371 1322 q 507 1295 476 1322 q 538 1222 538 1268 q 507 1149 538 1176 q 424 1122 476 1122 z "},"ċ":{"ha":833,"x_min":104,"x_max":750,"o":"m 429 -14 q 258 23 331 -14 q 144 127 185 60 q 104 286 104 194 l 104 478 q 144 637 104 569 q 258 741 185 704 q 429 778 331 778 q 659 703 572 778 q 750 501 746 629 l 579 501 q 534 594 575 561 q 429 626 493 626 q 318 588 358 626 q 278 479 278 550 l 278 286 q 318 176 278 215 q 429 138 358 138 q 535 170 494 138 q 579 263 575 203 l 750 263 q 659 60 746 135 q 429 -14 572 -14 m 429 892 q 346 919 376 892 q 315 992 315 946 q 346 1065 315 1038 q 429 1092 376 1092 q 513 1065 482 1092 q 543 992 543 1038 q 513 919 543 946 q 429 892 482 892 z "},"Č":{"ha":833,"x_min":106,"x_max":750,"o":"m 428 -14 q 257 23 329 -14 q 145 127 185 60 q 106 286 106 194 l 106 728 q 145 887 106 819 q 257 991 185 954 q 428 1028 329 1028 q 597 991 525 1028 q 710 887 669 954 q 750 728 750 819 l 575 728 q 537 837 575 799 q 428 875 499 875 q 318 837 357 875 q 279 728 279 799 l 279 286 q 318 177 279 215 q 428 139 357 139 q 537 177 499 139 q 575 286 575 215 l 750 286 q 710 127 750 194 q 597 23 669 60 q 428 -14 525 -14 m 343 1125 l 153 1319 l 319 1319 l 425 1218 l 526 1319 l 694 1319 l 504 1125 l 343 1125 z "},"č":{"ha":833,"x_min":104,"x_max":750,"o":"m 429 -14 q 258 23 331 -14 q 144 127 185 60 q 104 286 104 194 l 104 478 q 144 637 104 569 q 258 741 185 704 q 429 778 331 778 q 659 703 572 778 q 750 501 746 629 l 579 501 q 534 594 575 561 q 429 626 493 626 q 318 588 358 626 q 278 479 278 550 l 278 286 q 318 176 278 215 q 429 138 358 138 q 535 170 494 138 q 579 263 575 203 l 750 263 q 659 60 746 135 q 429 -14 572 -14 m 349 896 l 158 1090 l 325 1090 l 431 989 l 532 1090 l 700 1090 l 510 896 l 349 896 z "},"Ď":{"ha":833,"x_min":104,"x_max":743,"o":"m 104 0 l 104 1014 l 406 1014 q 584 974 508 1014 q 701 864 660 935 q 743 697 743 793 l 743 318 q 701 151 743 222 q 584 40 660 79 q 406 0 508 0 l 104 0 m 278 156 l 406 156 q 525 199 481 156 q 569 318 569 243 l 569 697 q 525 815 569 771 q 406 858 481 858 l 278 858 l 278 156 m 336 1125 l 146 1319 l 313 1319 l 418 1218 l 519 1319 l 688 1319 l 497 1125 l 336 1125 z "},"ď":{"ha":833,"x_min":69,"x_max":854,"o":"m 296 -14 q 131 63 192 -14 q 69 271 69 140 l 69 493 q 131 701 69 624 q 296 778 192 778 q 417 735 369 778 q 474 618 464 692 l 478 618 l 472 800 l 472 1014 l 638 1014 l 638 0 l 476 0 l 476 146 l 474 146 q 417 29 464 72 q 296 -14 369 -14 m 686 764 l 706 1014 l 854 1014 l 824 764 l 686 764 m 357 129 q 442 169 411 129 q 472 279 472 208 l 472 486 q 442 596 472 557 q 357 635 411 635 q 267 596 300 635 q 235 486 235 557 l 235 279 q 267 169 235 208 q 357 129 300 129 z "},"Đ":{"ha":833,"x_min":14,"x_max":743,"o":"m 104 0 l 104 457 l 14 457 l 14 578 l 104 578 l 104 1014 l 406 1014 q 584 974 508 1014 q 701 864 660 935 q 743 697 743 793 l 743 318 q 701 151 743 222 q 584 40 660 79 q 406 0 508 0 l 104 0 m 278 156 l 406 156 q 525 199 481 156 q 569 318 569 243 l 569 697 q 525 815 569 771 q 406 858 481 858 l 278 858 l 278 578 l 403 578 l 403 457 l 278 457 l 278 156 z "},"đ":{"ha":833,"x_min":100,"x_max":833,"o":"m 351 -14 q 168 65 236 -14 q 100 278 100 143 l 100 401 q 168 615 100 536 q 351 694 236 694 q 489 652 436 694 q 553 535 542 610 l 557 535 l 551 717 l 551 779 l 339 779 l 339 896 l 551 896 l 551 1014 l 725 1014 l 725 896 l 833 896 l 833 779 l 725 779 l 725 0 l 556 0 l 556 146 l 553 146 q 489 28 542 69 q 351 -14 436 -14 m 413 136 q 515 176 479 136 q 551 286 551 215 l 551 394 q 515 505 551 465 q 413 544 479 544 q 310 506 346 544 q 275 394 275 467 l 275 286 q 310 175 275 214 q 413 136 346 136 z "},"Ē":{"ha":833,"x_min":122,"x_max":731,"o":"m 122 0 l 122 1014 l 731 1014 l 731 861 l 293 861 l 293 597 l 682 597 l 682 450 l 293 450 l 293 153 l 731 153 l 731 0 l 122 0 m 188 1150 l 188 1283 l 665 1283 l 665 1150 l 188 1150 z "},"ē":{"ha":833,"x_min":97,"x_max":736,"o":"m 418 -14 q 249 24 321 -14 q 137 130 176 61 q 97 292 97 199 l 97 472 q 137 634 97 565 q 249 740 176 703 q 418 778 321 778 q 585 740 514 778 q 697 635 657 703 q 736 478 736 568 l 736 339 l 264 339 l 264 286 q 304 169 264 208 q 418 129 344 129 q 510 148 472 129 q 556 203 549 167 l 728 203 q 625 45 710 104 q 418 -14 540 -14 m 264 478 l 264 451 l 569 453 l 569 479 q 531 601 569 558 q 418 644 492 644 q 303 601 342 644 q 264 478 264 557 m 178 918 l 178 1051 l 656 1051 l 656 918 l 178 918 z "},"Ĕ":{"ha":833,"x_min":122,"x_max":731,"o":"m 122 0 l 122 1014 l 731 1014 l 731 861 l 293 861 l 293 597 l 682 597 l 682 450 l 293 450 l 293 153 l 731 153 l 731 0 l 122 0 m 426 1114 q 251 1170 318 1114 q 185 1319 185 1226 l 319 1319 q 349 1246 319 1274 q 426 1218 378 1218 q 505 1246 475 1218 q 535 1319 535 1274 l 669 1319 q 603 1170 669 1226 q 426 1114 536 1114 z "},"ĕ":{"ha":833,"x_min":97,"x_max":736,"o":"m 418 -14 q 249 24 321 -14 q 137 130 176 61 q 97 292 97 199 l 97 472 q 137 634 97 565 q 249 740 176 703 q 418 778 321 778 q 585 740 514 778 q 697 635 657 703 q 736 478 736 568 l 736 339 l 264 339 l 264 286 q 304 169 264 208 q 418 129 344 129 q 510 148 472 129 q 556 203 549 167 l 728 203 q 625 45 710 104 q 418 -14 540 -14 m 264 478 l 264 451 l 569 453 l 569 479 q 531 601 569 558 q 418 644 492 644 q 303 601 342 644 q 264 478 264 557 m 417 885 q 241 941 308 885 q 174 1090 174 997 l 308 1090 q 338 1017 308 1044 q 417 989 368 989 q 495 1017 465 989 q 525 1090 525 1044 l 660 1090 q 593 941 660 997 q 417 885 526 885 z "},"Ė":{"ha":833,"x_min":122,"x_max":731,"o":"m 122 0 l 122 1014 l 731 1014 l 731 861 l 293 861 l 293 597 l 682 597 l 682 450 l 293 450 l 293 153 l 731 153 l 731 0 l 122 0 m 426 1122 q 343 1149 374 1122 q 313 1222 313 1176 q 343 1295 313 1268 q 426 1322 374 1322 q 510 1295 479 1322 q 540 1222 540 1268 q 510 1149 540 1176 q 426 1122 479 1122 z "},"ė":{"ha":833,"x_min":97,"x_max":736,"o":"m 418 -14 q 249 24 321 -14 q 137 130 176 61 q 97 292 97 199 l 97 472 q 137 634 97 565 q 249 740 176 703 q 418 778 321 778 q 585 740 514 778 q 697 635 657 703 q 736 478 736 568 l 736 339 l 264 339 l 264 286 q 304 169 264 208 q 418 129 344 129 q 510 148 472 129 q 556 203 549 167 l 728 203 q 625 45 710 104 q 418 -14 540 -14 m 264 478 l 264 451 l 569 453 l 569 479 q 531 601 569 558 q 418 644 492 644 q 303 601 342 644 q 264 478 264 557 m 417 892 q 333 919 364 892 q 303 992 303 946 q 333 1065 303 1038 q 417 1092 364 1092 q 500 1065 469 1092 q 531 992 531 1038 q 500 919 531 946 q 417 892 469 892 z "},"Ę":{"ha":833,"x_min":122,"x_max":736,"o":"m 122 0 l 122 1014 l 731 1014 l 731 861 l 293 861 l 293 597 l 682 597 l 682 450 l 293 450 l 293 153 l 731 153 l 731 0 l 663 0 l 647 -14 q 576 -121 576 -75 q 595 -163 576 -146 q 646 -181 614 -181 l 736 -181 l 736 -300 l 604 -300 q 474 -260 522 -300 q 426 -157 426 -219 q 540 0 426 -71 l 122 0 z "},"ę":{"ha":833,"x_min":100,"x_max":733,"o":"m 507 -300 q 378 -260 426 -300 q 331 -157 331 -219 q 425 -14 331 -86 l 418 -14 q 249 24 321 -14 q 139 128 178 61 q 100 286 100 196 l 100 478 q 139 635 100 568 q 249 740 178 703 q 418 778 321 778 q 585 740 514 778 q 695 635 657 703 q 733 478 733 568 l 733 340 l 267 340 l 267 286 q 419 124 267 124 q 557 203 538 124 l 729 203 q 684 103 718 147 q 601 32 650 60 l 550 -14 q 481 -121 481 -75 q 499 -163 481 -146 q 550 -181 517 -181 l 640 -181 l 640 -300 l 507 -300 m 267 478 l 267 449 l 567 450 l 567 479 q 530 601 567 558 q 418 643 493 643 q 304 600 342 643 q 267 478 267 557 z "},"Ě":{"ha":833,"x_min":122,"x_max":731,"o":"m 122 0 l 122 1014 l 731 1014 l 731 861 l 293 861 l 293 597 l 682 597 l 682 450 l 293 450 l 293 153 l 731 153 l 731 0 l 122 0 m 346 1125 l 156 1319 l 322 1319 l 428 1218 l 529 1319 l 697 1319 l 507 1125 l 346 1125 z "},"ě":{"ha":833,"x_min":97,"x_max":736,"o":"m 418 -14 q 249 24 321 -14 q 137 130 176 61 q 97 292 97 199 l 97 472 q 137 634 97 565 q 249 740 176 703 q 418 778 321 778 q 585 740 514 778 q 697 635 657 703 q 736 478 736 568 l 736 339 l 264 339 l 264 286 q 304 169 264 208 q 418 129 344 129 q 510 148 472 129 q 556 203 549 167 l 728 203 q 625 45 710 104 q 418 -14 540 -14 m 264 478 l 264 451 l 569 453 l 569 479 q 531 601 569 558 q 418 644 492 644 q 303 601 342 644 q 264 478 264 557 m 336 896 l 146 1090 l 313 1090 l 418 989 l 519 1090 l 688 1090 l 497 896 l 336 896 z "},"Ĝ":{"ha":833,"x_min":100,"x_max":744,"o":"m 422 -14 q 251 23 324 -14 q 140 127 179 60 q 100 286 100 194 l 100 728 q 140 887 100 819 q 251 991 179 954 q 422 1028 324 1028 q 592 991 519 1028 q 704 887 664 954 q 744 728 744 819 l 569 728 q 531 837 569 799 q 422 875 493 875 q 313 838 351 875 q 274 729 274 800 l 274 286 q 313 176 274 215 q 422 138 351 138 q 531 176 493 138 q 569 286 569 215 l 569 399 l 397 399 l 397 549 l 744 549 l 744 286 q 704 127 744 194 q 592 23 664 60 q 422 -14 519 -14 m 146 1125 l 336 1319 l 497 1319 l 688 1125 l 521 1125 l 415 1226 l 314 1125 l 146 1125 z "},"ĝ":{"ha":833,"x_min":100,"x_max":726,"o":"m 211 -250 l 211 -106 l 426 -106 q 521 -73 488 -106 q 554 15 554 -40 l 554 61 l 557 181 q 481 81 533 117 q 354 46 429 46 q 169 124 238 46 q 100 338 100 203 l 100 486 q 169 699 100 619 q 354 778 238 778 q 481 742 429 778 q 557 642 533 707 l 557 764 l 726 764 l 726 11 q 647 -180 726 -110 q 429 -250 567 -250 l 211 -250 m 413 194 q 516 234 479 194 q 553 344 553 274 l 553 478 q 516 588 553 549 q 413 628 479 628 q 310 590 346 628 q 274 483 274 551 l 274 339 q 310 233 274 271 q 413 194 346 194 m 142 896 l 332 1090 l 493 1090 l 683 896 l 517 896 l 411 997 l 310 896 l 142 896 z "},"Ğ":{"ha":833,"x_min":100,"x_max":744,"o":"m 422 -14 q 251 23 324 -14 q 140 127 179 60 q 100 286 100 194 l 100 728 q 140 887 100 819 q 251 991 179 954 q 422 1028 324 1028 q 592 991 519 1028 q 704 887 664 954 q 744 728 744 819 l 569 728 q 531 837 569 799 q 422 875 493 875 q 313 838 351 875 q 274 729 274 800 l 274 286 q 313 176 274 215 q 422 138 351 138 q 531 176 493 138 q 569 286 569 215 l 569 399 l 397 399 l 397 549 l 744 549 l 744 286 q 704 127 744 194 q 592 23 664 60 q 422 -14 519 -14 m 417 1114 q 242 1170 308 1114 q 175 1319 175 1226 l 310 1319 q 339 1246 310 1274 q 417 1218 368 1218 q 495 1246 465 1218 q 525 1319 525 1274 l 660 1319 q 593 1170 660 1226 q 417 1114 526 1114 z "},"ğ":{"ha":833,"x_min":100,"x_max":726,"o":"m 211 -250 l 211 -106 l 426 -106 q 521 -73 488 -106 q 554 15 554 -40 l 554 61 l 557 181 q 481 81 533 117 q 354 46 429 46 q 169 124 238 46 q 100 338 100 203 l 100 486 q 169 699 100 619 q 354 778 238 778 q 481 742 429 778 q 557 642 533 707 l 557 764 l 726 764 l 726 11 q 647 -180 726 -110 q 429 -250 567 -250 l 211 -250 m 413 194 q 516 234 479 194 q 553 344 553 274 l 553 478 q 516 588 553 549 q 413 628 479 628 q 310 590 346 628 q 274 483 274 551 l 274 339 q 310 233 274 271 q 413 194 346 194 m 413 885 q 237 941 304 885 q 169 1090 169 997 l 304 1090 q 334 1017 304 1044 q 413 989 364 989 q 491 1017 461 989 q 521 1090 521 1044 l 656 1090 q 589 941 656 997 q 413 885 522 885 z "},"Ġ":{"ha":833,"x_min":100,"x_max":744,"o":"m 422 -14 q 251 23 324 -14 q 140 127 179 60 q 100 286 100 194 l 100 728 q 140 887 100 819 q 251 991 179 954 q 422 1028 324 1028 q 592 991 519 1028 q 704 887 664 954 q 744 728 744 819 l 569 728 q 531 837 569 799 q 422 875 493 875 q 313 838 351 875 q 274 729 274 800 l 274 286 q 313 176 274 215 q 422 138 351 138 q 531 176 493 138 q 569 286 569 215 l 569 399 l 397 399 l 397 549 l 744 549 l 744 286 q 704 127 744 194 q 592 23 664 60 q 422 -14 519 -14 m 417 1122 q 333 1149 364 1122 q 303 1222 303 1176 q 333 1295 303 1268 q 417 1322 364 1322 q 500 1295 469 1322 q 531 1222 531 1268 q 500 1149 531 1176 q 417 1122 469 1122 z "},"ġ":{"ha":833,"x_min":100,"x_max":726,"o":"m 211 -250 l 211 -106 l 426 -106 q 521 -73 488 -106 q 554 15 554 -40 l 554 61 l 557 181 q 481 81 533 117 q 354 46 429 46 q 169 124 238 46 q 100 338 100 203 l 100 486 q 169 699 100 619 q 354 778 238 778 q 481 742 429 778 q 557 642 533 707 l 557 764 l 726 764 l 726 11 q 647 -180 726 -110 q 429 -250 567 -250 l 211 -250 m 413 194 q 516 234 479 194 q 553 344 553 274 l 553 478 q 516 588 553 549 q 413 628 479 628 q 310 590 346 628 q 274 483 274 551 l 274 339 q 310 233 274 271 q 413 194 346 194 m 413 892 q 329 919 360 892 q 299 992 299 946 q 329 1065 299 1038 q 413 1092 360 1092 q 496 1065 465 1092 q 526 992 526 1038 q 496 919 526 946 q 413 892 465 892 z "},"Ģ":{"ha":833,"x_min":100,"x_max":744,"o":"m 422 -14 q 251 23 324 -14 q 140 127 179 60 q 100 286 100 194 l 100 728 q 140 887 100 819 q 251 991 179 954 q 422 1028 324 1028 q 592 991 519 1028 q 704 887 664 954 q 744 728 744 819 l 569 728 q 531 837 569 799 q 422 875 493 875 q 313 838 351 875 q 274 729 274 800 l 274 286 q 313 176 274 215 q 422 138 351 138 q 531 176 493 138 q 569 286 569 215 l 569 399 l 397 399 l 397 549 l 744 549 l 744 286 q 704 127 744 194 q 592 23 664 60 q 422 -14 519 -14 m 257 -333 l 389 -132 l 572 -132 l 418 -333 l 257 -333 z "},"ģ":{"ha":833,"x_min":100,"x_max":726,"o":"m 211 -250 l 211 -106 l 426 -106 q 521 -73 488 -106 q 554 15 554 -40 l 554 61 l 557 181 q 481 81 533 117 q 354 46 429 46 q 169 124 238 46 q 100 338 100 203 l 100 486 q 169 699 100 619 q 354 778 238 778 q 481 742 429 778 q 557 642 533 707 l 557 764 l 726 764 l 726 11 q 647 -180 726 -110 q 429 -250 567 -250 l 211 -250 m 413 194 q 516 234 479 194 q 553 344 553 274 l 553 478 q 516 588 553 549 q 413 628 479 628 q 310 590 346 628 q 274 483 274 551 l 274 339 q 310 233 274 271 q 413 194 346 194 m 593 1222 l 482 896 l 271 896 l 451 1222 l 593 1222 z "},"Ĥ":{"ha":833,"x_min":107,"x_max":726,"o":"m 107 0 l 107 1014 l 281 1014 l 281 603 l 553 603 l 553 1014 l 726 1014 l 726 0 l 553 0 l 553 446 l 281 446 l 281 0 l 107 0 m 146 1125 l 336 1319 l 497 1319 l 688 1125 l 521 1125 l 415 1226 l 314 1125 l 146 1125 z "},"ĥ":{"ha":833,"x_min":-76,"x_max":729,"o":"m 107 0 l 107 1014 l 281 1014 l 281 764 l 276 622 q 344 736 290 694 q 482 778 399 778 q 662 703 594 778 q 729 501 729 628 l 729 0 l 556 0 l 556 481 q 519 590 556 551 q 419 628 482 628 q 317 589 354 628 q 281 478 281 550 l 281 0 l 107 0 m -76 1146 l 114 1340 l 275 1340 l 465 1146 l 299 1146 l 193 1247 l 92 1146 l -76 1146 z "},"Ħ":{"ha":833,"x_min":14,"x_max":819,"o":"m 107 0 l 107 729 l 14 729 l 14 850 l 107 850 l 107 1014 l 281 1014 l 281 850 l 553 850 l 553 1014 l 726 1014 l 726 850 l 819 850 l 819 729 l 726 729 l 726 0 l 553 0 l 553 446 l 281 446 l 281 0 l 107 0 m 281 603 l 553 603 l 553 729 l 281 729 l 281 603 z "},"ħ":{"ha":833,"x_min":0,"x_max":729,"o":"m 0 779 l 0 896 l 107 896 l 107 1014 l 281 1014 l 281 896 l 494 896 l 494 779 l 281 779 l 281 681 l 276 535 l 279 535 q 344 652 292 610 q 482 694 397 694 q 662 619 594 694 q 729 418 729 544 l 729 0 l 556 0 l 556 400 q 519 507 556 469 q 418 544 482 544 q 317 506 354 544 q 281 394 281 467 l 281 0 l 107 0 l 107 779 l 0 779 z "},"Ĩ":{"ha":833,"x_min":125,"x_max":708,"o":"m 125 0 l 125 157 l 329 157 l 329 857 l 125 857 l 125 1014 l 708 1014 l 708 857 l 504 857 l 504 157 l 708 157 l 708 0 l 125 0 m 514 1119 q 444 1133 471 1119 q 399 1165 417 1147 q 365 1195 381 1182 q 326 1208 349 1208 q 285 1163 285 1208 l 285 1126 l 178 1126 l 178 1172 q 217 1283 178 1240 q 319 1325 256 1325 q 390 1311 363 1325 q 435 1280 417 1297 q 469 1249 453 1263 q 507 1236 485 1236 q 549 1279 549 1236 l 549 1318 l 656 1318 l 656 1272 q 617 1162 656 1204 q 514 1119 578 1119 z "},"ĩ":{"ha":833,"x_min":106,"x_max":775,"o":"m 106 0 l 106 157 l 367 157 l 367 607 l 133 607 l 133 764 l 540 764 l 540 157 l 775 157 l 775 0 l 106 0 m 539 890 q 469 904 496 890 q 424 935 442 918 q 390 966 406 953 q 351 979 374 979 q 310 933 310 979 l 310 897 l 203 897 l 203 943 q 242 1053 203 1011 q 344 1096 281 1096 q 415 1082 388 1096 q 460 1051 442 1068 q 494 1020 478 1033 q 532 1007 510 1007 q 574 1050 574 1007 l 574 1089 l 681 1089 l 681 1043 q 642 933 681 975 q 539 890 603 890 z "},"Ī":{"ha":833,"x_min":125,"x_max":708,"o":"m 125 0 l 125 157 l 329 157 l 329 857 l 125 857 l 125 1014 l 708 1014 l 708 857 l 504 857 l 504 157 l 708 157 l 708 0 l 125 0 m 178 1150 l 178 1283 l 656 1283 l 656 1150 l 178 1150 z "},"ī":{"ha":833,"x_min":106,"x_max":775,"o":"m 106 0 l 106 157 l 367 157 l 367 607 l 133 607 l 133 764 l 540 764 l 540 157 l 775 157 l 775 0 l 106 0 m 203 918 l 203 1051 l 681 1051 l 681 918 l 203 918 z "},"Ĭ":{"ha":833,"x_min":125,"x_max":708,"o":"m 125 0 l 125 157 l 329 157 l 329 857 l 125 857 l 125 1014 l 708 1014 l 708 857 l 504 857 l 504 157 l 708 157 l 708 0 l 125 0 m 417 1114 q 242 1170 308 1114 q 175 1319 175 1226 l 310 1319 q 339 1246 310 1274 q 417 1218 368 1218 q 495 1246 465 1218 q 525 1319 525 1274 l 660 1319 q 593 1170 660 1226 q 417 1114 526 1114 z "},"ĭ":{"ha":833,"x_min":106,"x_max":775,"o":"m 106 0 l 106 157 l 367 157 l 367 607 l 133 607 l 133 764 l 540 764 l 540 157 l 775 157 l 775 0 l 106 0 m 442 885 q 266 941 333 885 q 199 1090 199 997 l 333 1090 q 363 1017 333 1044 q 442 989 393 989 q 520 1017 490 989 q 550 1090 550 1044 l 685 1090 q 618 941 685 997 q 442 885 551 885 z "},"Į":{"ha":833,"x_min":125,"x_max":708,"o":"m 125 0 l 125 157 l 329 157 l 329 857 l 125 857 l 125 1014 l 708 1014 l 708 857 l 504 857 l 504 157 l 708 157 l 708 0 l 476 0 l 461 -14 q 390 -121 390 -75 q 409 -163 390 -146 q 460 -181 428 -181 l 550 -181 l 550 -300 l 418 -300 q 288 -260 336 -300 q 240 -157 240 -219 q 354 0 240 -71 l 125 0 z "},"į":{"ha":833,"x_min":106,"x_max":775,"o":"m 442 892 q 358 919 389 892 q 328 992 328 946 q 358 1065 328 1038 q 442 1092 389 1092 q 525 1065 494 1092 q 556 992 556 1038 q 525 919 556 946 q 442 892 494 892 m 106 0 l 106 157 l 367 157 l 367 607 l 133 607 l 133 764 l 540 764 l 540 157 l 775 157 l 775 0 l 501 0 l 486 -14 q 415 -121 415 -75 q 433 -163 415 -146 q 485 -181 451 -181 l 575 -181 l 575 -300 l 442 -300 q 313 -260 361 -300 q 265 -157 265 -219 q 379 0 265 -71 l 106 0 z "},"İ":{"ha":833,"x_min":125,"x_max":708,"o":"m 125 0 l 125 157 l 329 157 l 329 857 l 125 857 l 125 1014 l 708 1014 l 708 857 l 504 857 l 504 157 l 708 157 l 708 0 l 125 0 m 417 1122 q 333 1149 364 1122 q 303 1222 303 1176 q 333 1295 303 1268 q 417 1322 364 1322 q 500 1295 469 1322 q 531 1222 531 1268 q 500 1149 531 1176 q 417 1122 469 1122 z "},"ı":{"ha":833,"x_min":106,"x_max":775,"o":"m 106 0 l 106 157 l 367 157 l 367 607 l 133 607 l 133 764 l 540 764 l 540 157 l 775 157 l 775 0 l 106 0 z "},"Ĵ":{"ha":833,"x_min":42,"x_max":896,"o":"m 375 -14 q 131 71 221 -14 q 42 300 42 156 l 215 300 q 258 181 215 225 q 375 138 300 138 q 492 181 449 138 q 535 299 535 224 l 535 1014 l 708 1014 l 708 299 q 619 70 708 154 q 375 -14 529 -14 m 354 1125 l 544 1319 l 706 1319 l 896 1125 l 729 1125 l 624 1226 l 522 1125 l 354 1125 z "},"ĵ":{"ha":833,"x_min":106,"x_max":807,"o":"m 113 -250 l 113 -93 l 314 -93 q 419 -53 381 -93 q 458 54 458 -14 l 458 607 l 106 607 l 106 764 l 632 764 l 632 50 q 549 -169 632 -89 q 324 -250 465 -250 l 113 -250 m 265 896 l 456 1090 l 617 1090 l 807 896 l 640 896 l 535 997 l 433 896 l 265 896 z "},"Ķ":{"ha":833,"x_min":106,"x_max":790,"o":"m 106 0 l 106 1014 l 279 1014 l 279 600 l 399 600 l 592 1014 l 779 1014 l 551 531 l 790 0 l 597 0 l 397 449 l 279 449 l 279 0 l 106 0 m 251 -333 l 383 -132 l 567 -132 l 413 -333 l 251 -333 z "},"ķ":{"ha":833,"x_min":114,"x_max":793,"o":"m 114 0 l 114 1014 l 288 1014 l 288 464 l 410 464 l 592 764 l 785 764 l 558 394 l 793 0 l 596 0 l 410 317 l 288 317 l 288 0 l 114 0 m 251 -333 l 383 -132 l 567 -132 l 413 -333 l 251 -333 z "},"ĸ":{"ha":833,"x_min":119,"x_max":800,"o":"m 119 0 l 119 764 l 293 764 l 293 469 l 415 469 l 590 764 l 786 764 l 564 394 l 800 0 l 601 0 l 415 313 l 293 313 l 293 0 l 119 0 z "},"Ĺ":{"ha":833,"x_min":150,"x_max":772,"o":"m 168 0 l 168 1014 l 342 1014 l 342 157 l 772 157 l 772 0 l 168 0 m 150 1125 l 297 1319 l 483 1319 l 325 1125 l 150 1125 z "},"ĺ":{"ha":833,"x_min":38,"x_max":776,"o":"m 540 0 q 358 68 426 0 q 289 247 289 136 l 289 857 l 38 857 l 38 1014 l 463 1014 l 463 251 q 487 183 463 208 q 553 157 511 157 l 776 157 l 776 0 l 540 0 m 253 1125 l 400 1319 l 586 1319 l 428 1125 l 253 1125 z "},"Ļ":{"ha":833,"x_min":168,"x_max":772,"o":"m 168 0 l 168 1014 l 342 1014 l 342 157 l 772 157 l 772 0 l 168 0 m 307 -333 l 439 -132 l 622 -132 l 468 -333 l 307 -333 z "},"ļ":{"ha":833,"x_min":38,"x_max":776,"o":"m 540 0 q 358 68 426 0 q 289 247 289 136 l 289 857 l 38 857 l 38 1014 l 463 1014 l 463 251 q 487 183 463 208 q 553 157 511 157 l 776 157 l 776 0 l 540 0 m 279 -333 l 411 -132 l 594 -132 l 440 -333 l 279 -333 z "},"Ľ":{"ha":833,"x_min":168,"x_max":772,"o":"m 168 0 l 168 1014 l 342 1014 l 342 157 l 772 157 l 772 0 l 168 0 m 476 764 l 496 1014 l 644 1014 l 614 764 l 476 764 z "},"ľ":{"ha":833,"x_min":38,"x_max":776,"o":"m 540 0 q 358 68 426 0 q 289 247 289 136 l 289 857 l 38 857 l 38 1014 l 463 1014 l 463 251 q 487 183 463 208 q 553 157 511 157 l 776 157 l 776 0 l 540 0 m 579 764 l 599 1014 l 747 1014 l 717 764 l 579 764 z "},"Ŀ":{"ha":833,"x_min":168,"x_max":796,"o":"m 168 0 l 168 1014 l 342 1014 l 342 157 l 772 157 l 772 0 l 168 0 m 667 368 q 573 403 608 368 q 538 496 538 439 q 573 589 538 553 q 667 625 608 625 q 760 589 725 625 q 796 496 796 553 q 760 403 796 439 q 667 368 725 368 z "},"ŀ":{"ha":833,"x_min":10,"x_max":907,"o":"m 513 0 q 330 68 399 0 q 261 247 261 136 l 261 857 l 10 857 l 10 1014 l 435 1014 l 435 251 q 459 183 435 208 q 525 157 483 157 l 749 157 l 749 0 l 513 0 m 778 368 q 684 403 719 368 q 649 496 649 439 q 684 589 649 553 q 778 625 719 625 q 872 589 836 625 q 907 496 907 553 q 872 403 907 439 q 778 368 836 368 z "},"Ł":{"ha":833,"x_min":28,"x_max":781,"o":"m 176 0 l 176 404 l 28 319 l 28 479 l 176 564 l 176 1014 l 350 1014 l 350 664 l 550 778 l 550 618 l 350 504 l 350 157 l 781 157 l 781 0 l 176 0 z "},"ł":{"ha":833,"x_min":38,"x_max":776,"o":"m 139 319 l 139 479 l 289 565 l 289 857 l 38 857 l 38 1014 l 463 1014 l 463 665 l 661 778 l 661 618 l 463 504 l 463 251 q 487 183 463 208 q 553 157 511 157 l 776 157 l 776 0 l 540 0 q 358 68 426 0 q 289 247 289 136 l 289 406 l 139 319 z "},"Ń":{"ha":833,"x_min":100,"x_max":733,"o":"m 100 0 l 100 1014 l 313 1014 l 594 194 q 586 299 590 239 q 578 422 582 360 q 575 533 575 485 l 575 1014 l 733 1014 l 733 0 l 521 0 l 242 819 q 249 722 244 779 q 256 606 253 665 q 258 496 258 546 l 258 0 l 100 0 m 311 1125 l 458 1319 l 644 1319 l 486 1125 l 311 1125 z "},"ń":{"ha":833,"x_min":107,"x_max":729,"o":"m 107 0 l 107 764 l 276 764 l 276 621 q 344 735 290 693 q 482 778 399 778 q 662 703 594 778 q 729 501 729 628 l 729 0 l 556 0 l 556 481 q 519 590 556 551 q 419 628 482 628 q 317 589 354 628 q 281 478 281 550 l 281 0 l 107 0 m 318 896 l 465 1090 l 651 1090 l 493 896 l 318 896 z "},"Ņ":{"ha":833,"x_min":100,"x_max":733,"o":"m 100 0 l 100 1014 l 313 1014 l 594 194 q 586 299 590 239 q 578 422 582 360 q 575 533 575 485 l 575 1014 l 733 1014 l 733 0 l 521 0 l 242 819 q 249 722 244 779 q 256 606 253 665 q 258 496 258 546 l 258 0 l 100 0 m 251 -333 l 383 -132 l 567 -132 l 413 -333 l 251 -333 z "},"ņ":{"ha":833,"x_min":107,"x_max":729,"o":"m 107 0 l 107 764 l 276 764 l 276 621 q 344 735 290 693 q 482 778 399 778 q 662 703 594 778 q 729 501 729 628 l 729 0 l 556 0 l 556 481 q 519 590 556 551 q 419 628 482 628 q 317 589 354 628 q 281 478 281 550 l 281 0 l 107 0 m 251 -333 l 383 -132 l 567 -132 l 413 -333 l 251 -333 z "},"Ň":{"ha":833,"x_min":100,"x_max":733,"o":"m 100 0 l 100 1014 l 313 1014 l 594 194 q 586 299 590 239 q 578 422 582 360 q 575 533 575 485 l 575 1014 l 733 1014 l 733 0 l 521 0 l 242 819 q 249 722 244 779 q 256 606 253 665 q 258 496 258 546 l 258 0 l 100 0 m 336 1125 l 146 1319 l 313 1319 l 418 1218 l 519 1319 l 688 1319 l 497 1125 l 336 1125 z "},"ň":{"ha":833,"x_min":107,"x_max":729,"o":"m 107 0 l 107 764 l 276 764 l 276 621 q 344 735 290 693 q 482 778 399 778 q 662 703 594 778 q 729 501 729 628 l 729 0 l 556 0 l 556 481 q 519 590 556 551 q 419 628 482 628 q 317 589 354 628 q 281 478 281 550 l 281 0 l 107 0 m 343 896 l 153 1090 l 319 1090 l 425 989 l 526 1090 l 694 1090 l 504 896 l 343 896 z "},"ŉ":{"ha":833,"x_min":-26,"x_max":729,"o":"m 107 0 l 107 764 l 276 764 l 276 621 q 344 735 290 693 q 482 778 399 778 q 662 703 594 778 q 729 501 729 628 l 729 0 l 556 0 l 556 481 q 519 590 556 551 q 419 628 482 628 q 317 589 354 628 q 281 478 281 550 l 281 0 l 107 0 m -26 896 l 106 1097 l 289 1097 l 135 896 l -26 896 z "},"Ŋ":{"ha":833,"x_min":100,"x_max":733,"o":"m 342 -250 l 342 -85 l 428 -85 q 524 -51 489 -85 q 558 42 558 -18 l 242 819 q 249 722 244 779 q 256 606 253 665 q 258 496 258 546 l 258 0 l 100 0 l 100 1014 l 313 1014 l 594 317 q 586 422 590 361 q 578 544 582 482 q 575 656 575 607 l 575 1014 l 733 1014 l 733 29 q 694 -117 733 -54 q 583 -215 654 -179 q 419 -250 513 -250 l 342 -250 z "},"ŋ":{"ha":833,"x_min":108,"x_max":728,"o":"m 339 -250 l 339 -85 l 424 -85 q 519 -51 485 -85 q 554 42 554 -18 l 554 483 q 518 590 554 553 q 418 628 482 628 q 318 589 354 628 q 282 478 282 550 l 282 0 l 108 0 l 108 764 l 278 764 l 278 618 l 281 618 q 344 735 292 693 q 482 778 397 778 q 661 703 594 778 q 728 501 728 628 l 728 29 q 688 -117 728 -54 q 578 -215 649 -179 q 415 -250 508 -250 l 339 -250 z "},"Ō":{"ha":833,"x_min":100,"x_max":733,"o":"m 417 -14 q 185 69 271 -14 q 100 300 100 153 l 100 714 q 185 944 100 861 q 417 1028 271 1028 q 648 944 563 1028 q 733 715 733 861 l 733 300 q 648 69 733 153 q 417 -14 563 -14 m 417 139 q 524 177 488 139 q 560 286 560 215 l 560 728 q 524 837 560 799 q 417 875 488 875 q 310 837 346 875 q 274 728 274 799 l 274 286 q 310 177 274 215 q 417 139 346 139 m 178 1150 l 178 1283 l 656 1283 l 656 1150 l 178 1150 z "},"ō":{"ha":833,"x_min":97,"x_max":736,"o":"m 417 -12 q 183 70 269 -12 q 97 293 97 153 l 97 471 q 183 694 97 613 q 417 776 269 776 q 650 694 564 776 q 736 471 736 613 l 736 293 q 650 70 736 153 q 417 -12 564 -12 m 417 139 q 524 177 486 139 q 563 288 563 215 l 563 476 q 524 587 563 549 q 417 625 486 625 q 309 587 347 625 q 271 476 271 549 l 271 288 q 309 177 271 215 q 417 139 347 139 m 178 918 l 178 1051 l 656 1051 l 656 918 l 178 918 z "},"Ŏ":{"ha":833,"x_min":100,"x_max":733,"o":"m 417 -14 q 185 69 271 -14 q 100 300 100 153 l 100 714 q 185 944 100 861 q 417 1028 271 1028 q 648 944 563 1028 q 733 715 733 861 l 733 300 q 648 69 733 153 q 417 -14 563 -14 m 417 139 q 524 177 488 139 q 560 286 560 215 l 560 728 q 524 837 560 799 q 417 875 488 875 q 310 837 346 875 q 274 728 274 799 l 274 286 q 310 177 274 215 q 417 139 346 139 m 417 1114 q 242 1170 308 1114 q 175 1319 175 1226 l 310 1319 q 339 1246 310 1274 q 417 1218 368 1218 q 495 1246 465 1218 q 525 1319 525 1274 l 660 1319 q 593 1170 660 1226 q 417 1114 526 1114 z "},"ŏ":{"ha":833,"x_min":97,"x_max":736,"o":"m 417 -12 q 183 70 269 -12 q 97 293 97 153 l 97 471 q 183 694 97 613 q 417 776 269 776 q 650 694 564 776 q 736 471 736 613 l 736 293 q 650 70 736 153 q 417 -12 564 -12 m 417 139 q 524 177 486 139 q 563 288 563 215 l 563 476 q 524 587 563 549 q 417 625 486 625 q 309 587 347 625 q 271 476 271 549 l 271 288 q 309 177 271 215 q 417 139 347 139 m 417 885 q 241 941 308 885 q 174 1090 174 997 l 308 1090 q 338 1017 308 1044 q 417 989 368 989 q 495 1017 465 989 q 525 1090 525 1044 l 660 1090 q 593 941 660 997 q 417 885 526 885 z "},"Ő":{"ha":833,"x_min":100,"x_max":768,"o":"m 417 -14 q 185 69 271 -14 q 100 300 100 153 l 100 714 q 185 944 100 861 q 417 1028 271 1028 q 648 944 563 1028 q 733 715 733 861 l 733 300 q 648 69 733 153 q 417 -14 563 -14 m 417 139 q 524 177 488 139 q 560 286 560 215 l 560 728 q 524 837 560 799 q 417 875 488 875 q 310 837 346 875 q 274 728 274 799 l 274 286 q 310 177 274 215 q 417 139 346 139 m 450 1125 l 599 1319 l 768 1319 l 608 1125 l 450 1125 m 169 1125 l 319 1319 l 488 1319 l 328 1125 l 169 1125 z "},"ő":{"ha":833,"x_min":97,"x_max":768,"o":"m 417 -12 q 183 70 269 -12 q 97 293 97 153 l 97 471 q 183 694 97 613 q 417 776 269 776 q 650 694 564 776 q 736 471 736 613 l 736 293 q 650 70 736 153 q 417 -12 564 -12 m 417 139 q 524 177 486 139 q 563 288 563 215 l 563 476 q 524 587 563 549 q 417 625 486 625 q 309 587 347 625 q 271 476 271 549 l 271 288 q 309 177 271 215 q 417 139 347 139 m 450 896 l 599 1090 l 768 1090 l 608 896 l 450 896 m 169 896 l 319 1090 l 488 1090 l 328 896 l 169 896 z "},"Œ":{"ha":833,"x_min":47,"x_max":803,"o":"m 254 -8 q 102 64 157 -8 q 47 263 47 136 l 47 757 q 102 956 47 883 q 254 1028 157 1028 q 337 1008 304 1028 q 387 959 369 988 q 407 903 404 931 l 414 903 l 414 1014 l 803 1014 l 803 865 l 569 865 l 569 596 l 768 596 l 768 446 l 569 446 l 569 150 l 803 150 l 803 0 l 414 0 l 414 117 l 407 117 q 387 60 404 89 q 337 11 369 31 q 254 -8 304 -8 m 311 139 q 383 172 357 139 q 410 263 410 204 l 410 757 q 383 848 410 815 q 311 881 357 881 q 239 847 265 881 q 213 757 213 814 l 213 263 q 239 172 213 204 q 311 139 265 139 z "},"œ":{"ha":833,"x_min":49,"x_max":785,"o":"m 250 -14 q 103 44 158 -14 q 49 200 49 103 l 49 564 q 103 719 49 661 q 250 778 158 778 q 338 760 303 778 q 390 718 372 743 q 413 671 408 693 l 421 671 q 442 718 424 693 q 494 760 460 743 q 583 778 529 778 q 730 719 675 778 q 785 564 785 661 l 785 347 l 488 347 l 488 200 q 508 134 488 158 q 564 110 529 110 q 617 130 597 110 q 640 186 638 150 l 783 186 q 723 40 778 94 q 583 -14 668 -14 q 494 3 529 -14 q 442 46 460 21 q 421 93 424 71 l 413 93 q 390 46 408 71 q 338 3 372 21 q 250 -14 303 -14 m 269 110 q 326 133 306 110 q 346 200 346 157 l 346 564 q 326 631 346 607 q 269 654 306 654 q 213 630 233 654 q 192 564 192 606 l 192 200 q 213 134 192 158 q 269 110 233 110 m 488 454 l 642 454 l 642 564 q 622 631 642 607 q 564 654 601 654 q 508 630 529 654 q 488 564 488 606 l 488 454 z "},"Ŕ":{"ha":833,"x_min":107,"x_max":774,"o":"m 107 0 l 107 1014 l 426 1014 q 602 976 528 1014 q 718 872 676 939 q 760 713 760 804 q 710 535 760 611 q 575 428 660 460 l 774 0 l 583 0 l 406 403 l 279 403 l 279 0 l 107 0 m 279 556 l 426 556 q 542 596 500 556 q 583 707 583 636 q 541 819 583 778 q 426 861 499 861 l 279 861 l 279 556 m 311 1125 l 458 1319 l 644 1319 l 486 1125 l 311 1125 z "},"ŕ":{"ha":833,"x_min":135,"x_max":763,"o":"m 135 0 l 135 764 l 304 764 l 304 615 q 373 734 318 690 q 515 778 428 778 q 697 703 632 778 q 763 493 763 628 l 763 421 l 589 421 l 589 485 q 553 591 589 554 q 450 628 517 628 q 344 586 381 628 q 308 468 308 544 l 308 0 l 135 0 m 339 896 l 486 1090 l 672 1090 l 514 896 l 339 896 z "},"Ŗ":{"ha":833,"x_min":107,"x_max":774,"o":"m 107 0 l 107 1014 l 426 1014 q 602 976 528 1014 q 718 872 676 939 q 760 713 760 804 q 710 535 760 611 q 575 428 660 460 l 774 0 l 583 0 l 406 403 l 279 403 l 279 0 l 107 0 m 279 556 l 426 556 q 542 596 500 556 q 583 707 583 636 q 541 819 583 778 q 426 861 499 861 l 279 861 l 279 556 m 251 -333 l 383 -132 l 567 -132 l 413 -333 l 251 -333 z "},"ŗ":{"ha":833,"x_min":36,"x_max":763,"o":"m 135 0 l 135 764 l 304 764 l 304 615 q 373 734 318 690 q 515 778 428 778 q 697 703 632 778 q 763 493 763 628 l 763 421 l 589 421 l 589 485 q 553 591 589 554 q 450 628 517 628 q 344 586 381 628 q 308 468 308 544 l 308 0 l 135 0 m 36 -333 l 168 -132 l 351 -132 l 197 -333 l 36 -333 z "},"Ř":{"ha":833,"x_min":107,"x_max":774,"o":"m 107 0 l 107 1014 l 426 1014 q 602 976 528 1014 q 718 872 676 939 q 760 713 760 804 q 710 535 760 611 q 575 428 660 460 l 774 0 l 583 0 l 406 403 l 279 403 l 279 0 l 107 0 m 279 556 l 426 556 q 542 596 500 556 q 583 707 583 636 q 541 819 583 778 q 426 861 499 861 l 279 861 l 279 556 m 336 1125 l 146 1319 l 313 1319 l 418 1218 l 519 1319 l 688 1319 l 497 1125 l 336 1125 z "},"ř":{"ha":833,"x_min":135,"x_max":763,"o":"m 135 0 l 135 764 l 304 764 l 304 615 q 373 734 318 690 q 515 778 428 778 q 697 703 632 778 q 763 493 763 628 l 763 421 l 589 421 l 589 485 q 553 591 589 554 q 450 628 517 628 q 344 586 381 628 q 308 468 308 544 l 308 0 l 135 0 m 364 896 l 174 1090 l 340 1090 l 446 989 l 547 1090 l 715 1090 l 525 896 l 364 896 z "},"Ś":{"ha":833,"x_min":79,"x_max":754,"o":"m 421 -14 q 241 22 318 -14 q 122 126 164 58 q 79 286 79 193 l 250 286 q 297 178 250 218 q 421 138 343 138 q 540 177 496 138 q 583 283 583 217 q 555 372 583 333 q 474 424 526 410 l 338 458 q 164 563 228 486 q 100 744 100 639 q 185 951 100 874 q 411 1028 269 1028 q 578 993 507 1028 q 689 895 650 958 q 728 747 728 832 l 558 747 q 518 842 558 806 q 411 878 478 878 q 308 842 346 878 q 269 750 269 807 q 297 672 269 703 q 372 628 324 642 l 513 593 q 690 482 625 565 q 754 283 754 399 q 713 126 754 193 q 597 23 672 60 q 421 -14 522 -14 m 311 1125 l 458 1319 l 644 1319 l 486 1125 l 311 1125 z "},"ś":{"ha":833,"x_min":90,"x_max":743,"o":"m 385 -12 q 169 49 249 -12 q 90 217 90 111 l 261 217 q 294 149 261 172 q 385 125 326 125 l 446 125 q 542 149 508 125 q 576 217 576 172 q 553 278 576 258 q 481 306 529 299 l 290 331 q 149 401 199 343 q 100 553 100 460 q 172 719 100 661 q 381 776 244 776 l 444 776 q 650 718 572 776 q 731 563 728 660 l 558 563 q 526 620 557 599 q 444 642 496 642 l 381 642 q 296 619 325 642 q 267 557 267 596 q 288 506 267 522 q 351 485 310 489 l 531 460 q 690 385 636 447 q 743 219 743 324 q 667 48 743 108 q 446 -12 592 -12 l 385 -12 m 311 896 l 458 1090 l 644 1090 l 486 896 l 311 896 z "},"Ŝ":{"ha":833,"x_min":79,"x_max":754,"o":"m 421 -14 q 241 22 318 -14 q 122 126 164 58 q 79 286 79 193 l 250 286 q 297 178 250 218 q 421 138 343 138 q 540 177 496 138 q 583 283 583 217 q 555 372 583 333 q 474 424 526 410 l 338 458 q 164 563 228 486 q 100 744 100 639 q 185 951 100 874 q 411 1028 269 1028 q 578 993 507 1028 q 689 895 650 958 q 728 747 728 832 l 558 747 q 518 842 558 806 q 411 878 478 878 q 308 842 346 878 q 269 750 269 807 q 297 672 269 703 q 372 628 324 642 l 513 593 q 690 482 625 565 q 754 283 754 399 q 713 126 754 193 q 597 23 672 60 q 421 -14 522 -14 m 146 1125 l 336 1319 l 497 1319 l 688 1125 l 521 1125 l 415 1226 l 314 1125 l 146 1125 z "},"ŝ":{"ha":833,"x_min":90,"x_max":743,"o":"m 385 -12 q 169 49 249 -12 q 90 217 90 111 l 261 217 q 294 149 261 172 q 385 125 326 125 l 446 125 q 542 149 508 125 q 576 217 576 172 q 553 278 576 258 q 481 306 529 299 l 290 331 q 149 401 199 343 q 100 553 100 460 q 172 719 100 661 q 381 776 244 776 l 444 776 q 650 718 572 776 q 731 563 728 660 l 558 563 q 526 620 557 599 q 444 642 496 642 l 381 642 q 296 619 325 642 q 267 557 267 596 q 288 506 267 522 q 351 485 310 489 l 531 460 q 690 385 636 447 q 743 219 743 324 q 667 48 743 108 q 446 -12 592 -12 l 385 -12 m 146 896 l 336 1090 l 497 1090 l 688 896 l 521 896 l 415 997 l 314 896 l 146 896 z "},"Ş":{"ha":833,"x_min":79,"x_max":754,"o":"m 276 -300 l 276 -211 l 382 -211 q 435 -195 415 -211 q 456 -161 456 -179 q 415 -114 456 -132 q 300 -96 374 -96 l 335 -7 q 148 90 217 14 q 79 286 79 167 l 250 286 q 297 178 250 218 q 421 138 343 138 q 540 177 496 138 q 583 283 583 217 q 555 372 583 333 q 474 424 526 410 l 338 458 q 164 563 228 486 q 100 744 100 639 q 185 951 100 874 q 411 1028 269 1028 q 578 993 507 1028 q 689 895 650 958 q 728 747 728 832 l 558 747 q 518 842 558 806 q 411 878 478 878 q 308 842 346 878 q 269 750 269 807 q 297 672 269 703 q 372 628 324 642 l 513 593 q 690 482 625 565 q 754 283 754 399 q 713 126 754 193 q 599 23 672 60 q 426 -14 525 -14 l 414 -51 q 496 -70 453 -56 q 568 -111 539 -85 q 597 -178 597 -137 q 547 -263 597 -226 q 415 -300 497 -300 l 276 -300 z "},"ş":{"ha":833,"x_min":90,"x_max":743,"o":"m 286 -300 l 286 -211 l 392 -211 q 445 -195 425 -211 q 465 -161 465 -179 q 424 -114 465 -132 q 310 -96 383 -96 l 343 -11 q 158 59 225 -1 q 90 217 90 119 l 261 217 q 294 149 261 172 q 385 125 326 125 l 446 125 q 542 149 508 125 q 576 217 576 172 q 553 278 576 258 q 481 306 529 299 l 290 331 q 149 401 199 343 q 100 553 100 460 q 172 719 100 661 q 381 776 244 776 l 444 776 q 650 718 572 776 q 731 563 728 660 l 558 563 q 526 620 557 599 q 444 642 496 642 l 381 642 q 296 619 325 642 q 267 557 267 596 q 288 506 267 522 q 351 485 310 489 l 531 460 q 690 385 636 447 q 743 219 743 324 q 667 48 743 108 q 446 -12 592 -12 l 436 -12 l 424 -51 q 506 -70 463 -56 q 578 -111 549 -85 q 608 -178 608 -137 q 558 -263 608 -226 q 425 -300 507 -300 l 286 -300 z "},"Š":{"ha":833,"x_min":79,"x_max":754,"o":"m 421 -14 q 241 22 318 -14 q 122 126 164 58 q 79 286 79 193 l 250 286 q 297 178 250 218 q 421 138 343 138 q 540 177 496 138 q 583 283 583 217 q 555 372 583 333 q 474 424 526 410 l 338 458 q 164 563 228 486 q 100 744 100 639 q 185 951 100 874 q 411 1028 269 1028 q 578 993 507 1028 q 689 895 650 958 q 728 747 728 832 l 558 747 q 518 842 558 806 q 411 878 478 878 q 308 842 346 878 q 269 750 269 807 q 297 672 269 703 q 372 628 324 642 l 513 593 q 690 482 625 565 q 754 283 754 399 q 713 126 754 193 q 597 23 672 60 q 421 -14 522 -14 m 336 1125 l 146 1319 l 313 1319 l 418 1218 l 519 1319 l 688 1319 l 497 1125 l 336 1125 z "},"š":{"ha":833,"x_min":90,"x_max":743,"o":"m 385 -12 q 169 49 249 -12 q 90 217 90 111 l 261 217 q 294 149 261 172 q 385 125 326 125 l 446 125 q 542 149 508 125 q 576 217 576 172 q 553 278 576 258 q 481 306 529 299 l 290 331 q 149 401 199 343 q 100 553 100 460 q 172 719 100 661 q 381 776 244 776 l 444 776 q 650 718 572 776 q 731 563 728 660 l 558 563 q 526 620 557 599 q 444 642 496 642 l 381 642 q 296 619 325 642 q 267 557 267 596 q 288 506 267 522 q 351 485 310 489 l 531 460 q 690 385 636 447 q 743 219 743 324 q 667 48 743 108 q 446 -12 592 -12 l 385 -12 m 336 896 l 146 1090 l 313 1090 l 418 989 l 519 1090 l 688 1090 l 497 896 l 336 896 z "},"Ţ":{"ha":833,"x_min":64,"x_max":769,"o":"m 329 0 l 329 857 l 64 857 l 64 1014 l 769 1014 l 769 857 l 504 857 l 504 0 l 486 -51 q 569 -70 526 -56 q 641 -111 611 -85 q 671 -178 671 -137 q 620 -263 671 -226 q 488 -300 569 -300 l 350 -300 l 350 -211 l 454 -211 q 508 -195 488 -211 q 528 -161 528 -179 q 487 -114 528 -132 q 372 -96 446 -96 l 411 0 l 329 0 z "},"ţ":{"ha":833,"x_min":49,"x_max":739,"o":"m 356 -300 l 356 -211 l 461 -211 q 515 -195 494 -211 q 535 -161 535 -179 q 494 -114 535 -132 q 379 -96 453 -96 l 421 8 q 303 85 346 28 q 260 229 260 143 l 260 607 l 49 607 l 49 764 l 260 764 l 260 979 l 435 979 l 435 764 l 739 764 l 739 607 l 435 607 l 435 233 q 453 178 435 200 q 506 157 472 157 l 732 157 l 732 0 l 511 0 l 493 -51 q 575 -70 532 -56 q 648 -111 618 -85 q 678 -178 678 -137 q 627 -263 678 -226 q 494 -300 576 -300 l 356 -300 z "},"Ť":{"ha":833,"x_min":64,"x_max":769,"o":"m 329 0 l 329 857 l 64 857 l 64 1014 l 769 1014 l 769 857 l 504 857 l 504 0 l 329 0 m 336 1125 l 146 1319 l 313 1319 l 418 1218 l 519 1319 l 688 1319 l 497 1125 l 336 1125 z "},"ť":{"ha":833,"x_min":49,"x_max":739,"o":"m 493 0 q 323 62 386 0 q 260 229 260 124 l 260 607 l 49 607 l 49 764 l 260 764 l 260 979 l 435 979 l 435 764 l 739 764 l 739 607 l 435 607 l 435 233 q 453 178 435 200 q 506 157 472 157 l 732 157 l 732 0 l 493 0 m 531 863 l 550 1113 l 699 1113 l 668 863 l 531 863 z "},"Ŧ":{"ha":833,"x_min":64,"x_max":769,"o":"m 329 0 l 329 385 l 144 385 l 144 531 l 329 531 l 329 857 l 64 857 l 64 1014 l 769 1014 l 769 857 l 504 857 l 504 531 l 689 531 l 689 385 l 504 385 l 504 0 l 329 0 z "},"ŧ":{"ha":833,"x_min":49,"x_max":739,"o":"m 106 317 l 106 453 l 260 453 l 260 607 l 49 607 l 49 764 l 260 764 l 260 979 l 435 979 l 435 764 l 739 764 l 739 607 l 435 607 l 435 453 l 672 453 l 672 317 l 435 317 l 435 233 q 453 178 435 200 q 506 157 472 157 l 732 157 l 732 0 l 493 0 q 323 62 386 0 q 260 229 260 124 l 260 317 l 106 317 z "},"Ũ":{"ha":833,"x_min":100,"x_max":733,"o":"m 417 -14 q 184 67 268 -14 q 100 289 100 149 l 100 1014 l 275 1014 l 275 290 q 311 178 275 218 q 417 138 347 138 q 522 178 485 138 q 558 290 558 218 l 558 1014 l 733 1014 l 733 289 q 650 67 733 149 q 417 -14 567 -14 m 514 1119 q 444 1133 471 1119 q 399 1165 417 1147 q 365 1195 381 1182 q 326 1208 349 1208 q 285 1163 285 1208 l 285 1126 l 178 1126 l 178 1172 q 217 1283 178 1240 q 319 1325 256 1325 q 390 1311 363 1325 q 435 1280 417 1297 q 469 1249 453 1263 q 507 1236 485 1236 q 549 1279 549 1236 l 549 1318 l 656 1318 l 656 1272 q 617 1162 656 1204 q 514 1119 578 1119 z "},"ũ":{"ha":833,"x_min":104,"x_max":729,"o":"m 417 -14 q 188 67 271 -14 q 104 289 104 149 l 104 764 l 278 764 l 278 290 q 314 178 278 218 q 417 138 350 138 q 519 178 482 138 q 556 290 556 218 l 556 764 l 729 764 l 729 289 q 644 67 729 149 q 417 -14 560 -14 m 514 890 q 444 904 471 890 q 399 935 417 918 q 365 966 381 953 q 326 979 349 979 q 285 933 285 979 l 285 897 l 178 897 l 178 943 q 217 1053 178 1011 q 319 1096 256 1096 q 390 1082 363 1096 q 435 1051 417 1068 q 469 1020 453 1033 q 507 1007 485 1007 q 549 1050 549 1007 l 549 1089 l 656 1089 l 656 1043 q 617 933 656 975 q 514 890 578 890 z "},"Ū":{"ha":833,"x_min":100,"x_max":733,"o":"m 417 -14 q 184 67 268 -14 q 100 289 100 149 l 100 1014 l 275 1014 l 275 290 q 311 178 275 218 q 417 138 347 138 q 522 178 485 138 q 558 290 558 218 l 558 1014 l 733 1014 l 733 289 q 650 67 733 149 q 417 -14 567 -14 m 178 1150 l 178 1283 l 656 1283 l 656 1150 l 178 1150 z "},"ū":{"ha":833,"x_min":104,"x_max":729,"o":"m 417 -14 q 188 67 271 -14 q 104 289 104 149 l 104 764 l 278 764 l 278 290 q 314 178 278 218 q 417 138 350 138 q 519 178 482 138 q 556 290 556 218 l 556 764 l 729 764 l 729 289 q 644 67 729 149 q 417 -14 560 -14 m 178 918 l 178 1051 l 656 1051 l 656 918 l 178 918 z "},"Ŭ":{"ha":833,"x_min":100,"x_max":733,"o":"m 417 -14 q 184 67 268 -14 q 100 289 100 149 l 100 1014 l 275 1014 l 275 290 q 311 178 275 218 q 417 138 347 138 q 522 178 485 138 q 558 290 558 218 l 558 1014 l 733 1014 l 733 289 q 650 67 733 149 q 417 -14 567 -14 m 417 1114 q 242 1170 308 1114 q 175 1319 175 1226 l 310 1319 q 339 1246 310 1274 q 417 1218 368 1218 q 495 1246 465 1218 q 525 1319 525 1274 l 660 1319 q 593 1170 660 1226 q 417 1114 526 1114 z "},"ŭ":{"ha":833,"x_min":104,"x_max":729,"o":"m 417 -14 q 188 67 271 -14 q 104 289 104 149 l 104 764 l 278 764 l 278 290 q 314 178 278 218 q 417 138 350 138 q 519 178 482 138 q 556 290 556 218 l 556 764 l 729 764 l 729 289 q 644 67 729 149 q 417 -14 560 -14 m 417 885 q 241 941 308 885 q 174 1090 174 997 l 308 1090 q 338 1017 308 1044 q 417 989 368 989 q 495 1017 465 989 q 525 1090 525 1044 l 660 1090 q 593 941 660 997 q 417 885 526 885 z "},"Ů":{"ha":833,"x_min":100,"x_max":733,"o":"m 417 -14 q 184 67 268 -14 q 100 289 100 149 l 100 1014 l 275 1014 l 275 290 q 311 178 275 218 q 417 138 347 138 q 522 178 485 138 q 558 290 558 218 l 558 1014 l 733 1014 l 733 289 q 650 67 733 149 q 417 -14 567 -14 m 417 1053 q 284 1099 335 1053 q 233 1222 233 1146 q 284 1345 233 1299 q 417 1392 335 1392 q 549 1345 499 1392 q 600 1222 600 1299 q 549 1099 600 1146 q 417 1053 499 1053 m 417 1140 q 477 1163 454 1140 q 500 1222 500 1186 q 477 1281 500 1258 q 417 1304 454 1304 q 356 1281 379 1304 q 333 1222 333 1258 q 356 1163 333 1186 q 417 1140 379 1140 z "},"ů":{"ha":833,"x_min":104,"x_max":729,"o":"m 417 -14 q 188 67 271 -14 q 104 289 104 149 l 104 764 l 278 764 l 278 290 q 314 178 278 218 q 417 138 350 138 q 519 178 482 138 q 556 290 556 218 l 556 764 l 729 764 l 729 289 q 644 67 729 149 q 417 -14 560 -14 m 417 838 q 284 884 335 838 q 233 1006 233 931 q 284 1128 233 1082 q 417 1175 335 1175 q 549 1128 499 1175 q 600 1006 600 1082 q 549 884 600 931 q 417 838 499 838 m 417 925 q 477 947 454 925 q 500 1006 500 969 q 477 1065 500 1043 q 417 1088 454 1088 q 356 1065 379 1088 q 333 1006 333 1043 q 356 947 333 969 q 417 925 379 925 z "},"Ű":{"ha":833,"x_min":100,"x_max":768,"o":"m 417 -14 q 184 67 268 -14 q 100 289 100 149 l 100 1014 l 275 1014 l 275 290 q 311 178 275 218 q 417 138 347 138 q 522 178 485 138 q 558 290 558 218 l 558 1014 l 733 1014 l 733 289 q 650 67 733 149 q 417 -14 567 -14 m 450 1125 l 599 1319 l 768 1319 l 608 1125 l 450 1125 m 169 1125 l 319 1319 l 488 1319 l 328 1125 l 169 1125 z "},"ű":{"ha":833,"x_min":104,"x_max":768,"o":"m 417 -14 q 188 67 271 -14 q 104 289 104 149 l 104 764 l 278 764 l 278 290 q 314 178 278 218 q 417 138 350 138 q 519 178 482 138 q 556 290 556 218 l 556 764 l 729 764 l 729 289 q 644 67 729 149 q 417 -14 560 -14 m 450 896 l 599 1090 l 768 1090 l 608 896 l 450 896 m 169 896 l 319 1090 l 488 1090 l 328 896 l 169 896 z "},"Ų":{"ha":833,"x_min":100,"x_max":733,"o":"m 506 -300 q 377 -260 425 -300 q 329 -157 329 -219 q 356 -85 329 -124 q 426 -12 383 -46 l 417 -14 q 185 67 271 -14 q 100 286 100 149 l 100 1014 l 275 1014 l 275 286 q 310 177 275 215 q 417 139 346 139 q 523 177 488 139 q 558 286 558 215 l 558 1014 l 733 1014 l 733 286 q 698 135 733 201 q 600 32 663 69 l 544 -14 q 494 -69 510 -42 q 479 -121 479 -97 q 497 -163 479 -146 q 549 -181 515 -181 l 639 -181 l 639 -300 l 506 -300 z "},"ų":{"ha":833,"x_min":104,"x_max":729,"o":"m 506 -300 q 377 -260 425 -300 q 329 -157 329 -219 q 353 -87 329 -122 q 426 -12 376 -51 q 417 -14 421 -14 q 188 67 271 -14 q 104 286 104 149 l 104 764 l 278 764 l 278 286 q 417 138 278 138 q 556 286 556 138 l 556 764 l 729 764 l 729 286 q 698 140 729 204 q 608 38 667 76 l 549 -14 q 479 -121 479 -72 q 497 -163 479 -146 q 549 -181 515 -181 l 639 -181 l 639 -300 l 506 -300 z "},"Ŵ":{"ha":833,"x_min":19,"x_max":814,"o":"m 125 0 l 19 1014 l 164 1014 l 228 306 q 234 213 231 269 q 238 118 238 157 q 247 213 242 157 q 256 306 251 269 l 344 1014 l 493 1014 l 576 306 q 587 213 581 269 q 597 118 593 157 q 602 213 599 157 q 608 306 606 269 l 671 1014 l 814 1014 l 703 0 l 511 0 l 433 711 q 425 809 429 751 q 418 904 421 867 q 411 809 415 867 q 403 711 407 751 l 318 0 l 125 0 m 146 1125 l 336 1319 l 497 1319 l 688 1125 l 521 1125 l 415 1226 l 314 1125 l 146 1125 z "},"ŵ":{"ha":833,"x_min":22,"x_max":811,"o":"m 142 0 l 22 764 l 160 764 l 228 296 q 238 203 233 253 q 244 119 242 153 q 250 203 246 153 q 263 296 254 253 l 346 764 l 490 764 l 571 296 q 584 202 579 253 q 592 118 589 151 q 598 202 594 151 q 608 296 601 253 l 678 764 l 811 764 l 689 0 l 510 0 l 438 471 q 425 560 431 510 q 417 643 419 611 q 408 560 415 611 q 396 471 401 510 l 321 0 l 142 0 m 146 896 l 336 1090 l 497 1090 l 688 896 l 521 896 l 415 997 l 314 896 l 146 896 z "},"Ŷ":{"ha":833,"x_min":32,"x_max":801,"o":"m 329 0 l 329 368 l 32 1014 l 215 1014 l 372 663 q 403 581 390 621 q 419 518 415 540 q 437 581 425 540 q 467 663 449 621 l 621 1014 l 801 1014 l 504 368 l 504 0 l 329 0 m 146 1125 l 336 1319 l 497 1319 l 688 1125 l 521 1125 l 415 1226 l 314 1125 l 146 1125 z "},"ŷ":{"ha":833,"x_min":50,"x_max":783,"o":"m 229 -250 l 338 42 l 50 764 l 233 764 l 381 374 q 406 298 393 339 q 424 222 418 257 q 440 298 428 257 q 464 374 451 339 l 600 764 l 783 764 l 411 -250 l 229 -250 m 146 896 l 336 1090 l 497 1090 l 688 896 l 521 896 l 415 997 l 314 896 l 146 896 z "},"Ÿ":{"ha":833,"x_min":32,"x_max":801,"o":"m 329 0 l 329 368 l 32 1014 l 215 1014 l 372 663 q 403 581 390 621 q 419 518 415 540 q 437 581 425 540 q 467 663 449 621 l 621 1014 l 801 1014 l 504 368 l 504 0 l 329 0 m 579 1122 q 506 1149 533 1122 q 478 1222 478 1176 q 506 1297 478 1269 q 579 1324 533 1324 q 654 1297 626 1324 q 682 1222 682 1269 q 654 1149 682 1176 q 579 1122 626 1122 m 254 1122 q 179 1149 207 1122 q 151 1222 151 1176 q 179 1297 151 1269 q 254 1324 207 1324 q 328 1297 300 1324 q 356 1222 356 1269 q 328 1149 356 1176 q 254 1122 300 1122 z "},"Ź":{"ha":833,"x_min":110,"x_max":724,"o":"m 110 0 l 110 161 l 517 857 l 119 857 l 119 1014 l 708 1014 l 708 853 l 300 157 l 724 157 l 724 0 l 110 0 m 311 1125 l 458 1319 l 644 1319 l 486 1125 l 311 1125 z "},"ź":{"ha":833,"x_min":108,"x_max":725,"o":"m 108 0 l 108 157 l 507 611 l 121 611 l 121 764 l 710 764 l 710 607 l 307 153 l 725 153 l 725 0 l 108 0 m 311 896 l 458 1090 l 644 1090 l 486 896 l 311 896 z "},"Ż":{"ha":833,"x_min":110,"x_max":724,"o":"m 110 0 l 110 161 l 517 857 l 119 857 l 119 1014 l 708 1014 l 708 853 l 300 157 l 724 157 l 724 0 l 110 0 m 417 1122 q 333 1149 364 1122 q 303 1222 303 1176 q 333 1295 303 1268 q 417 1322 364 1322 q 500 1295 469 1322 q 531 1222 531 1268 q 500 1149 531 1176 q 417 1122 469 1122 z "},"ż":{"ha":833,"x_min":108,"x_max":725,"o":"m 108 0 l 108 157 l 507 611 l 121 611 l 121 764 l 710 764 l 710 607 l 307 153 l 725 153 l 725 0 l 108 0 m 417 892 q 333 919 364 892 q 303 992 303 946 q 333 1065 303 1038 q 417 1092 364 1092 q 500 1065 469 1092 q 531 992 531 1038 q 500 919 531 946 q 417 892 469 892 z "},"Ž":{"ha":833,"x_min":110,"x_max":724,"o":"m 110 0 l 110 161 l 517 857 l 119 857 l 119 1014 l 708 1014 l 708 853 l 300 157 l 724 157 l 724 0 l 110 0 m 336 1125 l 146 1319 l 313 1319 l 418 1218 l 519 1319 l 688 1319 l 497 1125 l 336 1125 z "},"ž":{"ha":833,"x_min":108,"x_max":725,"o":"m 108 0 l 108 157 l 507 611 l 121 611 l 121 764 l 710 764 l 710 607 l 307 153 l 725 153 l 725 0 l 108 0 m 336 896 l 146 1090 l 313 1090 l 418 989 l 519 1090 l 688 1090 l 497 896 l 336 896 z "},"ſ":{"ha":833,"x_min":204,"x_max":729,"o":"m 204 0 l 204 756 q 278 944 204 874 q 476 1014 353 1014 l 729 1014 l 729 863 l 485 863 q 408 833 438 863 q 379 756 379 803 l 379 0 l 204 0 z "},"Ə":{"ha":833,"x_min":100,"x_max":733,"o":"m 418 -14 q 249 24 321 -14 q 139 128 178 61 q 100 286 100 196 l 100 568 l 558 568 l 558 729 q 523 838 558 800 q 418 876 488 876 q 312 838 347 876 q 276 728 276 799 l 103 728 q 188 947 103 865 q 418 1028 272 1028 q 649 947 564 1028 q 733 728 733 865 l 733 286 q 694 128 733 196 q 585 24 656 61 q 418 -14 515 -14 m 418 122 q 526 165 493 122 q 558 286 558 207 l 558 439 l 275 439 l 275 286 q 418 122 275 122 z "},"Ɛ":{"ha":833,"x_min":74,"x_max":778,"o":"m 429 -14 q 244 24 324 -14 q 119 128 164 61 q 74 283 74 194 q 126 448 74 378 q 264 535 179 518 l 264 539 q 148 614 193 553 q 103 757 103 675 q 144 899 103 838 q 257 994 185 960 q 424 1028 329 1028 q 594 990 521 1028 q 709 884 668 951 q 750 728 750 817 l 579 728 q 536 838 579 796 q 425 881 493 881 q 318 842 360 881 q 276 742 276 804 q 318 640 276 679 q 426 600 360 600 l 544 600 l 544 453 l 429 453 q 299 409 349 453 q 250 294 250 365 q 299 180 250 224 q 429 136 349 136 q 556 178 507 136 q 607 286 606 219 l 778 286 q 733 130 778 197 q 610 24 689 63 q 429 -14 532 -14 z "},"ƒ":{"ha":833,"x_min":0,"x_max":764,"o":"m 0 -250 l 0 -85 l 163 -85 q 258 -51 224 -85 q 293 42 293 -18 l 293 413 l 75 413 l 75 565 l 293 565 l 293 792 q 356 954 293 894 q 525 1014 418 1014 l 760 1014 l 760 863 l 540 863 q 467 792 467 863 l 467 565 l 764 565 l 764 413 l 467 413 l 467 29 q 427 -117 467 -54 q 317 -215 388 -179 q 154 -250 247 -250 l 0 -250 z "},"ƛ":{"ha":833,"x_min":49,"x_max":785,"o":"m 49 0 l 331 735 l 125 632 l 125 764 l 300 851 l 235 1014 l 418 1014 l 449 926 l 653 1028 l 653 896 l 489 815 l 785 0 l 601 0 l 451 447 q 431 527 439 486 q 418 593 422 568 q 408 527 415 568 q 388 447 400 486 l 236 0 l 49 0 z "},"Ơ":{"ha":833,"x_min":100,"x_max":782,"o":"m 417 -14 q 185 69 271 -14 q 100 300 100 153 l 100 714 q 185 944 100 861 q 417 1028 271 1028 q 611 975 532 1028 q 640 1021 640 985 l 640 1125 l 782 1125 l 782 1018 q 760 933 782 969 q 699 875 738 896 q 733 715 733 807 l 733 300 q 648 69 733 153 q 417 -14 563 -14 m 417 139 q 524 177 488 139 q 560 286 560 215 l 560 728 q 524 837 560 799 q 417 875 488 875 q 310 837 346 875 q 274 728 274 799 l 274 286 q 310 177 274 215 q 417 139 346 139 z "},"ơ":{"ha":833,"x_min":97,"x_max":782,"o":"m 417 -12 q 183 70 269 -12 q 97 293 97 153 l 97 471 q 183 694 97 613 q 417 776 269 776 q 593 736 518 776 l 593 736 q 642 785 642 736 l 642 889 l 782 889 l 782 782 q 759 694 782 732 q 696 636 736 657 q 736 471 736 567 l 736 293 q 650 70 736 153 q 417 -12 564 -12 m 417 139 q 524 177 486 139 q 563 288 563 215 l 563 476 q 524 587 563 549 q 417 625 486 625 q 309 587 347 625 q 271 476 271 549 l 271 288 q 309 177 271 215 q 417 139 347 139 z "},"Ư":{"ha":833,"x_min":100,"x_max":872,"o":"m 417 -14 q 184 67 268 -14 q 100 289 100 149 l 100 1014 l 275 1014 l 275 290 q 311 178 275 218 q 417 138 347 138 q 522 178 485 138 q 558 290 558 218 l 558 1014 l 682 1014 q 731 1063 731 1014 l 731 1167 l 872 1167 l 872 1060 q 835 951 872 994 q 733 899 797 908 l 733 289 q 650 67 733 149 q 417 -14 567 -14 z "},"ư":{"ha":833,"x_min":104,"x_max":861,"o":"m 104 285 l 104 764 l 278 764 l 278 283 q 310 175 278 213 q 400 138 342 138 q 491 175 458 138 q 524 283 524 213 l 524 764 l 672 764 q 721 813 721 764 l 721 917 l 861 917 l 861 810 q 819 691 861 736 q 697 646 778 646 l 697 285 q 617 66 697 146 q 400 -14 538 -14 q 183 66 263 -14 q 104 285 104 146 z "},"Ǎ":{"ha":833,"x_min":49,"x_max":785,"o":"m 49 0 l 304 1014 l 528 1014 l 785 0 l 607 0 l 551 246 l 282 246 l 226 0 l 49 0 m 314 388 l 519 388 l 458 660 q 432 783 443 728 q 417 863 421 838 q 401 783 413 838 q 375 661 390 728 l 314 388 m 336 1125 l 146 1319 l 313 1319 l 418 1218 l 519 1319 l 688 1319 l 497 1125 l 336 1125 z "},"ǎ":{"ha":833,"x_min":81,"x_max":726,"o":"m 332 -14 q 148 52 215 -14 q 81 225 81 118 q 157 402 81 336 q 367 468 233 468 l 553 468 l 553 522 q 418 638 553 638 q 321 614 357 638 q 281 547 285 590 l 114 547 q 201 714 119 650 q 419 778 282 778 q 646 710 565 778 q 726 518 726 642 l 726 0 l 557 0 l 557 143 q 488 28 547 69 q 332 -14 428 -14 m 388 128 q 508 165 464 128 q 553 265 553 203 l 553 356 l 375 356 q 285 324 318 356 q 251 242 251 292 q 287 159 251 190 q 388 128 322 128 m 343 896 l 153 1090 l 319 1090 l 425 989 l 526 1090 l 694 1090 l 504 896 l 343 896 z "},"ǐ":{"ha":833,"x_min":106,"x_max":775,"o":"m 106 0 l 106 157 l 367 157 l 367 607 l 133 607 l 133 764 l 540 764 l 540 157 l 775 157 l 775 0 l 106 0 m 361 896 l 171 1090 l 338 1090 l 443 989 l 544 1090 l 713 1090 l 522 896 l 361 896 z "},"ǒ":{"ha":833,"x_min":97,"x_max":736,"o":"m 417 -12 q 183 70 269 -12 q 97 293 97 153 l 97 471 q 183 694 97 613 q 417 776 269 776 q 650 694 564 776 q 736 471 736 613 l 736 293 q 650 70 736 153 q 417 -12 564 -12 m 417 139 q 524 177 486 139 q 563 288 563 215 l 563 476 q 524 587 563 549 q 417 625 486 625 q 309 587 347 625 q 271 476 271 549 l 271 288 q 309 177 271 215 q 417 139 347 139 m 336 896 l 146 1090 l 313 1090 l 418 989 l 519 1090 l 688 1090 l 497 896 l 336 896 z "},"ǔ":{"ha":833,"x_min":104,"x_max":729,"o":"m 417 -14 q 188 67 271 -14 q 104 289 104 149 l 104 764 l 278 764 l 278 290 q 314 178 278 218 q 417 138 350 138 q 519 178 482 138 q 556 290 556 218 l 556 764 l 729 764 l 729 289 q 644 67 729 149 q 417 -14 560 -14 m 336 896 l 146 1090 l 313 1090 l 418 989 l 519 1090 l 688 1090 l 497 896 l 336 896 z "},"ǖ":{"ha":833,"x_min":104,"x_max":729,"o":"m 417 -14 q 188 67 271 -14 q 104 289 104 149 l 104 764 l 278 764 l 278 290 q 314 178 278 218 q 417 138 350 138 q 519 178 482 138 q 556 290 556 218 l 556 764 l 729 764 l 729 289 q 644 67 729 149 q 417 -14 560 -14 m 579 892 q 506 919 533 892 q 478 992 478 946 q 506 1065 478 1038 q 579 1092 533 1092 q 654 1065 626 1092 q 682 992 682 1038 q 654 919 682 946 q 579 892 626 892 m 254 892 q 179 919 207 892 q 151 992 151 946 q 179 1065 151 1038 q 254 1092 207 1092 q 328 1065 300 1092 q 356 992 356 1038 q 328 919 356 946 q 254 892 300 892 m 178 1246 l 178 1379 l 656 1379 l 656 1246 l 178 1246 z "},"ǘ":{"ha":833,"x_min":104,"x_max":729,"o":"m 417 -14 q 188 67 271 -14 q 104 289 104 149 l 104 764 l 278 764 l 278 290 q 314 178 278 218 q 417 138 350 138 q 519 178 482 138 q 556 290 556 218 l 556 764 l 729 764 l 729 289 q 644 67 729 149 q 417 -14 560 -14 m 579 892 q 506 919 533 892 q 478 992 478 946 q 506 1065 478 1038 q 579 1092 533 1092 q 654 1065 626 1092 q 682 992 682 1038 q 654 919 682 946 q 579 892 626 892 m 254 892 q 179 919 207 892 q 151 992 151 946 q 179 1065 151 1038 q 254 1092 207 1092 q 328 1065 300 1092 q 356 992 356 1038 q 328 919 356 946 q 254 892 300 892 m 311 1224 l 458 1418 l 644 1418 l 486 1224 l 311 1224 z "},"ǚ":{"ha":833,"x_min":104,"x_max":729,"o":"m 417 -14 q 188 67 271 -14 q 104 289 104 149 l 104 764 l 278 764 l 278 290 q 314 178 278 218 q 417 138 350 138 q 519 178 482 138 q 556 290 556 218 l 556 764 l 729 764 l 729 289 q 644 67 729 149 q 417 -14 560 -14 m 579 892 q 506 919 533 892 q 478 992 478 946 q 506 1065 478 1038 q 579 1092 533 1092 q 654 1065 626 1092 q 682 992 682 1038 q 654 919 682 946 q 579 892 626 892 m 254 892 q 179 919 207 892 q 151 992 151 946 q 179 1065 151 1038 q 254 1092 207 1092 q 328 1065 300 1092 q 356 992 356 1038 q 328 919 356 946 q 254 892 300 892 m 336 1224 l 146 1418 l 313 1418 l 418 1317 l 519 1418 l 688 1418 l 497 1224 l 336 1224 z "},"ǜ":{"ha":833,"x_min":104,"x_max":729,"o":"m 417 -14 q 188 67 271 -14 q 104 289 104 149 l 104 764 l 278 764 l 278 290 q 314 178 278 218 q 417 138 350 138 q 519 178 482 138 q 556 290 556 218 l 556 764 l 729 764 l 729 289 q 644 67 729 149 q 417 -14 560 -14 m 579 892 q 506 919 533 892 q 478 992 478 946 q 506 1065 478 1038 q 579 1092 533 1092 q 654 1065 626 1092 q 682 992 682 1038 q 654 919 682 946 q 579 892 626 892 m 254 892 q 179 919 207 892 q 151 992 151 946 q 179 1065 151 1038 q 254 1092 207 1092 q 328 1065 300 1092 q 356 992 356 1038 q 328 919 356 946 q 254 892 300 892 m 346 1224 l 185 1418 l 376 1418 l 525 1224 l 346 1224 z "},"Ǧ":{"ha":833,"x_min":100,"x_max":744,"o":"m 422 -14 q 251 23 324 -14 q 140 127 179 60 q 100 286 100 194 l 100 728 q 140 887 100 819 q 251 991 179 954 q 422 1028 324 1028 q 592 991 519 1028 q 704 887 664 954 q 744 728 744 819 l 569 728 q 531 837 569 799 q 422 875 493 875 q 313 838 351 875 q 274 729 274 800 l 274 286 q 313 176 274 215 q 422 138 351 138 q 531 176 493 138 q 569 286 569 215 l 569 399 l 397 399 l 397 549 l 744 549 l 744 286 q 704 127 744 194 q 592 23 664 60 q 422 -14 519 -14 m 336 1125 l 146 1319 l 313 1319 l 418 1218 l 519 1319 l 688 1319 l 497 1125 l 336 1125 z "},"ǧ":{"ha":833,"x_min":100,"x_max":726,"o":"m 211 -250 l 211 -106 l 426 -106 q 521 -73 488 -106 q 554 15 554 -40 l 554 61 l 557 181 q 481 81 533 117 q 354 46 429 46 q 169 124 238 46 q 100 338 100 203 l 100 486 q 169 699 100 619 q 354 778 238 778 q 481 742 429 778 q 557 642 533 707 l 557 764 l 726 764 l 726 11 q 647 -180 726 -110 q 429 -250 567 -250 l 211 -250 m 413 194 q 516 234 479 194 q 553 344 553 274 l 553 478 q 516 588 553 549 q 413 628 479 628 q 310 590 346 628 q 274 483 274 551 l 274 339 q 310 233 274 271 q 413 194 346 194 m 332 896 l 142 1090 l 308 1090 l 414 989 l 515 1090 l 683 1090 l 493 896 l 332 896 z "},"Ǫ":{"ha":833,"x_min":100,"x_max":733,"o":"m 506 -300 q 377 -260 425 -300 q 329 -157 329 -219 q 356 -85 329 -124 q 426 -12 383 -46 l 417 -14 q 185 67 271 -14 q 100 286 100 149 l 100 728 q 185 947 100 865 q 417 1028 271 1028 q 648 947 563 1028 q 733 729 733 865 l 733 286 q 698 135 733 201 q 600 32 663 69 l 544 -14 q 494 -69 510 -42 q 479 -121 479 -97 q 497 -163 479 -146 q 549 -181 515 -181 l 639 -181 l 639 -300 l 506 -300 m 417 139 q 524 177 488 139 q 560 286 560 215 l 560 728 q 524 837 560 799 q 417 875 488 875 q 310 837 346 875 q 274 728 274 799 l 274 286 q 310 177 274 215 q 417 139 346 139 z "},"ǫ":{"ha":833,"x_min":100,"x_max":733,"o":"m 506 -300 q 377 -260 425 -300 q 329 -157 329 -219 q 353 -87 329 -122 q 426 -12 376 -51 q 417 -14 421 -14 q 185 67 271 -14 q 100 286 100 149 l 100 478 q 185 697 100 615 q 417 778 271 778 q 648 697 563 778 q 733 479 733 615 l 733 286 q 700 140 733 204 q 608 38 667 76 l 549 -14 q 479 -121 479 -72 q 497 -163 479 -146 q 549 -181 515 -181 l 639 -181 l 639 -300 l 506 -300 m 417 138 q 523 176 486 138 q 560 286 560 214 l 560 478 q 523 588 560 550 q 417 626 486 626 q 310 588 347 626 q 274 478 274 550 l 274 286 q 310 176 274 214 q 417 138 347 138 z "},"Ǵ":{"ha":833,"x_min":100,"x_max":744,"o":"m 422 -14 q 251 23 324 -14 q 140 127 179 60 q 100 286 100 194 l 100 728 q 140 887 100 819 q 251 991 179 954 q 422 1028 324 1028 q 592 991 519 1028 q 704 887 664 954 q 744 728 744 819 l 569 728 q 531 837 569 799 q 422 875 493 875 q 313 838 351 875 q 274 729 274 800 l 274 286 q 313 176 274 215 q 422 138 351 138 q 531 176 493 138 q 569 286 569 215 l 569 399 l 397 399 l 397 549 l 744 549 l 744 286 q 704 127 744 194 q 592 23 664 60 q 422 -14 519 -14 m 311 1125 l 458 1319 l 644 1319 l 486 1125 l 311 1125 z "},"ǵ":{"ha":833,"x_min":100,"x_max":726,"o":"m 211 -250 l 211 -106 l 426 -106 q 521 -73 488 -106 q 554 15 554 -40 l 554 61 l 557 181 q 481 81 533 117 q 354 46 429 46 q 169 124 238 46 q 100 338 100 203 l 100 486 q 169 699 100 619 q 354 778 238 778 q 481 742 429 778 q 557 642 533 707 l 557 764 l 726 764 l 726 11 q 647 -180 726 -110 q 429 -250 567 -250 l 211 -250 m 413 194 q 516 234 479 194 q 553 344 553 274 l 553 478 q 516 588 553 549 q 413 628 479 628 q 310 590 346 628 q 274 483 274 551 l 274 339 q 310 233 274 271 q 413 194 346 194 m 307 896 l 454 1090 l 640 1090 l 482 896 l 307 896 z "},"Ǽ":{"ha":833,"x_min":17,"x_max":800,"o":"m 17 0 l 213 1014 l 800 1014 l 800 865 l 561 865 l 561 596 l 765 596 l 765 443 l 561 443 l 561 150 l 800 150 l 800 0 l 411 0 l 411 251 l 231 251 l 186 0 l 17 0 m 251 379 l 411 379 l 411 865 l 339 865 l 251 379 m 311 1125 l 458 1319 l 644 1319 l 486 1125 l 311 1125 z "},"ǽ":{"ha":833,"x_min":40,"x_max":789,"o":"m 247 -14 q 98 51 156 -14 q 40 221 40 117 q 103 390 40 325 q 265 456 165 456 l 349 456 l 349 556 q 328 629 349 603 q 274 656 308 656 q 218 631 239 656 q 197 564 197 606 l 54 564 q 109 719 54 660 q 251 778 164 778 q 366 744 319 778 q 419 651 413 710 q 473 744 426 710 q 585 778 519 778 q 732 716 675 778 q 789 556 789 654 l 789 350 l 492 350 l 492 208 q 512 135 492 161 q 567 108 532 108 q 623 133 603 108 q 643 201 643 158 l 789 201 q 733 46 789 106 q 586 -14 676 -14 q 476 21 524 -14 q 419 113 429 56 q 363 21 411 56 q 247 -14 315 -14 m 492 456 l 643 456 l 643 556 q 623 628 643 601 q 567 656 603 656 q 513 628 533 656 q 492 556 492 601 l 492 456 m 271 108 q 327 135 306 108 q 349 208 349 163 l 349 350 l 267 350 q 208 317 229 350 q 186 229 186 285 q 208 142 186 175 q 271 108 231 108 m 311 896 l 458 1090 l 644 1090 l 486 896 l 311 896 z "},"Ǿ":{"ha":833,"x_min":32,"x_max":801,"o":"m 32 -56 l 138 129 q 100 286 100 196 l 100 728 q 185 947 100 865 q 417 1028 271 1028 q 617 972 536 1028 l 657 1042 l 801 1042 l 704 871 q 733 729 733 808 l 733 286 q 648 67 733 149 q 417 -14 563 -14 q 228 35 306 -14 l 176 -56 l 32 -56 m 269 728 l 269 361 l 535 828 q 417 875 497 875 q 308 837 346 875 q 269 728 269 799 m 417 139 q 526 177 488 139 q 564 286 564 215 l 564 625 l 308 176 q 417 139 346 139 m 311 1125 l 458 1319 l 644 1319 l 486 1125 l 311 1125 z "},"ǿ":{"ha":833,"x_min":40,"x_max":793,"o":"m 40 -42 l 149 111 q 100 286 100 183 l 100 478 q 185 697 100 615 q 417 778 271 778 q 590 739 517 778 l 647 819 l 793 819 l 681 660 q 733 479 733 585 l 733 286 q 648 67 733 149 q 417 -14 563 -14 q 236 29 313 -14 l 186 -42 l 40 -42 m 263 286 q 263 285 263 286 q 263 274 263 283 l 499 608 q 417 626 464 626 q 303 587 343 626 q 263 478 263 547 l 263 286 m 417 138 q 531 177 490 138 q 571 286 571 217 l 571 478 q 569 503 571 492 l 328 158 q 417 138 364 138 m 311 896 l 458 1090 l 644 1090 l 486 896 l 311 896 z "},"Ș":{"ha":833,"x_min":79,"x_max":754,"o":"m 421 -14 q 241 22 318 -14 q 122 126 164 58 q 79 286 79 193 l 250 286 q 297 178 250 218 q 421 138 343 138 q 540 177 496 138 q 583 283 583 217 q 555 372 583 333 q 474 424 526 410 l 338 458 q 164 563 228 486 q 100 744 100 639 q 185 951 100 874 q 411 1028 269 1028 q 578 993 507 1028 q 689 895 650 958 q 728 747 728 832 l 558 747 q 518 842 558 806 q 411 878 478 878 q 308 842 346 878 q 269 750 269 807 q 297 672 269 703 q 372 628 324 642 l 513 593 q 690 482 625 565 q 754 283 754 399 q 713 126 754 193 q 597 23 672 60 q 421 -14 522 -14 m 251 -333 l 383 -132 l 567 -132 l 413 -333 l 251 -333 z "},"ș":{"ha":833,"x_min":90,"x_max":743,"o":"m 385 -12 q 169 49 249 -12 q 90 217 90 111 l 261 217 q 294 149 261 172 q 385 125 326 125 l 446 125 q 542 149 508 125 q 576 217 576 172 q 553 278 576 258 q 481 306 529 299 l 290 331 q 149 401 199 343 q 100 553 100 460 q 172 719 100 661 q 381 776 244 776 l 444 776 q 650 718 572 776 q 731 563 728 660 l 558 563 q 526 620 557 599 q 444 642 496 642 l 381 642 q 296 619 325 642 q 267 557 267 596 q 288 506 267 522 q 351 485 310 489 l 531 460 q 690 385 636 447 q 743 219 743 324 q 667 48 743 108 q 446 -12 592 -12 l 385 -12 m 251 -333 l 383 -132 l 567 -132 l 413 -333 l 251 -333 z "},"Ț":{"ha":833,"x_min":64,"x_max":769,"o":"m 329 0 l 329 857 l 64 857 l 64 1014 l 769 1014 l 769 857 l 504 857 l 504 0 l 329 0 m 251 -333 l 383 -132 l 567 -132 l 413 -333 l 251 -333 z "},"ț":{"ha":833,"x_min":49,"x_max":739,"o":"m 493 0 q 323 62 386 0 q 260 229 260 124 l 260 607 l 49 607 l 49 764 l 260 764 l 260 979 l 435 979 l 435 764 l 739 764 l 739 607 l 435 607 l 435 233 q 453 178 435 200 q 506 157 472 157 l 732 157 l 732 0 l 493 0 m 335 -333 l 467 -132 l 650 -132 l 496 -333 l 335 -333 z "},"Ȳ":{"ha":833,"x_min":32,"x_max":801,"o":"m 329 0 l 329 368 l 32 1014 l 215 1014 l 372 663 q 403 581 390 621 q 419 518 415 540 q 437 581 425 540 q 467 663 449 621 l 621 1014 l 801 1014 l 504 368 l 504 0 l 329 0 m 178 1150 l 178 1283 l 656 1283 l 656 1150 l 178 1150 z "},"ȳ":{"ha":833,"x_min":50,"x_max":783,"o":"m 229 -250 l 338 42 l 50 764 l 233 764 l 381 374 q 406 298 393 339 q 424 222 418 257 q 440 298 428 257 q 464 374 451 339 l 600 764 l 783 764 l 411 -250 l 229 -250 m 178 918 l 178 1051 l 656 1051 l 656 918 l 178 918 z "},"ȷ":{"ha":833,"x_min":106,"x_max":632,"o":"m 113 -250 l 113 -93 l 314 -93 q 419 -53 381 -93 q 458 54 458 -14 l 458 607 l 106 607 l 106 764 l 632 764 l 632 50 q 549 -169 632 -89 q 324 -250 465 -250 l 113 -250 z "},"ə":{"ha":833,"x_min":100,"x_max":733,"o":"m 415 -14 q 249 24 319 -14 q 139 128 178 61 q 100 286 100 196 l 100 424 l 565 424 l 565 478 q 414 640 565 640 q 278 561 297 640 l 106 561 q 209 719 125 660 q 415 778 293 778 q 584 740 513 778 q 694 635 656 703 q 733 478 733 568 l 733 286 q 694 128 733 196 q 584 24 656 61 q 415 -14 513 -14 m 415 122 q 528 165 492 122 q 565 286 565 207 l 565 315 l 268 315 l 268 286 q 304 165 268 207 q 415 122 340 122 z "},"ʹ":{"ha":833,"x_min":208,"x_max":542,"o":"m 208 568 l 319 1000 l 542 1000 l 361 568 l 208 568 z "},"ʺ":{"ha":833,"x_min":64,"x_max":778,"o":"m 446 568 l 557 1000 l 778 1000 l 597 568 l 446 568 m 64 568 l 175 1000 l 396 1000 l 215 568 l 64 568 z "},"ʼ":{"ha":833,"x_min":208,"x_max":542,"o":"m 208 646 l 319 1078 l 542 1078 l 361 646 l 208 646 z "},"ˆ":{"ha":833,"x_min":146,"x_max":688,"o":"m 146 896 l 336 1090 l 497 1090 l 688 896 l 521 896 l 415 997 l 314 896 l 146 896 z "},"ˇ":{"ha":833,"x_min":146,"x_max":688,"o":"m 336 896 l 146 1090 l 313 1090 l 418 989 l 519 1090 l 688 1090 l 497 896 l 336 896 z "},"ˉ":{"ha":833,"x_min":178,"x_max":656,"o":"m 178 918 l 178 1051 l 656 1051 l 656 918 l 178 918 z "},"˘":{"ha":833,"x_min":174,"x_max":660,"o":"m 417 885 q 241 941 308 885 q 174 1090 174 997 l 308 1090 q 338 1017 308 1044 q 417 989 368 989 q 495 1017 465 989 q 525 1090 525 1044 l 660 1090 q 593 941 660 997 q 417 885 526 885 z "},"˙":{"ha":833,"x_min":303,"x_max":531,"o":"m 417 892 q 333 919 364 892 q 303 992 303 946 q 333 1065 303 1038 q 417 1092 364 1092 q 500 1065 469 1092 q 531 992 531 1038 q 500 919 531 946 q 417 892 469 892 z "},"˚":{"ha":833,"x_min":233,"x_max":600,"o":"m 417 838 q 284 884 335 838 q 233 1006 233 931 q 284 1128 233 1082 q 417 1175 335 1175 q 549 1128 499 1175 q 600 1006 600 1082 q 549 884 600 931 q 417 838 499 838 m 417 925 q 477 947 454 925 q 500 1006 500 969 q 477 1065 500 1043 q 417 1088 454 1088 q 356 1065 379 1088 q 333 1006 333 1043 q 356 947 333 969 q 417 925 379 925 z "},"˛":{"ha":833,"x_min":240,"x_max":550,"o":"m 418 -300 q 288 -260 336 -300 q 240 -157 240 -219 q 276 -67 240 -111 q 381 15 311 -22 l 493 15 l 461 -14 q 390 -121 390 -75 q 409 -163 390 -146 q 460 -181 428 -181 l 550 -181 l 550 -300 l 418 -300 z "},"˜":{"ha":833,"x_min":178,"x_max":656,"o":"m 514 890 q 444 904 471 890 q 399 935 417 918 q 365 966 381 953 q 326 979 349 979 q 285 933 285 979 l 285 897 l 178 897 l 178 943 q 217 1053 178 1011 q 319 1096 256 1096 q 390 1082 363 1096 q 435 1051 417 1068 q 469 1020 453 1033 q 507 1007 485 1007 q 549 1050 549 1007 l 549 1089 l 656 1089 l 656 1043 q 617 933 656 975 q 514 890 578 890 z "},"˝":{"ha":833,"x_min":169,"x_max":768,"o":"m 450 896 l 599 1090 l 768 1090 l 608 896 l 450 896 m 169 896 l 319 1090 l 488 1090 l 328 896 l 169 896 z "},"˳":{"ha":833,"x_min":242,"x_max":592,"o":"m 417 -356 q 290 -316 338 -356 q 242 -212 242 -276 q 290 -109 242 -149 q 417 -69 338 -69 q 544 -109 496 -69 q 592 -212 592 -149 q 544 -316 592 -276 q 417 -356 496 -356 m 415 -282 q 477 -263 454 -282 q 500 -212 500 -244 q 477 -160 500 -179 q 415 -142 454 -142 q 356 -161 378 -142 q 333 -212 333 -181 q 356 -263 333 -244 q 415 -282 378 -282 z "},"˷":{"ha":833,"x_min":178,"x_max":656,"o":"m 514 -317 q 444 -303 471 -317 q 399 -272 417 -289 q 365 -240 381 -254 q 326 -226 349 -226 q 285 -274 285 -226 l 285 -310 l 178 -310 l 178 -264 q 217 -153 178 -196 q 319 -111 256 -111 q 390 -124 363 -111 q 435 -156 417 -137 q 469 -187 453 -174 q 507 -200 485 -200 q 549 -157 549 -200 l 549 -118 l 656 -118 l 656 -164 q 617 -274 656 -232 q 514 -317 578 -317 z "},"̀":{"ha":0,"x_min":-635,"x_max":-294,"o":"m -474 896 l -635 1090 l -443 1090 l -294 896 l -474 896 z "},"́":{"ha":0,"x_min":-536,"x_max":-203,"o":"m -536 896 l -389 1090 l -203 1090 l -361 896 l -536 896 z "},"̂":{"ha":0,"x_min":-687,"x_max":-146,"o":"m -687 896 l -497 1090 l -336 1090 l -146 896 l -312 896 l -418 997 l -519 896 l -687 896 z "},"̃":{"ha":0,"x_min":-656,"x_max":-178,"o":"m -319 890 q -390 904 -362 890 q -435 935 -417 918 q -469 966 -453 953 q -507 979 -485 979 q -549 933 -549 979 l -549 897 l -656 897 l -656 943 q -617 1053 -656 1011 q -514 1096 -578 1096 q -444 1082 -471 1096 q -399 1051 -417 1068 q -365 1020 -381 1033 q -326 1007 -349 1007 q -285 1050 -285 1007 l -285 1089 l -178 1089 l -178 1043 q -217 933 -178 975 q -319 890 -256 890 z "},"̄":{"ha":0,"x_min":-656,"x_max":-178,"o":"m -656 918 l -656 1051 l -178 1051 l -178 918 l -656 918 z "},"̆":{"ha":0,"x_min":-660,"x_max":-174,"o":"m -417 885 q -592 941 -525 885 q -660 1090 -660 997 l -525 1090 q -495 1017 -525 1044 q -417 989 -465 989 q -338 1017 -368 989 q -308 1090 -308 1044 l -174 1090 q -240 941 -174 997 q -417 885 -307 885 z "},"̇":{"ha":0,"x_min":-531,"x_max":-303,"o":"m -417 892 q -500 919 -469 892 q -531 992 -531 946 q -500 1065 -531 1038 q -417 1092 -469 1092 q -333 1065 -364 1092 q -303 992 -303 1038 q -333 919 -303 946 q -417 892 -364 892 z "},"̈":{"ha":0,"x_min":-682,"x_max":-151,"o":"m -254 892 q -328 919 -300 892 q -356 992 -356 946 q -328 1065 -356 1038 q -254 1092 -300 1092 q -179 1065 -207 1092 q -151 992 -151 1038 q -179 919 -151 946 q -254 892 -207 892 m -579 892 q -654 919 -626 892 q -682 992 -682 946 q -654 1065 -682 1038 q -579 1092 -626 1092 q -506 1065 -533 1092 q -478 992 -478 1038 q -506 919 -478 946 q -579 892 -533 892 z "},"̉":{"ha":0,"x_min":-550,"x_max":-269,"o":"m -487 896 l -418 979 q -399 1021 -399 1004 q -439 1047 -399 1047 l -550 1047 l -550 1153 l -404 1153 q -306 1122 -343 1153 q -269 1040 -269 1092 q -297 960 -269 994 l -349 896 l -487 896 z "},"̊":{"ha":0,"x_min":-600,"x_max":-233,"o":"m -417 838 q -549 884 -499 838 q -600 1006 -600 931 q -549 1128 -600 1082 q -417 1175 -499 1175 q -284 1128 -335 1175 q -233 1006 -233 1082 q -284 884 -233 931 q -417 838 -335 838 m -417 925 q -356 947 -379 925 q -333 1006 -333 969 q -356 1065 -333 1043 q -417 1088 -379 1088 q -477 1065 -454 1088 q -500 1006 -500 1043 q -477 947 -500 969 q -417 925 -454 925 z "},"̋":{"ha":0,"x_min":-664,"x_max":-65,"o":"m -383 896 l -235 1090 l -65 1090 l -225 896 l -383 896 m -664 896 l -514 1090 l -346 1090 l -506 896 l -664 896 z "},"̌":{"ha":0,"x_min":-687,"x_max":-146,"o":"m -497 896 l -687 1090 l -521 1090 l -415 989 l -314 1090 l -146 1090 l -336 896 l -497 896 z "},"̏":{"ha":0,"x_min":-768,"x_max":-169,"o":"m -450 896 l -608 896 l -768 1090 l -599 1090 l -450 896 m -169 896 l -328 896 l -487 1090 l -319 1090 l -169 896 z "},"̒":{"ha":0,"x_min":-558,"x_max":-236,"o":"m -236 1222 l -347 896 l -558 896 l -378 1222 l -236 1222 z "},"̛":{"ha":0,"x_min":-337,"x_max":-92,"o":"m -337 646 l -337 764 l -281 764 q -232 813 -232 764 l -232 917 l -92 917 l -92 810 q -141 691 -92 736 q -271 646 -190 646 l -337 646 z "},"̣":{"ha":0,"x_min":-531,"x_max":-303,"o":"m -417 -312 q -500 -285 -469 -312 q -531 -212 -531 -258 q -500 -138 -531 -165 q -417 -111 -469 -111 q -333 -138 -364 -111 q -303 -212 -303 -165 q -333 -285 -303 -258 q -417 -312 -364 -312 z "},"̥":{"ha":0,"x_min":-592,"x_max":-242,"o":"m -417 -356 q -544 -316 -496 -356 q -592 -212 -592 -276 q -544 -109 -592 -149 q -417 -69 -496 -69 q -290 -109 -337 -69 q -242 -212 -242 -149 q -290 -316 -242 -276 q -417 -356 -337 -356 m -418 -282 q -356 -263 -379 -282 q -333 -212 -333 -244 q -356 -160 -333 -179 q -418 -142 -379 -142 q -478 -161 -456 -142 q -500 -212 -500 -181 q -478 -263 -500 -244 q -418 -282 -456 -282 z "},"̦":{"ha":0,"x_min":-582,"x_max":-267,"o":"m -582 -333 l -450 -132 l -267 -132 l -421 -333 l -582 -333 z "},"̧":{"ha":0,"x_min":-561,"x_max":-239,"o":"m -561 -300 l -561 -211 l -456 -211 q -402 -195 -422 -211 q -382 -161 -382 -179 q -423 -114 -382 -132 q -537 -96 -464 -96 l -489 28 l -396 28 l -424 -51 q -342 -70 -385 -56 q -269 -111 -299 -85 q -239 -178 -239 -137 q -290 -263 -239 -226 q -422 -300 -340 -300 l -561 -300 z "},"̨":{"ha":0,"x_min":-593,"x_max":-283,"o":"m -415 -300 q -545 -260 -497 -300 q -593 -157 -593 -219 q -558 -67 -593 -111 q -453 15 -522 -22 l -340 15 l -372 -14 q -443 -121 -443 -75 q -424 -163 -443 -146 q -374 -181 -406 -181 l -283 -181 l -283 -300 l -415 -300 z "},"̶":{"ha":0,"x_min":-875,"x_max":42,"o":"m -875 378 l -875 508 l 42 508 l 42 378 l -875 378 z "},"̷":{"ha":0,"x_min":-793,"x_max":-40,"o":"m -793 -42 l -186 819 l -40 819 l -647 -42 l -793 -42 z "},"̸":{"ha":0,"x_min":-685,"x_max":-149,"o":"m -685 -153 l -258 917 l -149 917 l -575 -153 l -685 -153 z "},"ʹ":{"ha":833,"x_min":208,"x_max":542,"o":"m 208 568 l 319 1000 l 542 1000 l 361 568 l 208 568 z "},"͵":{"ha":833,"x_min":264,"x_max":536,"o":"m 264 -222 l 338 203 l 536 203 l 431 -222 l 264 -222 z "},";":{"ha":833,"x_min":257,"x_max":547,"o":"m 403 544 q 319 578 351 544 q 286 661 286 611 q 319 744 286 711 q 403 778 353 778 l 431 778 q 514 744 481 778 q 547 661 547 711 q 515 578 547 611 q 431 544 482 544 l 403 544 m 257 -222 l 331 203 l 529 203 l 424 -222 l 257 -222 z "},"΄":{"ha":833,"x_min":267,"x_max":606,"o":"m 267 896 l 414 1090 l 606 1090 l 446 896 l 267 896 z "},"΅":{"ha":833,"x_min":151,"x_max":682,"o":"m 339 1090 l 446 1271 l 597 1271 l 478 1090 l 339 1090 m 579 892 q 506 919 533 892 q 478 992 478 946 q 506 1065 478 1038 q 579 1092 533 1092 q 654 1065 626 1092 q 682 992 682 1038 q 654 919 682 946 q 579 892 626 892 m 254 892 q 179 919 207 892 q 151 992 151 946 q 179 1065 151 1038 q 254 1092 207 1092 q 328 1065 300 1092 q 356 992 356 1038 q 328 919 356 946 q 254 892 300 892 z "},"Ά":{"ha":833,"x_min":-24,"x_max":785,"o":"m 49 0 l 304 1014 l 528 1014 l 785 0 l 607 0 l 551 246 l 282 246 l 226 0 l 49 0 m 314 388 l 519 388 l 458 660 q 432 783 443 728 q 417 863 421 838 q 401 783 413 838 q 375 661 390 728 l 314 388 m -24 792 l 56 1014 l 218 1014 l 128 792 l -24 792 z "},"·":{"ha":833,"x_min":288,"x_max":546,"o":"m 417 368 q 323 403 358 368 q 288 496 288 439 q 323 589 288 553 q 417 625 358 625 q 510 589 475 625 q 546 496 546 553 q 510 403 546 439 q 417 368 475 368 z "},"Έ":{"ha":833,"x_min":-185,"x_max":731,"o":"m 122 0 l 122 1014 l 731 1014 l 731 861 l 293 861 l 293 597 l 682 597 l 682 450 l 293 450 l 293 153 l 731 153 l 731 0 l 122 0 m -185 792 l -106 1014 l 57 1014 l -33 792 l -185 792 z "},"Ή":{"ha":833,"x_min":-185,"x_max":726,"o":"m -185 792 l -106 1014 l 57 1014 l -33 792 l -185 792 m 107 0 l 107 1014 l 281 1014 l 281 603 l 553 603 l 553 1014 l 726 1014 l 726 0 l 553 0 l 553 446 l 281 446 l 281 0 l 107 0 z "},"Ί":{"ha":833,"x_min":-185,"x_max":708,"o":"m -185 792 l -106 1014 l 57 1014 l -33 792 l -185 792 m 125 0 l 125 157 l 329 157 l 329 857 l 125 857 l 125 1014 l 708 1014 l 708 857 l 504 857 l 504 157 l 708 157 l 708 0 l 125 0 z "},"Ό":{"ha":833,"x_min":-140,"x_max":733,"o":"m -140 792 l -61 1014 l 101 1014 l 11 792 l -140 792 m 417 -14 q 185 69 271 -14 q 100 300 100 153 l 100 714 q 185 944 100 861 q 417 1028 271 1028 q 648 944 563 1028 q 733 715 733 861 l 733 300 q 648 69 733 153 q 417 -14 563 -14 m 417 139 q 524 177 488 139 q 560 286 560 215 l 560 728 q 524 837 560 799 q 417 875 488 875 q 310 837 346 875 q 274 728 274 799 l 274 286 q 310 177 274 215 q 417 139 346 139 z "},"Ύ":{"ha":833,"x_min":-222,"x_max":801,"o":"m -222 792 l -143 1014 l 19 1014 l -71 792 l -222 792 m 329 0 l 329 368 l 32 1014 l 215 1014 l 372 663 q 403 581 390 621 q 419 518 415 540 q 437 581 425 540 q 467 663 449 621 l 621 1014 l 801 1014 l 504 368 l 504 0 l 329 0 z "},"Ώ":{"ha":833,"x_min":-140,"x_max":765,"o":"m 69 0 l 69 160 l 271 160 l 271 167 q 188 195 231 171 q 115 267 144 219 q 85 389 85 315 l 85 722 q 126 883 85 814 q 242 990 167 951 q 417 1028 317 1028 q 592 990 517 1028 q 708 883 667 951 q 749 722 749 814 l 749 389 q 719 268 749 315 q 646 197 689 221 q 563 168 603 172 l 563 160 l 765 160 l 765 0 l 472 0 l 472 250 q 547 287 518 250 q 575 382 575 324 l 575 722 q 532 834 575 792 q 417 876 489 876 q 301 834 344 876 q 258 722 258 792 l 258 382 q 287 287 258 324 q 361 250 315 250 l 361 0 l 69 0 m -140 792 l -61 1014 l 101 1014 l 11 792 l -140 792 z "},"ΐ":{"ha":833,"x_min":64,"x_max":772,"o":"m 572 0 q 391 68 460 0 q 322 247 322 136 l 322 607 l 64 607 l 64 764 l 496 764 l 496 247 q 520 182 496 207 q 585 157 544 157 l 772 157 l 772 0 l 572 0 m 339 1090 l 446 1271 l 597 1271 l 478 1090 l 339 1090 m 579 892 q 506 919 533 892 q 478 992 478 946 q 506 1065 478 1038 q 579 1092 533 1092 q 654 1065 626 1092 q 682 992 682 1038 q 654 919 682 946 q 579 892 626 892 m 254 892 q 179 919 207 892 q 151 992 151 946 q 179 1065 151 1038 q 254 1092 207 1092 q 328 1065 300 1092 q 356 992 356 1038 q 328 919 356 946 q 254 892 300 892 z "},"Α":{"ha":833,"x_min":49,"x_max":785,"o":"m 49 0 l 304 1014 l 528 1014 l 785 0 l 607 0 l 551 246 l 282 246 l 226 0 l 49 0 m 314 388 l 519 388 l 458 660 q 432 783 443 728 q 417 863 421 838 q 401 783 413 838 q 375 661 390 728 l 314 388 z "},"Β":{"ha":833,"x_min":107,"x_max":761,"o":"m 107 0 l 107 1014 l 418 1014 q 651 943 564 1014 q 738 753 738 872 q 690 610 738 669 q 565 538 642 550 l 565 535 q 667 494 622 528 q 736 406 711 460 q 761 289 761 353 q 721 136 761 201 q 607 35 681 71 q 433 0 533 0 l 107 0 m 276 596 l 415 596 q 524 633 483 596 q 564 733 564 669 q 524 833 564 796 q 415 869 485 869 l 276 869 l 276 596 m 276 144 l 424 144 q 544 185 500 144 q 588 297 588 226 q 544 412 588 368 q 424 456 500 456 l 276 456 l 276 144 z "},"Γ":{"ha":833,"x_min":168,"x_max":775,"o":"m 168 0 l 168 1014 l 775 1014 l 775 857 l 342 857 l 342 0 l 168 0 z "},"Δ":{"ha":833,"x_min":49,"x_max":785,"o":"m 49 0 l 304 1014 l 528 1014 l 785 0 l 49 0 m 375 661 l 260 151 l 572 151 l 456 660 q 432 771 443 714 q 415 860 421 828 q 399 772 410 828 q 375 661 388 715 z "},"Ε":{"ha":833,"x_min":122,"x_max":731,"o":"m 122 0 l 122 1014 l 731 1014 l 731 861 l 293 861 l 293 597 l 682 597 l 682 450 l 293 450 l 293 153 l 731 153 l 731 0 l 122 0 z "},"Ζ":{"ha":833,"x_min":110,"x_max":724,"o":"m 110 0 l 110 161 l 517 857 l 119 857 l 119 1014 l 708 1014 l 708 853 l 300 157 l 724 157 l 724 0 l 110 0 z "},"Η":{"ha":833,"x_min":107,"x_max":726,"o":"m 107 0 l 107 1014 l 281 1014 l 281 603 l 553 603 l 553 1014 l 726 1014 l 726 0 l 553 0 l 553 446 l 281 446 l 281 0 l 107 0 z "},"Θ":{"ha":833,"x_min":100,"x_max":733,"o":"m 417 -14 q 185 67 271 -14 q 100 286 100 149 l 100 728 q 185 947 100 865 q 417 1028 271 1028 q 648 947 563 1028 q 733 729 733 865 l 733 286 q 648 67 733 149 q 417 -14 563 -14 m 417 139 q 524 177 488 139 q 560 286 560 215 l 560 728 q 524 837 560 799 q 417 875 488 875 q 310 837 346 875 q 274 728 274 799 l 274 286 q 310 177 274 215 q 417 139 346 139 m 315 435 l 315 596 l 517 596 l 517 435 l 315 435 z "},"Ι":{"ha":833,"x_min":125,"x_max":708,"o":"m 125 0 l 125 157 l 329 157 l 329 857 l 125 857 l 125 1014 l 708 1014 l 708 857 l 504 857 l 504 157 l 708 157 l 708 0 l 125 0 z "},"Κ":{"ha":833,"x_min":106,"x_max":790,"o":"m 106 0 l 106 1014 l 279 1014 l 279 600 l 399 600 l 592 1014 l 779 1014 l 551 531 l 790 0 l 597 0 l 397 449 l 279 449 l 279 0 l 106 0 z "},"Λ":{"ha":833,"x_min":49,"x_max":785,"o":"m 49 0 l 304 1014 l 528 1014 l 785 0 l 607 0 l 456 660 q 435 756 444 710 q 421 831 426 801 q 415 860 415 860 q 410 831 415 860 q 395 756 404 801 q 375 661 386 710 l 225 0 l 49 0 z "},"Μ":{"ha":833,"x_min":75,"x_max":758,"o":"m 75 0 l 75 1014 l 301 1014 l 415 578 l 531 1014 l 758 1014 l 758 0 l 596 0 l 596 426 q 601 608 596 514 q 613 790 606 701 q 628 950 619 878 l 485 440 l 342 440 l 204 938 q 227 709 217 842 q 238 426 238 576 l 238 0 l 75 0 z "},"Ν":{"ha":833,"x_min":100,"x_max":733,"o":"m 100 0 l 100 1014 l 313 1014 l 594 194 q 586 299 590 239 q 578 422 582 360 q 575 533 575 485 l 575 1014 l 733 1014 l 733 0 l 521 0 l 242 819 q 249 722 244 779 q 256 606 253 665 q 258 496 258 546 l 258 0 l 100 0 z "},"Ξ":{"ha":833,"x_min":99,"x_max":735,"o":"m 99 853 l 99 1014 l 735 1014 l 735 853 l 99 853 m 140 433 l 140 594 l 693 594 l 693 433 l 140 433 m 99 0 l 99 161 l 735 161 l 735 0 l 99 0 z "},"Ο":{"ha":833,"x_min":100,"x_max":733,"o":"m 417 -14 q 185 69 271 -14 q 100 300 100 153 l 100 714 q 185 944 100 861 q 417 1028 271 1028 q 648 944 563 1028 q 733 715 733 861 l 733 300 q 648 69 733 153 q 417 -14 563 -14 m 417 139 q 524 177 488 139 q 560 286 560 215 l 560 728 q 524 837 560 799 q 417 875 488 875 q 310 837 346 875 q 274 728 274 799 l 274 286 q 310 177 274 215 q 417 139 346 139 z "},"Π":{"ha":833,"x_min":108,"x_max":725,"o":"m 108 0 l 108 1014 l 725 1014 l 725 0 l 551 0 l 551 857 l 282 857 l 282 0 l 108 0 z "},"Ρ":{"ha":833,"x_min":107,"x_max":781,"o":"m 107 0 l 107 1014 l 444 1014 q 622 975 546 1014 q 739 866 697 936 q 781 701 781 796 q 739 537 781 607 q 622 428 697 467 q 444 389 546 389 l 281 389 l 281 0 l 107 0 m 281 542 l 444 542 q 561 586 518 542 q 604 701 604 631 q 561 817 604 772 q 444 861 518 861 l 281 861 l 281 542 z "},"Σ":{"ha":833,"x_min":96,"x_max":764,"o":"m 96 0 l 96 151 l 381 517 l 96 863 l 96 1014 l 764 1014 l 764 858 l 306 858 l 589 521 l 306 156 l 764 156 l 764 0 l 96 0 z "},"Τ":{"ha":833,"x_min":64,"x_max":769,"o":"m 329 0 l 329 857 l 64 857 l 64 1014 l 769 1014 l 769 857 l 504 857 l 504 0 l 329 0 z "},"Υ":{"ha":833,"x_min":32,"x_max":801,"o":"m 329 0 l 329 368 l 32 1014 l 215 1014 l 372 663 q 403 581 390 621 q 419 518 415 540 q 437 581 425 540 q 467 663 449 621 l 621 1014 l 801 1014 l 504 368 l 504 0 l 329 0 z "},"Φ":{"ha":833,"x_min":47,"x_max":786,"o":"m 329 -35 l 329 76 q 183 115 246 78 q 83 219 119 153 q 47 374 47 285 l 47 664 q 83 822 47 756 q 183 926 119 889 q 329 965 246 964 l 329 1069 l 504 1069 l 504 965 q 651 926 588 964 q 750 822 714 889 q 786 664 786 754 l 786 374 q 750 219 786 285 q 651 115 714 153 q 504 76 588 78 l 504 -35 l 329 -35 m 347 214 l 347 828 q 238 784 279 828 q 197 664 197 740 l 197 374 q 238 257 197 300 q 347 214 279 214 m 486 214 q 595 257 554 214 q 636 374 636 300 l 636 664 q 595 784 636 740 q 486 828 554 828 l 486 214 z "},"Χ":{"ha":833,"x_min":39,"x_max":794,"o":"m 39 0 l 319 519 l 56 1014 l 250 1014 l 378 760 q 403 706 392 732 q 419 667 414 681 q 435 706 424 681 q 460 760 446 732 l 589 1014 l 778 1014 l 514 524 l 794 0 l 600 0 l 457 281 q 431 334 443 307 q 414 376 419 361 q 397 335 408 361 q 372 281 386 308 l 228 0 l 39 0 z "},"Ψ":{"ha":833,"x_min":56,"x_max":778,"o":"m 329 0 l 329 236 q 187 277 249 239 q 90 381 125 315 q 56 533 56 447 l 56 1014 l 208 1014 l 208 533 q 244 419 208 461 q 346 376 281 376 l 346 1014 l 488 1014 l 488 376 q 589 419 553 376 q 625 533 625 461 l 625 1014 l 778 1014 l 778 533 q 743 383 778 449 q 647 279 708 318 q 504 236 585 240 l 504 0 l 329 0 z "},"Ω":{"ha":833,"x_min":69,"x_max":765,"o":"m 69 0 l 69 160 l 271 160 l 271 167 q 188 195 231 171 q 115 267 144 219 q 85 389 85 315 l 85 722 q 126 883 85 814 q 242 990 167 951 q 417 1028 317 1028 q 592 990 517 1028 q 708 883 667 951 q 749 722 749 814 l 749 389 q 719 268 749 315 q 646 197 689 221 q 563 168 603 172 l 563 160 l 765 160 l 765 0 l 472 0 l 472 250 q 547 287 518 250 q 575 382 575 324 l 575 722 q 532 834 575 792 q 417 876 489 876 q 301 834 344 876 q 258 722 258 792 l 258 382 q 287 287 258 324 q 361 250 315 250 l 361 0 l 69 0 z "},"Ϊ":{"ha":833,"x_min":125,"x_max":708,"o":"m 579 1122 q 506 1149 533 1122 q 478 1222 478 1176 q 506 1297 478 1269 q 579 1324 533 1324 q 654 1297 626 1324 q 682 1222 682 1269 q 654 1149 682 1176 q 579 1122 626 1122 m 254 1122 q 179 1149 207 1122 q 151 1222 151 1176 q 179 1297 151 1269 q 254 1324 207 1324 q 328 1297 300 1324 q 356 1222 356 1269 q 328 1149 356 1176 q 254 1122 300 1122 m 125 0 l 125 157 l 329 157 l 329 857 l 125 857 l 125 1014 l 708 1014 l 708 857 l 504 857 l 504 157 l 708 157 l 708 0 l 125 0 z "},"Ϋ":{"ha":833,"x_min":32,"x_max":801,"o":"m 579 1122 q 506 1149 533 1122 q 478 1222 478 1176 q 506 1297 478 1269 q 579 1324 533 1324 q 654 1297 626 1324 q 682 1222 682 1269 q 654 1149 682 1176 q 579 1122 626 1122 m 254 1122 q 179 1149 207 1122 q 151 1222 151 1176 q 179 1297 151 1269 q 254 1324 207 1324 q 328 1297 300 1324 q 356 1222 356 1269 q 328 1149 356 1176 q 254 1122 300 1122 m 329 0 l 329 368 l 32 1014 l 215 1014 l 372 663 q 403 581 390 621 q 419 518 415 540 q 437 581 425 540 q 467 663 449 621 l 621 1014 l 801 1014 l 504 368 l 504 0 l 329 0 z "},"ά":{"ha":833,"x_min":97,"x_max":726,"o":"m 299 896 l 444 1090 l 636 1090 l 478 896 l 299 896 m 347 -14 q 167 65 236 -14 q 97 278 97 144 l 97 485 q 166 699 97 619 q 347 778 235 778 q 481 738 426 778 q 556 626 535 699 l 558 626 l 553 764 l 726 764 l 726 0 l 557 0 l 557 138 l 556 138 q 481 26 535 65 q 347 -14 428 -14 m 413 136 q 516 176 479 136 q 553 290 553 217 l 553 474 q 516 588 553 547 q 413 628 479 628 q 308 589 346 628 q 271 478 271 550 l 271 286 q 308 175 271 214 q 413 136 346 136 z "},"έ":{"ha":833,"x_min":79,"x_max":764,"o":"m 471 -10 l 382 -10 q 224 19 292 -10 q 117 101 156 49 q 79 224 79 154 q 130 356 79 304 q 267 411 181 408 l 267 419 q 147 466 193 424 q 101 574 101 508 q 181 719 101 665 q 392 774 261 774 l 461 774 q 668 716 592 774 q 746 560 744 658 l 575 560 q 544 615 575 594 q 461 635 513 635 l 392 635 q 306 612 338 635 q 274 547 274 589 q 304 485 274 508 q 389 461 335 461 l 560 461 l 560 324 l 382 324 q 290 298 324 324 q 256 228 256 272 q 290 158 256 183 q 382 132 324 132 l 471 132 q 561 155 528 132 q 594 217 594 178 l 764 217 q 685 51 764 113 q 471 -10 606 -10 m 308 896 l 456 1090 l 647 1090 l 488 896 l 308 896 z "},"ή":{"ha":833,"x_min":107,"x_max":729,"o":"m 107 0 l 107 764 l 276 764 l 276 621 q 344 735 290 693 q 482 778 399 778 q 662 703 594 778 q 729 501 729 628 l 729 0 l 556 0 l 556 481 q 519 590 556 551 q 419 628 482 628 q 317 589 354 628 q 281 478 281 550 l 281 0 l 107 0 m 315 896 l 463 1090 l 654 1090 l 494 896 l 315 896 z "},"ί":{"ha":833,"x_min":64,"x_max":772,"o":"m 572 0 q 391 68 460 0 q 322 247 322 136 l 322 607 l 64 607 l 64 764 l 496 764 l 496 247 q 520 182 496 207 q 585 157 544 157 l 772 157 l 772 0 l 572 0 m 301 896 l 449 1090 l 640 1090 l 481 896 l 301 896 z "},"ΰ":{"ha":833,"x_min":104,"x_max":729,"o":"m 417 -14 q 188 67 271 -14 q 104 289 104 149 l 104 764 l 278 764 l 278 290 q 314 178 278 218 q 417 138 350 138 q 519 178 482 138 q 556 290 556 218 l 556 764 l 729 764 l 729 289 q 644 67 729 149 q 417 -14 560 -14 m 339 1090 l 446 1271 l 597 1271 l 478 1090 l 339 1090 m 579 892 q 506 919 533 892 q 478 992 478 946 q 506 1065 478 1038 q 579 1092 533 1092 q 654 1065 626 1092 q 682 992 682 1038 q 654 919 682 946 q 579 892 626 892 m 254 892 q 179 919 207 892 q 151 992 151 946 q 179 1065 151 1038 q 254 1092 207 1092 q 328 1065 300 1092 q 356 992 356 1038 q 328 919 356 946 q 254 892 300 892 z "},"α":{"ha":833,"x_min":97,"x_max":726,"o":"m 347 -14 q 167 65 236 -14 q 97 278 97 144 l 97 485 q 166 699 97 619 q 347 778 235 778 q 481 738 426 778 q 556 626 535 699 l 558 626 l 553 764 l 726 764 l 726 0 l 557 0 l 557 138 l 556 138 q 481 26 535 65 q 347 -14 428 -14 m 413 136 q 516 176 479 136 q 553 290 553 217 l 553 474 q 516 588 553 547 q 413 628 479 628 q 308 589 346 628 q 271 478 271 550 l 271 286 q 308 175 271 214 q 413 136 346 136 z "},"β":{"ha":833,"x_min":101,"x_max":772,"o":"m 101 -250 l 101 725 q 142 883 101 815 q 252 990 182 951 q 415 1028 322 1028 q 576 994 506 1028 q 685 901 646 961 q 724 764 724 842 q 682 633 724 689 q 575 563 640 578 l 575 560 q 678 511 633 549 q 747 416 722 474 q 772 289 772 358 q 736 133 772 201 q 634 26 700 65 q 481 -14 568 -14 q 340 28 393 -14 q 274 144 286 69 l 269 144 l 275 -36 l 275 -250 l 101 -250 m 436 147 q 552 193 508 147 q 596 315 596 239 q 552 438 596 392 q 436 483 508 483 l 369 483 l 369 611 l 414 611 q 515 648 478 611 q 553 746 553 685 q 515 844 553 807 q 414 881 478 881 q 313 838 351 881 q 275 725 275 796 l 275 315 q 319 193 275 239 q 436 147 364 147 z "},"γ":{"ha":833,"x_min":57,"x_max":776,"o":"m 331 -250 l 331 0 l 57 764 l 238 764 l 388 303 q 408 218 401 260 q 421 150 415 176 q 433 218 425 176 q 453 301 440 260 l 600 764 l 776 764 l 504 0 l 504 -250 l 331 -250 z "},"δ":{"ha":833,"x_min":97,"x_max":736,"o":"m 417 -14 q 249 25 321 -12 q 138 131 178 63 q 97 289 97 199 l 97 418 q 132 570 97 504 q 228 674 167 636 q 371 711 290 711 l 378 711 q 271 788 332 747 q 131 878 210 829 l 131 1014 l 715 1014 l 715 874 l 338 874 q 633 654 531 776 q 736 356 736 532 q 654 74 736 164 q 417 -14 572 -15 m 417 138 q 524 188 486 138 q 561 356 561 238 q 549 476 561 422 q 503 582 538 531 l 417 582 q 310 541 350 582 q 271 431 271 500 l 271 289 q 310 177 271 217 q 417 138 349 138 z "},"ε":{"ha":833,"x_min":79,"x_max":764,"o":"m 471 -10 l 382 -10 q 224 19 292 -10 q 117 101 156 49 q 79 224 79 154 q 130 356 79 304 q 267 411 181 408 l 267 419 q 147 466 193 424 q 101 574 101 508 q 181 719 101 665 q 392 774 261 774 l 461 774 q 668 716 592 774 q 746 560 744 658 l 575 560 q 544 615 575 594 q 461 635 513 635 l 392 635 q 306 612 338 635 q 274 547 274 589 q 304 485 274 508 q 389 461 335 461 l 560 461 l 560 324 l 382 324 q 290 298 324 324 q 256 228 256 272 q 290 158 256 183 q 382 132 324 132 l 471 132 q 561 155 528 132 q 594 217 594 178 l 764 217 q 685 51 764 113 q 471 -10 606 -10 z "},"ζ":{"ha":833,"x_min":138,"x_max":783,"o":"m 663 -261 l 531 -185 l 593 -92 q 607 -54 607 -72 q 568 -11 607 -22 l 401 36 q 203 143 268 74 q 138 322 138 213 q 206 532 138 431 q 419 744 275 633 l 564 857 l 161 857 l 161 1014 l 779 1014 l 779 856 l 524 636 q 367 473 417 544 q 318 336 318 401 q 458 199 318 239 l 635 149 q 746 86 708 128 q 783 -12 783 44 q 732 -158 783 -82 l 663 -261 z "},"η":{"ha":833,"x_min":107,"x_max":729,"o":"m 107 0 l 107 764 l 276 764 l 276 621 q 344 735 290 693 q 482 778 399 778 q 662 703 594 778 q 729 501 729 628 l 729 0 l 556 0 l 556 481 q 519 590 556 551 q 419 628 482 628 q 317 589 354 628 q 281 478 281 550 l 281 0 l 107 0 z "},"θ":{"ha":833,"x_min":100,"x_max":733,"o":"m 417 -14 q 185 67 271 -14 q 100 286 100 149 l 100 714 q 185 933 100 851 q 417 1014 271 1014 q 648 933 563 1014 q 733 715 733 851 l 733 286 q 648 67 733 149 q 417 -14 563 -14 m 274 581 l 560 581 l 560 714 q 523 824 560 786 q 417 863 486 863 q 310 824 347 863 q 274 714 274 786 l 274 581 m 417 138 q 523 176 486 138 q 560 286 560 214 l 560 435 l 274 435 l 274 286 q 310 176 274 214 q 417 138 347 138 z "},"ι":{"ha":833,"x_min":64,"x_max":772,"o":"m 572 0 q 391 68 460 0 q 322 247 322 136 l 322 607 l 64 607 l 64 764 l 496 764 l 496 247 q 520 182 496 207 q 585 157 544 157 l 772 157 l 772 0 l 572 0 z "},"κ":{"ha":833,"x_min":119,"x_max":800,"o":"m 119 0 l 119 764 l 293 764 l 293 469 l 415 469 l 590 764 l 786 764 l 564 394 l 800 0 l 601 0 l 415 313 l 293 313 l 293 0 l 119 0 z "},"λ":{"ha":833,"x_min":49,"x_max":785,"o":"m 49 0 l 338 754 l 235 1014 l 418 1014 l 785 0 l 601 0 l 451 447 q 431 527 439 486 q 418 593 422 568 q 408 527 415 568 q 388 447 400 486 l 236 0 l 49 0 z "},"μ":{"ha":833,"x_min":107,"x_max":731,"o":"m 107 -250 l 107 764 l 281 764 l 281 286 q 317 176 281 215 q 418 136 353 136 q 520 176 483 136 q 557 286 557 215 l 557 764 l 731 764 l 731 0 l 558 0 l 563 146 l 560 146 q 517 28 553 71 q 418 -14 482 -14 q 319 28 353 -14 q 279 146 285 71 l 276 146 l 281 -36 l 281 -250 l 107 -250 z "},"ν":{"ha":833,"x_min":50,"x_max":783,"o":"m 307 0 l 50 764 l 232 764 l 379 300 q 403 216 393 258 q 418 143 414 174 q 433 216 424 174 q 454 299 442 258 l 600 764 l 783 764 l 528 0 l 307 0 z "},"ξ":{"ha":833,"x_min":97,"x_max":769,"o":"m 439 879 q 335 842 375 879 q 296 750 296 806 q 335 661 296 694 q 439 628 374 628 l 656 628 l 656 476 l 450 476 q 324 435 372 476 q 275 328 275 393 q 403 196 275 231 l 614 139 q 747 27 725 110 q 701 -162 769 -56 l 638 -261 l 507 -190 l 571 -92 q 581 -44 588 -65 q 542 -14 574 -22 l 354 38 q 97 321 97 107 q 151 480 97 414 q 292 564 206 546 l 292 567 q 173 640 218 583 q 128 775 128 696 q 167 906 128 849 q 276 995 206 963 q 439 1028 346 1028 q 603 996 532 1028 q 715 908 674 964 q 760 778 756 851 l 586 778 q 541 851 581 822 q 439 879 501 879 z "},"ο":{"ha":833,"x_min":97,"x_max":736,"o":"m 417 -12 q 183 70 269 -12 q 97 293 97 153 l 97 471 q 183 694 97 613 q 417 776 269 776 q 650 694 564 776 q 736 471 736 613 l 736 293 q 650 70 736 153 q 417 -12 564 -12 m 417 139 q 524 177 486 139 q 563 288 563 215 l 563 476 q 524 587 563 549 q 417 625 486 625 q 309 587 347 625 q 271 476 271 549 l 271 288 q 309 177 271 215 q 417 139 347 139 z "},"π":{"ha":833,"x_min":22,"x_max":788,"o":"m 746 -7 q 559 63 628 -7 q 490 253 490 133 l 490 614 l 299 614 l 299 0 l 131 0 l 131 614 l 22 614 l 22 764 l 786 764 l 786 614 l 658 614 l 658 253 q 684 178 658 204 q 754 151 710 151 l 788 151 l 788 -7 l 746 -7 z "},"ρ":{"ha":833,"x_min":108,"x_max":733,"o":"m 108 -250 l 108 486 q 147 640 108 575 q 256 742 185 706 q 421 778 326 778 q 648 699 563 778 q 733 486 733 619 l 733 279 q 665 65 733 144 q 482 -14 597 -14 q 344 28 397 -14 q 281 146 292 71 l 276 146 l 282 -36 l 282 -250 l 108 -250 m 421 136 q 523 175 488 136 q 558 286 558 214 l 558 478 q 523 589 558 550 q 421 628 488 628 q 317 589 353 628 q 282 478 282 550 l 282 286 q 318 176 282 215 q 421 136 354 136 z "},"ς":{"ha":833,"x_min":104,"x_max":749,"o":"m 461 -190 l 525 -92 q 535 -44 543 -65 q 496 -14 528 -24 l 338 35 q 165 144 226 69 q 104 322 104 219 l 104 478 q 144 637 104 569 q 258 741 185 704 q 428 778 331 778 q 658 703 572 778 q 749 501 744 629 l 575 501 q 532 594 571 561 q 428 626 493 626 q 318 588 358 626 q 278 479 278 550 l 278 322 q 307 244 278 278 q 385 194 336 210 l 568 139 q 701 26 678 107 q 654 -162 724 -56 l 592 -261 l 461 -190 z "},"σ":{"ha":833,"x_min":97,"x_max":779,"o":"m 415 -14 q 247 24 318 -14 q 137 128 176 61 q 97 286 97 196 l 97 464 q 137 622 97 554 q 247 726 176 689 q 415 764 318 764 l 779 764 l 779 615 l 575 615 l 575 611 q 690 547 649 599 q 732 415 732 496 l 732 286 q 693 128 732 196 q 583 24 654 61 q 415 -14 511 -14 m 415 138 q 521 177 483 138 q 558 286 558 217 l 558 464 q 521 578 558 543 q 415 613 483 613 q 309 573 347 613 q 271 464 271 533 l 271 286 q 309 177 271 217 q 415 138 347 138 z "},"τ":{"ha":833,"x_min":49,"x_max":739,"o":"m 507 0 q 337 62 400 0 q 274 229 274 124 l 274 607 l 49 607 l 49 764 l 739 764 l 739 607 l 449 607 l 449 233 q 467 178 449 200 q 519 157 486 157 l 732 157 l 732 0 l 507 0 z "},"υ":{"ha":833,"x_min":104,"x_max":729,"o":"m 417 -14 q 188 67 271 -14 q 104 289 104 149 l 104 764 l 278 764 l 278 290 q 314 178 278 218 q 417 138 350 138 q 519 178 482 138 q 556 290 556 218 l 556 764 l 729 764 l 729 289 q 644 67 729 149 q 417 -14 560 -14 z "},"φ":{"ha":833,"x_min":56,"x_max":778,"o":"m 329 -250 l 329 0 q 188 39 250 1 q 91 140 126 76 q 56 288 56 204 l 56 475 q 116 674 56 594 q 275 771 176 754 l 275 603 q 227 560 244 594 q 210 479 210 526 l 208 285 q 247 176 208 217 q 349 135 286 135 l 349 764 l 494 764 q 642 727 578 764 q 742 626 706 690 q 778 475 778 561 l 778 288 q 742 140 778 204 q 645 39 707 76 q 504 0 583 1 l 504 -250 l 329 -250 m 485 135 q 588 176 550 135 q 625 285 625 217 l 625 479 q 588 588 625 546 q 489 631 550 631 l 485 631 l 485 135 z "},"χ":{"ha":833,"x_min":50,"x_max":783,"o":"m 50 0 l 317 394 l 68 764 l 264 764 l 382 576 q 403 539 393 560 q 417 506 413 518 q 431 539 422 518 q 451 576 440 560 l 569 764 l 767 764 l 518 394 l 783 0 l 586 0 l 454 210 q 433 248 443 226 q 417 282 422 269 q 401 248 411 269 q 381 210 392 226 l 247 0 l 50 0 z "},"ψ":{"ha":833,"x_min":56,"x_max":778,"o":"m 329 -250 l 329 0 q 187 38 249 1 q 90 137 125 74 q 56 285 56 200 l 56 764 l 208 764 l 208 285 q 244 175 208 214 q 346 136 281 136 l 346 764 l 488 764 l 488 136 q 589 175 553 136 q 625 285 625 214 l 625 764 l 778 764 l 778 285 q 743 137 778 200 q 647 38 708 74 q 504 0 585 1 l 504 -250 l 329 -250 z "},"ω":{"ha":833,"x_min":58,"x_max":775,"o":"m 246 -14 q 110 52 161 -14 q 58 226 58 118 l 58 472 q 119 679 58 597 q 285 778 181 761 l 285 610 q 231 565 250 601 q 213 476 213 529 l 213 214 q 231 147 213 172 q 281 122 249 122 q 328 147 311 122 q 346 214 346 172 l 346 479 l 488 479 l 488 214 q 505 147 488 172 q 553 122 522 122 q 603 147 585 122 q 621 214 621 172 l 621 476 q 601 563 621 528 q 546 607 582 599 l 546 775 q 713 678 650 758 q 775 472 775 597 l 775 226 q 723 52 775 118 q 585 -14 671 -14 q 465 35 511 -14 q 417 161 418 85 q 366 34 413 82 q 246 -14 319 -14 z "},"ϊ":{"ha":833,"x_min":64,"x_max":772,"o":"m 572 0 q 391 68 460 0 q 322 247 322 136 l 322 607 l 64 607 l 64 764 l 496 764 l 496 247 q 520 182 496 207 q 585 157 544 157 l 772 157 l 772 0 l 572 0 m 572 892 q 499 919 526 892 q 471 992 471 946 q 499 1065 471 1038 q 572 1092 526 1092 q 647 1065 619 1092 q 675 992 675 1038 q 647 919 675 946 q 572 892 619 892 m 247 892 q 172 919 200 892 q 144 992 144 946 q 172 1065 144 1038 q 247 1092 200 1092 q 321 1065 293 1092 q 349 992 349 1038 q 321 919 349 946 q 247 892 293 892 z "},"ϋ":{"ha":833,"x_min":104,"x_max":729,"o":"m 417 -14 q 188 67 271 -14 q 104 289 104 149 l 104 764 l 278 764 l 278 290 q 314 178 278 218 q 417 138 350 138 q 519 178 482 138 q 556 290 556 218 l 556 764 l 729 764 l 729 289 q 644 67 729 149 q 417 -14 560 -14 m 579 892 q 506 919 533 892 q 478 992 478 946 q 506 1065 478 1038 q 579 1092 533 1092 q 654 1065 626 1092 q 682 992 682 1038 q 654 919 682 946 q 579 892 626 892 m 254 892 q 179 919 207 892 q 151 992 151 946 q 179 1065 151 1038 q 254 1092 207 1092 q 328 1065 300 1092 q 356 992 356 1038 q 328 919 356 946 q 254 892 300 892 z "},"ό":{"ha":833,"x_min":97,"x_max":736,"o":"m 417 -12 q 183 70 269 -12 q 97 293 97 153 l 97 471 q 183 694 97 613 q 417 776 269 776 q 650 694 564 776 q 736 471 736 613 l 736 293 q 650 70 736 153 q 417 -12 564 -12 m 417 139 q 524 177 486 139 q 563 288 563 215 l 563 476 q 524 587 563 549 q 417 625 486 625 q 309 587 347 625 q 271 476 271 549 l 271 288 q 309 177 271 215 q 417 139 347 139 m 308 896 l 456 1090 l 647 1090 l 488 896 l 308 896 z "},"ύ":{"ha":833,"x_min":104,"x_max":729,"o":"m 417 -14 q 188 67 271 -14 q 104 289 104 149 l 104 764 l 278 764 l 278 290 q 314 178 278 218 q 417 138 350 138 q 519 178 482 138 q 556 290 556 218 l 556 764 l 729 764 l 729 289 q 644 67 729 149 q 417 -14 560 -14 m 308 896 l 456 1090 l 647 1090 l 488 896 l 308 896 z "},"ώ":{"ha":833,"x_min":58,"x_max":775,"o":"m 246 -14 q 110 52 161 -14 q 58 226 58 118 l 58 472 q 119 679 58 597 q 285 778 181 761 l 285 610 q 231 565 250 601 q 213 476 213 529 l 213 214 q 231 147 213 172 q 281 122 249 122 q 328 147 311 122 q 346 214 346 172 l 346 479 l 488 479 l 488 214 q 505 147 488 172 q 553 122 522 122 q 603 147 585 122 q 621 214 621 172 l 621 476 q 601 563 621 528 q 546 607 582 599 l 546 775 q 713 678 650 758 q 775 472 775 597 l 775 226 q 723 52 775 118 q 585 -14 671 -14 q 465 35 511 -14 q 417 161 418 85 q 366 34 413 82 q 246 -14 319 -14 m 292 896 l 439 1090 l 631 1090 l 471 896 l 292 896 z "},"Ϗ":{"ha":833,"x_min":106,"x_max":806,"o":"m 106 0 l 106 1014 l 279 1014 l 279 600 l 399 600 l 592 1014 l 779 1014 l 551 531 l 735 122 l 806 122 l 806 -8 q 741 -188 806 -126 q 554 -250 676 -250 l 483 -250 l 483 -103 l 546 -103 q 622 -76 594 -103 q 649 0 649 -50 l 597 0 l 397 449 l 279 449 l 279 0 l 106 0 z "},"ϕ":{"ha":833,"x_min":56,"x_max":778,"o":"m 329 -250 l 329 0 q 187 40 249 3 q 90 142 125 78 q 56 290 56 207 l 56 475 q 90 622 56 558 q 187 724 125 686 q 329 764 249 761 l 329 1014 l 504 1014 l 504 764 q 647 724 585 761 q 743 622 708 686 q 778 475 778 558 l 778 290 q 743 142 778 207 q 647 40 708 78 q 504 0 585 3 l 504 -250 l 329 -250 m 351 132 l 351 633 q 247 592 285 633 q 208 481 208 551 l 208 285 q 247 174 208 215 q 351 132 285 132 m 482 132 q 587 174 549 132 q 625 285 625 215 l 625 481 q 587 592 625 551 q 482 633 549 633 l 482 132 z "},"ϖ":{"ha":833,"x_min":17,"x_max":817,"o":"m 247 -14 q 114 50 164 -14 q 64 221 64 114 l 64 419 q 91 538 64 488 q 167 613 118 588 l 17 613 l 17 764 l 817 764 l 817 613 l 667 613 q 742 538 715 588 q 769 419 769 488 l 769 221 q 719 50 769 114 q 585 -14 669 -14 q 470 29 515 -14 q 417 144 425 72 q 362 29 407 72 q 247 -14 317 -14 m 282 121 q 353 210 353 121 l 353 463 l 481 463 l 481 210 q 551 121 481 121 q 621 210 621 121 l 621 524 q 551 613 621 613 l 282 613 q 213 524 213 613 l 213 210 q 282 121 213 121 z "},"ϗ":{"ha":833,"x_min":107,"x_max":789,"o":"m 107 0 l 107 764 l 264 764 l 264 394 q 260 262 264 332 q 244 142 257 192 l 515 764 l 726 764 l 726 122 l 789 122 l 789 -8 q 724 -188 789 -126 q 536 -250 660 -250 l 465 -250 l 465 -103 l 529 -103 q 604 -76 576 -103 q 632 0 632 -50 l 569 0 l 569 371 q 572 497 569 432 q 588 607 575 563 l 318 0 l 107 0 z "},"Ё":{"ha":833,"x_min":122,"x_max":731,"o":"m 122 0 l 122 1014 l 731 1014 l 731 861 l 293 861 l 293 597 l 682 597 l 682 450 l 293 450 l 293 153 l 731 153 l 731 0 l 122 0 m 589 1122 q 515 1149 543 1122 q 488 1222 488 1176 q 515 1297 488 1269 q 589 1324 543 1324 q 664 1297 636 1324 q 692 1222 692 1269 q 664 1149 692 1176 q 589 1122 636 1122 m 264 1122 q 189 1149 217 1122 q 161 1222 161 1176 q 189 1297 161 1269 q 264 1324 217 1324 q 338 1297 310 1324 q 365 1222 365 1269 q 338 1149 365 1176 q 264 1122 310 1122 z "},"Ђ":{"ha":833,"x_min":0,"x_max":775,"o":"m 382 -250 l 382 -85 l 471 -85 q 567 -51 532 -85 q 601 42 601 -18 l 601 410 q 501 543 601 543 q 375 474 442 543 l 318 415 l 318 0 l 144 0 l 144 854 l 0 854 l 0 1014 l 476 1014 l 476 854 l 318 854 l 318 576 l 339 597 q 544 694 432 694 q 712 621 649 694 q 775 425 775 547 l 775 29 q 735 -117 775 -54 q 626 -215 696 -179 q 463 -250 556 -250 l 382 -250 z "},"Ѓ":{"ha":833,"x_min":168,"x_max":775,"o":"m 168 0 l 168 1014 l 775 1014 l 775 857 l 342 857 l 342 0 l 168 0 m 339 1125 l 486 1319 l 672 1319 l 514 1125 l 339 1125 z "},"Є":{"ha":833,"x_min":106,"x_max":750,"o":"m 428 -14 q 257 23 329 -14 q 145 127 185 60 q 106 286 106 194 l 106 728 q 145 887 106 819 q 257 991 185 954 q 428 1028 329 1028 q 597 991 525 1028 q 710 887 669 954 q 750 728 750 819 l 575 728 q 537 837 575 799 q 428 875 499 875 q 318 837 357 875 q 279 728 279 799 l 279 604 l 571 604 l 571 447 l 279 447 l 279 286 q 318 177 279 215 q 428 139 357 139 q 537 177 499 139 q 575 286 575 215 l 750 286 q 710 127 750 194 q 597 23 669 60 q 428 -14 525 -14 z "},"Ѕ":{"ha":833,"x_min":79,"x_max":754,"o":"m 421 -14 q 241 22 318 -14 q 122 126 164 58 q 79 286 79 193 l 250 286 q 297 178 250 218 q 421 138 343 138 q 540 177 496 138 q 583 283 583 217 q 555 372 583 333 q 474 424 526 410 l 338 458 q 164 563 228 486 q 100 744 100 639 q 185 951 100 874 q 411 1028 269 1028 q 578 993 507 1028 q 689 895 650 958 q 728 747 728 832 l 558 747 q 518 842 558 806 q 411 878 478 878 q 308 842 346 878 q 269 750 269 807 q 297 672 269 703 q 372 628 324 642 l 513 593 q 690 482 625 565 q 754 283 754 399 q 713 126 754 193 q 597 23 672 60 q 421 -14 522 -14 z "},"І":{"ha":833,"x_min":125,"x_max":708,"o":"m 125 0 l 125 157 l 329 157 l 329 857 l 125 857 l 125 1014 l 708 1014 l 708 857 l 504 857 l 504 157 l 708 157 l 708 0 l 125 0 z "},"Ї":{"ha":833,"x_min":125,"x_max":708,"o":"m 125 0 l 125 157 l 329 157 l 329 857 l 125 857 l 125 1014 l 708 1014 l 708 857 l 504 857 l 504 157 l 708 157 l 708 0 l 125 0 m 579 1122 q 506 1149 533 1122 q 478 1222 478 1176 q 506 1297 478 1269 q 579 1324 533 1324 q 654 1297 626 1324 q 682 1222 682 1269 q 654 1149 682 1176 q 579 1122 626 1122 m 254 1122 q 179 1149 207 1122 q 151 1222 151 1176 q 179 1297 151 1269 q 254 1324 207 1324 q 328 1297 300 1324 q 356 1222 356 1269 q 328 1149 356 1176 q 254 1122 300 1122 z "},"Ј":{"ha":833,"x_min":42,"x_max":708,"o":"m 375 -14 q 131 71 221 -14 q 42 300 42 156 l 215 300 q 258 181 215 225 q 375 138 300 138 q 492 181 449 138 q 535 299 535 224 l 535 1014 l 708 1014 l 708 299 q 619 70 708 154 q 375 -14 529 -14 z "},"Љ":{"ha":833,"x_min":-11,"x_max":814,"o":"m -11 -7 l -11 132 l 15 132 q 97 278 94 132 l 106 1014 l 519 1014 l 519 610 l 560 610 q 743 545 672 610 q 814 369 814 481 l 814 240 q 743 65 814 129 q 560 0 672 0 l 378 0 l 378 882 l 256 882 l 250 278 q 187 67 249 142 q 22 -7 125 -7 l -11 -7 m 519 132 l 560 132 q 634 161 607 132 q 661 240 661 190 l 661 367 q 634 447 661 418 q 560 476 607 476 l 519 476 l 519 132 z "},"Њ":{"ha":833,"x_min":61,"x_max":814,"o":"m 61 0 l 61 1014 l 213 1014 l 213 618 l 378 618 l 378 1014 l 519 1014 l 519 618 l 560 618 q 744 553 674 618 q 814 376 814 489 l 814 240 q 744 65 814 129 q 560 0 674 0 l 378 0 l 378 485 l 213 485 l 213 0 l 61 0 m 519 132 l 560 132 q 635 161 608 132 q 663 240 663 190 l 663 375 q 635 456 663 428 q 560 485 608 485 l 519 485 l 519 132 z "},"Ћ":{"ha":833,"x_min":0,"x_max":775,"o":"m 144 0 l 144 854 l 0 854 l 0 1014 l 476 1014 l 476 854 l 318 854 l 318 576 l 339 597 q 544 694 432 694 q 712 621 649 694 q 775 425 775 547 l 775 0 l 601 0 l 601 410 q 501 543 601 543 q 375 474 442 543 l 318 415 l 318 0 l 144 0 z "},"Ќ":{"ha":833,"x_min":106,"x_max":790,"o":"m 106 0 l 106 1014 l 279 1014 l 279 600 l 399 600 l 592 1014 l 779 1014 l 551 531 l 790 0 l 597 0 l 397 449 l 279 449 l 279 0 l 106 0 m 311 1125 l 458 1319 l 644 1319 l 486 1125 l 311 1125 z "},"Ў":{"ha":833,"x_min":49,"x_max":785,"o":"m 240 0 l 344 260 l 49 1014 l 238 1014 l 390 567 q 415 485 404 528 q 428 417 425 443 q 440 485 431 443 q 460 567 449 528 l 600 1014 l 785 1014 l 424 0 l 240 0 m 417 1114 q 242 1170 308 1114 q 175 1319 175 1226 l 310 1319 q 339 1246 310 1274 q 417 1218 368 1218 q 495 1246 465 1218 q 525 1319 525 1274 l 660 1319 q 593 1170 660 1226 q 417 1114 526 1114 z "},"Џ":{"ha":833,"x_min":108,"x_max":725,"o":"m 329 -174 l 329 0 l 108 0 l 108 1014 l 282 1014 l 282 161 l 551 161 l 551 1014 l 725 1014 l 725 0 l 504 0 l 504 -174 l 329 -174 z "},"А":{"ha":833,"x_min":49,"x_max":785,"o":"m 49 0 l 304 1014 l 528 1014 l 785 0 l 607 0 l 551 246 l 282 246 l 226 0 l 49 0 m 314 388 l 519 388 l 458 660 q 432 783 443 728 q 417 863 421 838 q 401 783 413 838 q 375 661 390 728 l 314 388 z "},"Б":{"ha":833,"x_min":108,"x_max":761,"o":"m 108 0 l 108 1014 l 717 1014 l 717 857 l 278 857 l 278 615 l 426 615 q 603 577 528 615 q 719 470 678 539 q 761 310 761 401 q 719 149 761 218 q 603 40 678 79 q 428 0 529 0 l 108 0 m 278 153 l 428 153 q 542 196 500 153 q 585 310 585 239 q 542 424 585 382 q 428 467 500 467 l 278 467 l 278 153 z "},"В":{"ha":833,"x_min":107,"x_max":761,"o":"m 107 0 l 107 1014 l 418 1014 q 651 943 564 1014 q 738 753 738 872 q 690 610 738 669 q 565 538 642 550 l 565 535 q 667 494 622 528 q 736 406 711 460 q 761 289 761 353 q 721 136 761 201 q 607 35 681 71 q 433 0 533 0 l 107 0 m 276 596 l 415 596 q 524 633 483 596 q 564 733 564 669 q 524 833 564 796 q 415 869 485 869 l 276 869 l 276 596 m 276 144 l 424 144 q 544 185 500 144 q 588 297 588 226 q 544 412 588 368 q 424 456 500 456 l 276 456 l 276 144 z "},"Г":{"ha":833,"x_min":168,"x_max":775,"o":"m 168 0 l 168 1014 l 775 1014 l 775 857 l 342 857 l 342 0 l 168 0 z "}}}
